G04 Layer_Color=0*
%FSLAX43Y43*%
%MOMM*%
%TF.FileFunction,Plated,1,4,PTH,Drill*%
%TF.Part,Single*%
G01*
G75*
%TA.AperFunction,OtherDrill,Pad Free-6 (14.097mm,18.542mm)*%
%ADD74C,0.400*%
%TA.AperFunction,ComponentDrill*%
%ADD75C,1.000*%
%ADD76C,1.000*%
%ADD77C,2.800*%
%ADD78C,0.700*%
%ADD79C,1.600*%
%ADD80C,1.400*%
%ADD81C,4.000*%
%ADD82C,1.270*%
%TA.AperFunction,OtherDrill,Pad Free-5 (51.181mm,26.924mm)*%
%ADD83C,0.400*%
%TA.AperFunction,OtherDrill,Pad Free-4 (38.223mm,-9.017mm)*%
%ADD84C,4.000*%
%TA.AperFunction,OtherDrill,Pad Free-3 (123.698mm,66.675mm)*%
%ADD85C,4.000*%
%TA.AperFunction,OtherDrill,Pad Free-2 (38.223mm,66.675mm)*%
%ADD86C,4.000*%
%TA.AperFunction,OtherDrill,Pad Free-1 (124.079mm,-8.509mm)*%
%ADD87C,4.000*%
%TA.AperFunction,ViaDrill,NotFilled*%
%ADD88C,0.400*%
%ADD89C,1.000*%
D74*
X14097Y18542D02*
D03*
D75*
X134366Y-12319D02*
D03*
Y-9779D02*
D03*
Y-7239D02*
D03*
Y-4699D02*
D03*
Y-2159D02*
D03*
Y381D02*
D03*
X136906Y-12319D02*
D03*
Y-9779D02*
D03*
Y-7239D02*
D03*
Y-4699D02*
D03*
Y-2159D02*
D03*
Y381D02*
D03*
X134316Y10541D02*
D03*
Y13081D02*
D03*
Y15621D02*
D03*
Y18161D02*
D03*
Y20701D02*
D03*
Y23241D02*
D03*
X136856Y10541D02*
D03*
Y13081D02*
D03*
Y15621D02*
D03*
Y18161D02*
D03*
Y20701D02*
D03*
Y23241D02*
D03*
X134291Y33401D02*
D03*
Y35941D02*
D03*
Y38481D02*
D03*
Y41021D02*
D03*
Y43561D02*
D03*
Y46101D02*
D03*
X136831Y33401D02*
D03*
Y35941D02*
D03*
Y38481D02*
D03*
Y41021D02*
D03*
Y43561D02*
D03*
Y46101D02*
D03*
X136881Y68961D02*
D03*
Y66421D02*
D03*
Y63881D02*
D03*
Y61341D02*
D03*
Y58801D02*
D03*
Y56261D02*
D03*
X134341Y68961D02*
D03*
Y66421D02*
D03*
Y63881D02*
D03*
Y61341D02*
D03*
Y58801D02*
D03*
Y56261D02*
D03*
X25781Y4953D02*
D03*
X23241D02*
D03*
X25781Y7493D02*
D03*
X23241D02*
D03*
X25781Y10033D02*
D03*
X23241D02*
D03*
X25781Y12573D02*
D03*
X23241D02*
D03*
X25781Y15113D02*
D03*
X23241D02*
D03*
X25781Y17653D02*
D03*
X23241D02*
D03*
X25781Y20193D02*
D03*
X23241D02*
D03*
X25781Y22733D02*
D03*
X23241D02*
D03*
X25781Y25273D02*
D03*
X23241D02*
D03*
X25781Y27813D02*
D03*
X23241D02*
D03*
X25781Y30353D02*
D03*
X23241D02*
D03*
X25781Y32893D02*
D03*
X23241D02*
D03*
X25781Y35433D02*
D03*
X23241D02*
D03*
X25781Y37973D02*
D03*
X23241D02*
D03*
X25781Y40513D02*
D03*
X23241D02*
D03*
X25781Y43053D02*
D03*
X23241D02*
D03*
X25781Y45593D02*
D03*
X23241D02*
D03*
X25781Y48133D02*
D03*
X23241D02*
D03*
X25781Y50673D02*
D03*
X23241D02*
D03*
X25781Y53213D02*
D03*
X23241D02*
D03*
D76*
X47879Y-10795D02*
D03*
X50419D02*
D03*
X52959D02*
D03*
X58039D02*
D03*
X60579D02*
D03*
X112395Y-2159D02*
D03*
X109855D02*
D03*
X47879Y-2540D02*
D03*
X50419D02*
D03*
X52959D02*
D03*
X58039D02*
D03*
X60579D02*
D03*
X85725D02*
D03*
X83185D02*
D03*
D77*
X104775Y-7239D02*
D03*
X114935D02*
D03*
X78105Y-7620D02*
D03*
X88265D02*
D03*
D78*
X99187Y1905D02*
D03*
Y4445D02*
D03*
Y6985D02*
D03*
X67310Y2286D02*
D03*
Y4826D02*
D03*
Y7366D02*
D03*
D79*
X64897Y45085D02*
D03*
X62357Y47625D02*
D03*
X67437D02*
D03*
X62357Y42545D02*
D03*
X67437D02*
D03*
X65278Y29083D02*
D03*
X62738Y31623D02*
D03*
X67818D02*
D03*
X62738Y26543D02*
D03*
X67818D02*
D03*
D80*
X78827Y46656D02*
D03*
X73827D02*
D03*
X76327Y36656D02*
D03*
X91146Y46783D02*
D03*
X86146D02*
D03*
X88646Y36783D02*
D03*
X110196Y46783D02*
D03*
X105196D02*
D03*
X107696Y36783D02*
D03*
X121499Y46783D02*
D03*
X116499D02*
D03*
X118999Y36783D02*
D03*
D81*
X76327Y41656D02*
D03*
X88646Y41783D02*
D03*
X107696D02*
D03*
X118999D02*
D03*
D82*
X12700Y56401D02*
D03*
X9652Y2019D02*
D03*
D83*
X51181Y26924D02*
D03*
D84*
X38223Y-9017D02*
D03*
D85*
X123698Y66675D02*
D03*
D86*
X38223D02*
D03*
D87*
X124079Y-8509D02*
D03*
D88*
X51181Y45593D02*
D03*
X52578Y25400D02*
D03*
X79375Y27686D02*
D03*
X68453Y19050D02*
D03*
X61722D02*
D03*
X48387Y19177D02*
D03*
X46355Y40894D02*
D03*
X54991Y43434D02*
D03*
X9222Y49989D02*
D03*
X44958Y33274D02*
D03*
X47625Y47625D02*
D03*
X92329Y9271D02*
D03*
X75946Y-635D02*
D03*
X112776Y27051D02*
D03*
X128397Y26797D02*
D03*
X110871Y30607D02*
D03*
X80633Y28702D02*
D03*
X86741Y32639D02*
D03*
X124169Y33618D02*
D03*
X112126Y33540D02*
D03*
X92456Y35179D02*
D03*
X122809Y31369D02*
D03*
X47117Y18288D02*
D03*
X55499Y18288D02*
D03*
X47625Y43815D02*
D03*
X77851Y18415D02*
D03*
X91694Y18161D02*
D03*
X110363Y18415D02*
D03*
X120777Y18796D02*
D03*
X79375Y34290D02*
D03*
Y29718D02*
D03*
X40513Y35560D02*
D03*
X111252Y28194D02*
D03*
X98206Y25562D02*
D03*
X10160Y27813D02*
D03*
X9398Y30353D02*
D03*
D89*
X42926Y1651D02*
D03*
%TF.MD5,466c895ecf29c42f3ffd18ef5e58f460*%
M02*
