G04 Layer_Color=128*
%FSLAX43Y43*%
%MOMM*%
%TF.FileFunction,Paste,Bot*%
%TF.Part,Single*%
G01*
G75*
%TA.AperFunction,BGAPad,CuDef*%
%ADD39C,0.700*%
D39*
X11557Y37465D02*
D03*
Y36195D02*
D03*
Y34925D02*
D03*
Y33655D02*
D03*
Y32385D02*
D03*
Y31115D02*
D03*
Y29845D02*
D03*
Y28575D02*
D03*
Y27305D02*
D03*
Y26035D02*
D03*
Y24765D02*
D03*
Y23495D02*
D03*
Y22225D02*
D03*
Y20955D02*
D03*
Y19685D02*
D03*
Y18415D02*
D03*
Y17145D02*
D03*
Y15875D02*
D03*
Y14605D02*
D03*
Y13335D02*
D03*
Y12065D02*
D03*
Y10795D02*
D03*
Y9525D02*
D03*
Y8255D02*
D03*
Y6985D02*
D03*
Y5715D02*
D03*
Y4445D02*
D03*
X12827Y37465D02*
D03*
Y36195D02*
D03*
Y34925D02*
D03*
Y33655D02*
D03*
Y32385D02*
D03*
Y31115D02*
D03*
Y29845D02*
D03*
Y28575D02*
D03*
Y27305D02*
D03*
Y26035D02*
D03*
Y24765D02*
D03*
Y23495D02*
D03*
Y22225D02*
D03*
Y20955D02*
D03*
Y19685D02*
D03*
Y18415D02*
D03*
Y17145D02*
D03*
Y15875D02*
D03*
Y14605D02*
D03*
Y13335D02*
D03*
Y12065D02*
D03*
Y10795D02*
D03*
Y9525D02*
D03*
Y8255D02*
D03*
Y6985D02*
D03*
Y5715D02*
D03*
Y4445D02*
D03*
X7747Y20955D02*
D03*
Y19685D02*
D03*
Y18415D02*
D03*
Y17145D02*
D03*
Y15875D02*
D03*
Y14605D02*
D03*
Y13335D02*
D03*
Y12065D02*
D03*
Y10795D02*
D03*
Y9525D02*
D03*
Y8255D02*
D03*
Y6985D02*
D03*
Y5715D02*
D03*
Y4445D02*
D03*
Y22225D02*
D03*
Y23495D02*
D03*
Y24765D02*
D03*
Y26035D02*
D03*
Y27305D02*
D03*
Y28575D02*
D03*
Y29845D02*
D03*
Y31115D02*
D03*
X6477Y4445D02*
D03*
Y5715D02*
D03*
Y6985D02*
D03*
Y8255D02*
D03*
Y9525D02*
D03*
Y10795D02*
D03*
Y12065D02*
D03*
Y13335D02*
D03*
Y14605D02*
D03*
Y15875D02*
D03*
Y17145D02*
D03*
Y18415D02*
D03*
Y19685D02*
D03*
Y20955D02*
D03*
Y22225D02*
D03*
Y23495D02*
D03*
Y24765D02*
D03*
Y26035D02*
D03*
Y27305D02*
D03*
Y28575D02*
D03*
Y29845D02*
D03*
Y31115D02*
D03*
Y32385D02*
D03*
Y33655D02*
D03*
Y34925D02*
D03*
Y36195D02*
D03*
Y37465D02*
D03*
Y38735D02*
D03*
Y40005D02*
D03*
Y41275D02*
D03*
Y42545D02*
D03*
Y43815D02*
D03*
Y45085D02*
D03*
Y46355D02*
D03*
Y47625D02*
D03*
Y48895D02*
D03*
Y50165D02*
D03*
Y51435D02*
D03*
Y52705D02*
D03*
Y53975D02*
D03*
X7747Y32385D02*
D03*
Y33655D02*
D03*
Y34925D02*
D03*
Y36195D02*
D03*
Y37465D02*
D03*
Y38735D02*
D03*
Y40005D02*
D03*
Y41275D02*
D03*
Y42545D02*
D03*
Y43815D02*
D03*
Y45085D02*
D03*
Y46355D02*
D03*
Y47625D02*
D03*
Y48895D02*
D03*
Y50165D02*
D03*
Y51435D02*
D03*
Y52705D02*
D03*
Y53975D02*
D03*
X12827Y38735D02*
D03*
Y40005D02*
D03*
Y41275D02*
D03*
Y42545D02*
D03*
Y43815D02*
D03*
Y45085D02*
D03*
Y46355D02*
D03*
Y47625D02*
D03*
Y48895D02*
D03*
Y50165D02*
D03*
Y51435D02*
D03*
Y52705D02*
D03*
Y53975D02*
D03*
X11557Y38735D02*
D03*
Y40005D02*
D03*
Y41275D02*
D03*
Y42545D02*
D03*
Y43815D02*
D03*
Y45085D02*
D03*
Y46355D02*
D03*
Y47625D02*
D03*
Y48895D02*
D03*
Y50165D02*
D03*
Y51435D02*
D03*
Y52705D02*
D03*
Y53975D02*
D03*
%TF.MD5,99fe272875fb9edb1e89d63627a06e5c*%
M02*
