G04 Layer_Color=8388736*
%FSLAX43Y43*%
%MOMM*%
%TF.FileFunction,Soldermask,Top*%
%TF.Part,Single*%
G01*
G75*
%TA.AperFunction,SMDPad,CuDef*%
%ADD44R,1.350X0.650*%
%ADD45R,1.103X0.903*%
%ADD46R,1.903X1.303*%
%ADD47R,1.603X1.303*%
%ADD48R,2.403X2.803*%
%ADD49R,0.903X1.103*%
%ADD50R,1.303X1.603*%
%ADD51R,1.003X1.103*%
%ADD52R,1.203X1.503*%
%ADD53R,0.640X0.940*%
%ADD54R,0.803X0.803*%
%ADD55C,2.000*%
%ADD56R,1.502X0.402*%
%ADD57R,1.303X1.903*%
%ADD58R,2.203X2.403*%
%TA.AperFunction,ViaPad*%
%ADD59C,1.103*%
%TA.AperFunction,ComponentPad*%
%ADD60C,1.703*%
%ADD61C,3.503*%
%ADD62C,1.403*%
%ADD63C,2.302*%
%ADD64C,2.302*%
%ADD65C,2.103*%
%ADD66C,4.203*%
%TA.AperFunction,ViaPad*%
%ADD67C,8.203*%
%ADD68C,2.203*%
D44*
X113962Y29591D02*
D03*
Y30861D02*
D03*
Y32131D02*
D03*
Y33401D02*
D03*
X108712Y29591D02*
D03*
Y30861D02*
D03*
Y32131D02*
D03*
Y33401D02*
D03*
X118322Y9144D02*
D03*
Y10414D02*
D03*
Y11684D02*
D03*
Y12954D02*
D03*
X113072Y9144D02*
D03*
Y10414D02*
D03*
Y11684D02*
D03*
Y12954D02*
D03*
X103336Y9144D02*
D03*
Y10414D02*
D03*
Y11684D02*
D03*
Y12954D02*
D03*
X98086Y9144D02*
D03*
Y10414D02*
D03*
Y11684D02*
D03*
Y12954D02*
D03*
X70993Y9525D02*
D03*
Y10795D02*
D03*
Y12065D02*
D03*
Y13335D02*
D03*
X65743Y9525D02*
D03*
Y10795D02*
D03*
Y12065D02*
D03*
Y13335D02*
D03*
X85810Y9779D02*
D03*
Y11049D02*
D03*
Y12319D02*
D03*
Y13589D02*
D03*
X80560Y9779D02*
D03*
Y11049D02*
D03*
Y12319D02*
D03*
Y13589D02*
D03*
X82508Y28702D02*
D03*
Y29972D02*
D03*
Y31242D02*
D03*
Y32512D02*
D03*
X77258Y28702D02*
D03*
Y29972D02*
D03*
Y31242D02*
D03*
Y32512D02*
D03*
D45*
X106807Y32131D02*
D03*
Y33631D02*
D03*
X105029D02*
D03*
Y32131D02*
D03*
X106807Y29349D02*
D03*
Y30849D02*
D03*
X105029Y30849D02*
D03*
Y29349D02*
D03*
X108966Y25793D02*
D03*
Y27293D02*
D03*
X116586Y30492D02*
D03*
Y31992D02*
D03*
X118364Y31992D02*
D03*
Y30492D02*
D03*
X122809Y30087D02*
D03*
Y28587D02*
D03*
X118491Y27571D02*
D03*
Y29071D02*
D03*
X116586Y27571D02*
D03*
Y29071D02*
D03*
X115189Y14871D02*
D03*
Y16371D02*
D03*
X113411Y16371D02*
D03*
Y14871D02*
D03*
X111506Y16371D02*
D03*
Y14871D02*
D03*
X100203Y15990D02*
D03*
Y14490D02*
D03*
X98552Y15990D02*
D03*
Y14490D02*
D03*
X96393Y11926D02*
D03*
Y10426D02*
D03*
X96393Y5600D02*
D03*
Y7100D02*
D03*
X96393Y3302D02*
D03*
Y1802D02*
D03*
X67945Y16498D02*
D03*
Y14998D02*
D03*
X66421Y16486D02*
D03*
Y14986D02*
D03*
X64008Y12307D02*
D03*
Y10807D02*
D03*
X64008Y5854D02*
D03*
Y7354D02*
D03*
X64135Y3798D02*
D03*
Y2298D02*
D03*
X79121Y17260D02*
D03*
Y15760D02*
D03*
X80645Y17260D02*
D03*
Y15760D02*
D03*
X82169Y15760D02*
D03*
Y17260D02*
D03*
X84836Y29603D02*
D03*
Y31103D02*
D03*
X86741Y31103D02*
D03*
Y29603D02*
D03*
X91313Y29845D02*
D03*
Y28345D02*
D03*
X86741Y26682D02*
D03*
Y28182D02*
D03*
X84963Y26682D02*
D03*
Y28182D02*
D03*
X77597Y25031D02*
D03*
Y26531D02*
D03*
X75565Y28460D02*
D03*
Y29960D02*
D03*
X73914Y29960D02*
D03*
Y28460D02*
D03*
X75565Y31254D02*
D03*
Y32754D02*
D03*
X73787Y32881D02*
D03*
Y31381D02*
D03*
D46*
X106807Y27686D02*
D03*
Y24986D02*
D03*
X120650Y31195D02*
D03*
Y28495D02*
D03*
X89154Y31068D02*
D03*
Y28368D02*
D03*
X75565Y27004D02*
D03*
Y24304D02*
D03*
D47*
X116713Y33540D02*
D03*
Y35040D02*
D03*
X114300Y25793D02*
D03*
Y27293D02*
D03*
X120650Y16752D02*
D03*
Y15252D02*
D03*
X120523Y6719D02*
D03*
Y5219D02*
D03*
X104140Y16498D02*
D03*
Y14998D02*
D03*
X104521Y6211D02*
D03*
Y4711D02*
D03*
X72263Y6084D02*
D03*
Y4584D02*
D03*
X72136Y18022D02*
D03*
Y16522D02*
D03*
X85598Y17375D02*
D03*
Y15875D02*
D03*
X85598Y6338D02*
D03*
Y4838D02*
D03*
X84963Y32778D02*
D03*
Y34278D02*
D03*
X82296Y25539D02*
D03*
Y27039D02*
D03*
D48*
X123952Y12613D02*
D03*
Y17613D02*
D03*
Y4358D02*
D03*
Y9358D02*
D03*
X107696Y17867D02*
D03*
Y12867D02*
D03*
Y9358D02*
D03*
Y4358D02*
D03*
X75692Y9612D02*
D03*
Y4612D02*
D03*
Y13415D02*
D03*
Y18415D02*
D03*
X89281Y18248D02*
D03*
Y13248D02*
D03*
Y4866D02*
D03*
Y9866D02*
D03*
D49*
X60313Y4699D02*
D03*
X58813D02*
D03*
X38481Y51562D02*
D03*
X36981D02*
D03*
X38469Y50165D02*
D03*
X36969D02*
D03*
X38469Y48768D02*
D03*
X36969D02*
D03*
X38469Y47371D02*
D03*
X36969D02*
D03*
X38469Y45974D02*
D03*
X36969D02*
D03*
X38596Y44704D02*
D03*
X37096D02*
D03*
X38596Y43307D02*
D03*
X37096D02*
D03*
X38608Y41910D02*
D03*
X37108D02*
D03*
X38596Y40513D02*
D03*
X37096D02*
D03*
X38608Y39116D02*
D03*
X37108D02*
D03*
X39370Y26289D02*
D03*
X37870D02*
D03*
X39370Y24892D02*
D03*
X37870D02*
D03*
X39358Y23495D02*
D03*
X37858D02*
D03*
X39370Y21971D02*
D03*
X37870D02*
D03*
X39370Y20574D02*
D03*
X37870D02*
D03*
X39358Y19177D02*
D03*
X37858D02*
D03*
X39358Y17780D02*
D03*
X37858D02*
D03*
X39358Y16383D02*
D03*
X37858D02*
D03*
X39358Y14986D02*
D03*
X37858D02*
D03*
X39358Y13589D02*
D03*
X37858D02*
D03*
D50*
X48629Y12954D02*
D03*
X47129D02*
D03*
X59170Y22987D02*
D03*
X57670D02*
D03*
X55868Y24511D02*
D03*
X54368D02*
D03*
X47740Y38481D02*
D03*
X46240D02*
D03*
X57900Y46609D02*
D03*
X56400D02*
D03*
X54471Y45720D02*
D03*
X52971D02*
D03*
D51*
X47179Y11176D02*
D03*
X48579D02*
D03*
X54480Y16256D02*
D03*
X55880D02*
D03*
X52894Y18288D02*
D03*
X54294D02*
D03*
X54291Y26289D02*
D03*
X55691D02*
D03*
X46290Y36703D02*
D03*
X47690D02*
D03*
X53021Y41402D02*
D03*
X54421D02*
D03*
X52894Y43434D02*
D03*
X54294D02*
D03*
X52767Y51181D02*
D03*
X54167D02*
D03*
D52*
X57493Y17272D02*
D03*
X59093D02*
D03*
X57620Y19177D02*
D03*
X59220D02*
D03*
X57620Y21082D02*
D03*
X59220D02*
D03*
X54318Y20447D02*
D03*
X55918D02*
D03*
X54318Y22479D02*
D03*
X55918D02*
D03*
X54318Y28067D02*
D03*
X55918D02*
D03*
X56388Y42545D02*
D03*
X57988D02*
D03*
X56350Y44450D02*
D03*
X57950D02*
D03*
X52921Y47625D02*
D03*
X54521D02*
D03*
X56350Y48641D02*
D03*
X57950D02*
D03*
X52921Y49530D02*
D03*
X54521D02*
D03*
X52794Y52959D02*
D03*
X54394D02*
D03*
D53*
X53071Y66929D02*
D03*
X54371D02*
D03*
D54*
X49673D02*
D03*
X50673D02*
D03*
D55*
X130556Y-12827D02*
D03*
Y69215D02*
D03*
X33528Y-13081D02*
D03*
X33401Y70358D02*
D03*
D56*
X44875Y23783D02*
D03*
Y23133D02*
D03*
Y22483D02*
D03*
Y21833D02*
D03*
Y21183D02*
D03*
Y20533D02*
D03*
Y19883D02*
D03*
Y19233D02*
D03*
Y18583D02*
D03*
Y17933D02*
D03*
Y17283D02*
D03*
Y16633D02*
D03*
Y15983D02*
D03*
Y15333D02*
D03*
X50375Y23783D02*
D03*
Y23133D02*
D03*
Y22483D02*
D03*
Y21833D02*
D03*
Y21183D02*
D03*
Y20533D02*
D03*
Y19883D02*
D03*
Y19233D02*
D03*
Y18583D02*
D03*
Y17933D02*
D03*
Y17283D02*
D03*
Y16633D02*
D03*
Y15983D02*
D03*
Y15333D02*
D03*
X43688Y49045D02*
D03*
Y48395D02*
D03*
Y47745D02*
D03*
Y47095D02*
D03*
Y46445D02*
D03*
Y45795D02*
D03*
Y45145D02*
D03*
Y44495D02*
D03*
Y43845D02*
D03*
Y43195D02*
D03*
Y42545D02*
D03*
Y41895D02*
D03*
Y41245D02*
D03*
Y40595D02*
D03*
X49188Y49045D02*
D03*
Y48395D02*
D03*
Y47745D02*
D03*
Y47095D02*
D03*
Y46445D02*
D03*
Y45795D02*
D03*
Y45145D02*
D03*
Y44495D02*
D03*
Y43845D02*
D03*
Y43195D02*
D03*
Y42545D02*
D03*
Y41895D02*
D03*
Y41245D02*
D03*
Y40595D02*
D03*
D57*
X52498Y8255D02*
D03*
X55198D02*
D03*
X46402D02*
D03*
X49102D02*
D03*
D58*
X52221Y4953D02*
D03*
X55221D02*
D03*
X46252D02*
D03*
X49252D02*
D03*
D59*
X14097Y18542D02*
D03*
X51181Y26924D02*
D03*
Y45593D02*
D03*
X52578Y25400D02*
D03*
X79375Y27686D02*
D03*
X68453Y19050D02*
D03*
X61722D02*
D03*
X48387Y19177D02*
D03*
X46355Y40894D02*
D03*
X54991Y43434D02*
D03*
X9222Y49989D02*
D03*
X44958Y33274D02*
D03*
X47625Y47625D02*
D03*
X92329Y9271D02*
D03*
X75946Y-635D02*
D03*
X112776Y27051D02*
D03*
X128397Y26797D02*
D03*
X110871Y30607D02*
D03*
X80633Y28702D02*
D03*
X86741Y32639D02*
D03*
X124169Y33618D02*
D03*
X112126Y33540D02*
D03*
X92456Y35179D02*
D03*
X122809Y31369D02*
D03*
X47117Y18288D02*
D03*
X55499Y18288D02*
D03*
X47625Y43815D02*
D03*
X77851Y18415D02*
D03*
X91694Y18161D02*
D03*
X110363Y18415D02*
D03*
X120777Y18796D02*
D03*
X79375Y34290D02*
D03*
Y29718D02*
D03*
X40513Y35560D02*
D03*
X111252Y28194D02*
D03*
X98206Y25562D02*
D03*
X10160Y27813D02*
D03*
X9398Y30353D02*
D03*
D60*
X134366Y-12319D02*
D03*
Y-9779D02*
D03*
Y-7239D02*
D03*
Y-4699D02*
D03*
Y-2159D02*
D03*
Y381D02*
D03*
X136906Y-12319D02*
D03*
Y-9779D02*
D03*
Y-7239D02*
D03*
Y-4699D02*
D03*
Y-2159D02*
D03*
Y381D02*
D03*
X134316Y10541D02*
D03*
Y13081D02*
D03*
Y15621D02*
D03*
Y18161D02*
D03*
Y20701D02*
D03*
Y23241D02*
D03*
X136856Y10541D02*
D03*
Y13081D02*
D03*
Y15621D02*
D03*
Y18161D02*
D03*
Y20701D02*
D03*
Y23241D02*
D03*
X134291Y33401D02*
D03*
Y35941D02*
D03*
Y38481D02*
D03*
Y41021D02*
D03*
Y43561D02*
D03*
Y46101D02*
D03*
X136831Y33401D02*
D03*
Y35941D02*
D03*
Y38481D02*
D03*
Y41021D02*
D03*
Y43561D02*
D03*
Y46101D02*
D03*
X136881Y68961D02*
D03*
Y66421D02*
D03*
Y63881D02*
D03*
Y61341D02*
D03*
Y58801D02*
D03*
Y56261D02*
D03*
X134341Y68961D02*
D03*
Y66421D02*
D03*
Y63881D02*
D03*
Y61341D02*
D03*
Y58801D02*
D03*
Y56261D02*
D03*
X25781Y4953D02*
D03*
X23241D02*
D03*
X25781Y7493D02*
D03*
X23241D02*
D03*
X25781Y10033D02*
D03*
X23241D02*
D03*
X25781Y12573D02*
D03*
X23241D02*
D03*
X25781Y15113D02*
D03*
X23241D02*
D03*
X25781Y17653D02*
D03*
X23241D02*
D03*
X25781Y20193D02*
D03*
X23241D02*
D03*
X25781Y22733D02*
D03*
X23241D02*
D03*
X25781Y25273D02*
D03*
X23241D02*
D03*
X25781Y27813D02*
D03*
X23241D02*
D03*
X25781Y30353D02*
D03*
X23241D02*
D03*
X25781Y32893D02*
D03*
X23241D02*
D03*
X25781Y35433D02*
D03*
X23241D02*
D03*
X25781Y37973D02*
D03*
X23241D02*
D03*
X25781Y40513D02*
D03*
X23241D02*
D03*
X25781Y43053D02*
D03*
X23241D02*
D03*
X25781Y45593D02*
D03*
X23241D02*
D03*
X25781Y48133D02*
D03*
X23241D02*
D03*
X25781Y50673D02*
D03*
X23241D02*
D03*
X25781Y53213D02*
D03*
X23241D02*
D03*
X47879Y-10795D02*
D03*
X50419D02*
D03*
X52959D02*
D03*
X58039D02*
D03*
X60579D02*
D03*
X112395Y-2159D02*
D03*
X109855D02*
D03*
X47879Y-2540D02*
D03*
X50419D02*
D03*
X52959D02*
D03*
X58039D02*
D03*
X60579D02*
D03*
X85725D02*
D03*
X83185D02*
D03*
D61*
X104775Y-7239D02*
D03*
X114935D02*
D03*
X78105Y-7620D02*
D03*
X88265D02*
D03*
D62*
X99187Y1905D02*
D03*
Y4445D02*
D03*
Y6985D02*
D03*
X67310Y2286D02*
D03*
Y4826D02*
D03*
Y7366D02*
D03*
D63*
X64897Y45085D02*
D03*
X65278Y29083D02*
D03*
D64*
X62357Y47625D02*
D03*
X67437D02*
D03*
X62357Y42545D02*
D03*
X67437D02*
D03*
X62738Y31623D02*
D03*
X67818D02*
D03*
X62738Y26543D02*
D03*
X67818D02*
D03*
D65*
X78827Y46656D02*
D03*
X73827D02*
D03*
X76327Y36656D02*
D03*
X91146Y46783D02*
D03*
X86146D02*
D03*
X88646Y36783D02*
D03*
X110196Y46783D02*
D03*
X105196D02*
D03*
X107696Y36783D02*
D03*
X121499Y46783D02*
D03*
X116499D02*
D03*
X118999Y36783D02*
D03*
D66*
X76327Y41656D02*
D03*
X88646Y41783D02*
D03*
X107696D02*
D03*
X118999D02*
D03*
D67*
X38223Y-9017D02*
D03*
X123698Y66675D02*
D03*
X38223D02*
D03*
X124079Y-8509D02*
D03*
D68*
X42926Y1651D02*
D03*
%TF.MD5,e55e105937a545eb94e4ff2f474cfe5a*%
M02*
