G04 Layer_Color=128*
%FSLAX43Y43*%
%MOMM*%
%TF.FileFunction,Drillmap*%
%TF.Part,Single*%
G01*
G75*
%TA.AperFunction,NonConductor*%
%ADD43C,0.127*%
D43*
X13897Y18542D02*
X14297D01*
X14097Y18342D02*
Y18742D01*
X133866Y-12319D02*
X134866D01*
X134366Y-12819D02*
Y-11819D01*
X133866Y-9779D02*
X134866D01*
X134366Y-10279D02*
Y-9279D01*
X133866Y-7239D02*
X134866D01*
X134366Y-7739D02*
Y-6739D01*
X133866Y-4699D02*
X134866D01*
X134366Y-5199D02*
Y-4199D01*
X133866Y-2159D02*
X134866D01*
X134366Y-2659D02*
Y-1659D01*
X133866Y381D02*
X134866D01*
X134366Y-119D02*
Y881D01*
X136406Y-12319D02*
X137406D01*
X136906Y-12819D02*
Y-11819D01*
X136406Y-9779D02*
X137406D01*
X136906Y-10279D02*
Y-9279D01*
X136406Y-7239D02*
X137406D01*
X136906Y-7739D02*
Y-6739D01*
X136406Y-4699D02*
X137406D01*
X136906Y-5199D02*
Y-4199D01*
X136406Y-2159D02*
X137406D01*
X136906Y-2659D02*
Y-1659D01*
X136406Y381D02*
X137406D01*
X136906Y-119D02*
Y881D01*
X133816Y10541D02*
X134816D01*
X134316Y10041D02*
Y11041D01*
X133816Y13081D02*
X134816D01*
X134316Y12581D02*
Y13581D01*
X133816Y15621D02*
X134816D01*
X134316Y15121D02*
Y16121D01*
X133816Y18161D02*
X134816D01*
X134316Y17661D02*
Y18661D01*
X133816Y20701D02*
X134816D01*
X134316Y20201D02*
Y21201D01*
X133816Y23241D02*
X134816D01*
X134316Y22741D02*
Y23741D01*
X136356Y10541D02*
X137356D01*
X136856Y10041D02*
Y11041D01*
X136356Y13081D02*
X137356D01*
X136856Y12581D02*
Y13581D01*
X136356Y15621D02*
X137356D01*
X136856Y15121D02*
Y16121D01*
X136356Y18161D02*
X137356D01*
X136856Y17661D02*
Y18661D01*
X136356Y20701D02*
X137356D01*
X136856Y20201D02*
Y21201D01*
X136356Y23241D02*
X137356D01*
X136856Y22741D02*
Y23741D01*
X133791Y33401D02*
X134791D01*
X134291Y32901D02*
Y33901D01*
X133791Y35941D02*
X134791D01*
X134291Y35441D02*
Y36441D01*
X133791Y38481D02*
X134791D01*
X134291Y37981D02*
Y38981D01*
X133791Y41021D02*
X134791D01*
X134291Y40521D02*
Y41521D01*
X133791Y43561D02*
X134791D01*
X134291Y43061D02*
Y44061D01*
X133791Y46101D02*
X134791D01*
X134291Y45601D02*
Y46601D01*
X136331Y33401D02*
X137331D01*
X136831Y32901D02*
Y33901D01*
X136331Y35941D02*
X137331D01*
X136831Y35441D02*
Y36441D01*
X136331Y38481D02*
X137331D01*
X136831Y37981D02*
Y38981D01*
X136331Y41021D02*
X137331D01*
X136831Y40521D02*
Y41521D01*
X136331Y43561D02*
X137331D01*
X136831Y43061D02*
Y44061D01*
X136331Y46101D02*
X137331D01*
X136831Y45601D02*
Y46601D01*
X136381Y68961D02*
X137381D01*
X136881Y68461D02*
Y69461D01*
X136381Y66421D02*
X137381D01*
X136881Y65921D02*
Y66921D01*
X136381Y63881D02*
X137381D01*
X136881Y63381D02*
Y64381D01*
X136381Y61341D02*
X137381D01*
X136881Y60841D02*
Y61841D01*
X136381Y58801D02*
X137381D01*
X136881Y58301D02*
Y59301D01*
X136381Y56261D02*
X137381D01*
X136881Y55761D02*
Y56761D01*
X133841Y68961D02*
X134841D01*
X134341Y68461D02*
Y69461D01*
X133841Y66421D02*
X134841D01*
X134341Y65921D02*
Y66921D01*
X133841Y63881D02*
X134841D01*
X134341Y63381D02*
Y64381D01*
X133841Y61341D02*
X134841D01*
X134341Y60841D02*
Y61841D01*
X133841Y58801D02*
X134841D01*
X134341Y58301D02*
Y59301D01*
X133841Y56261D02*
X134841D01*
X134341Y55761D02*
Y56761D01*
X25281Y4953D02*
X26281D01*
X25781Y4453D02*
Y5453D01*
X22741Y4953D02*
X23741D01*
X23241Y4453D02*
Y5453D01*
X25281Y7493D02*
X26281D01*
X25781Y6993D02*
Y7993D01*
X22741Y7493D02*
X23741D01*
X23241Y6993D02*
Y7993D01*
X25281Y10033D02*
X26281D01*
X25781Y9533D02*
Y10533D01*
X22741Y10033D02*
X23741D01*
X23241Y9533D02*
Y10533D01*
X25281Y12573D02*
X26281D01*
X25781Y12073D02*
Y13073D01*
X22741Y12573D02*
X23741D01*
X23241Y12073D02*
Y13073D01*
X25281Y15113D02*
X26281D01*
X25781Y14613D02*
Y15613D01*
X22741Y15113D02*
X23741D01*
X23241Y14613D02*
Y15613D01*
X25281Y17653D02*
X26281D01*
X25781Y17153D02*
Y18153D01*
X22741Y17653D02*
X23741D01*
X23241Y17153D02*
Y18153D01*
X25281Y20193D02*
X26281D01*
X25781Y19693D02*
Y20693D01*
X22741Y20193D02*
X23741D01*
X23241Y19693D02*
Y20693D01*
X25281Y22733D02*
X26281D01*
X25781Y22233D02*
Y23233D01*
X22741Y22733D02*
X23741D01*
X23241Y22233D02*
Y23233D01*
X25281Y25273D02*
X26281D01*
X25781Y24773D02*
Y25773D01*
X22741Y25273D02*
X23741D01*
X23241Y24773D02*
Y25773D01*
X25281Y27813D02*
X26281D01*
X25781Y27313D02*
Y28313D01*
X22741Y27813D02*
X23741D01*
X23241Y27313D02*
Y28313D01*
X25281Y30353D02*
X26281D01*
X25781Y29853D02*
Y30853D01*
X22741Y30353D02*
X23741D01*
X23241Y29853D02*
Y30853D01*
X25281Y32893D02*
X26281D01*
X25781Y32393D02*
Y33393D01*
X22741Y32893D02*
X23741D01*
X23241Y32393D02*
Y33393D01*
X25281Y35433D02*
X26281D01*
X25781Y34933D02*
Y35933D01*
X22741Y35433D02*
X23741D01*
X23241Y34933D02*
Y35933D01*
X25281Y37973D02*
X26281D01*
X25781Y37473D02*
Y38473D01*
X22741Y37973D02*
X23741D01*
X23241Y37473D02*
Y38473D01*
X25281Y40513D02*
X26281D01*
X25781Y40013D02*
Y41013D01*
X22741Y40513D02*
X23741D01*
X23241Y40013D02*
Y41013D01*
X25281Y43053D02*
X26281D01*
X25781Y42553D02*
Y43553D01*
X22741Y43053D02*
X23741D01*
X23241Y42553D02*
Y43553D01*
X25281Y45593D02*
X26281D01*
X25781Y45093D02*
Y46093D01*
X22741Y45593D02*
X23741D01*
X23241Y45093D02*
Y46093D01*
X25281Y48133D02*
X26281D01*
X25781Y47633D02*
Y48633D01*
X22741Y48133D02*
X23741D01*
X23241Y47633D02*
Y48633D01*
X25281Y50673D02*
X26281D01*
X25781Y50173D02*
Y51173D01*
X22741Y50673D02*
X23741D01*
X23241Y50173D02*
Y51173D01*
X25281Y53213D02*
X26281D01*
X25781Y52713D02*
Y53713D01*
X22741Y53213D02*
X23741D01*
X23241Y52713D02*
Y53713D01*
X47379Y-10795D02*
X48379D01*
X47879Y-11295D02*
Y-10295D01*
X49919Y-10795D02*
X50919D01*
X50419Y-11295D02*
Y-10295D01*
X52459Y-10795D02*
X53459D01*
X52959Y-11295D02*
Y-10295D01*
X57539Y-10795D02*
X58539D01*
X58039Y-11295D02*
Y-10295D01*
X60079Y-10795D02*
X61079D01*
X60579Y-11295D02*
Y-10295D01*
X111895Y-2159D02*
X112895D01*
X112395Y-2659D02*
Y-1659D01*
X109355Y-2159D02*
X110355D01*
X109855Y-2659D02*
Y-1659D01*
X103375Y-7239D02*
X106175D01*
X104775Y-8639D02*
Y-5839D01*
X113535Y-7239D02*
X116335D01*
X114935Y-8639D02*
Y-5839D01*
X98837Y1905D02*
X99537D01*
X99187Y1555D02*
Y2255D01*
X98837Y4445D02*
X99537D01*
X99187Y4095D02*
Y4795D01*
X98837Y6985D02*
X99537D01*
X99187Y6635D02*
Y7335D01*
X66960Y2286D02*
X67660D01*
X67310Y1936D02*
Y2636D01*
X66960Y4826D02*
X67660D01*
X67310Y4476D02*
Y5176D01*
X66960Y7366D02*
X67660D01*
X67310Y7016D02*
Y7716D01*
X64097Y45085D02*
X65697D01*
X64897Y44285D02*
Y45885D01*
X61557Y47625D02*
X63157D01*
X62357Y46825D02*
Y48425D01*
X66637Y47625D02*
X68237D01*
X67437Y46825D02*
Y48425D01*
X61557Y42545D02*
X63157D01*
X62357Y41745D02*
Y43345D01*
X66637Y42545D02*
X68237D01*
X67437Y41745D02*
Y43345D01*
X64478Y29083D02*
X66078D01*
X65278Y28283D02*
Y29883D01*
X61938Y31623D02*
X63538D01*
X62738Y30823D02*
Y32423D01*
X67018Y31623D02*
X68618D01*
X67818Y30823D02*
Y32423D01*
X61938Y26543D02*
X63538D01*
X62738Y25743D02*
Y27343D01*
X67018Y26543D02*
X68618D01*
X67818Y25743D02*
Y27343D01*
X47379Y-2540D02*
X48379D01*
X47879Y-3040D02*
Y-2040D01*
X49919Y-2540D02*
X50919D01*
X50419Y-3040D02*
Y-2040D01*
X52459Y-2540D02*
X53459D01*
X52959Y-3040D02*
Y-2040D01*
X57539Y-2540D02*
X58539D01*
X58039Y-3040D02*
Y-2040D01*
X60079Y-2540D02*
X61079D01*
X60579Y-3040D02*
Y-2040D01*
X85225Y-2540D02*
X86225D01*
X85725Y-3040D02*
Y-2040D01*
X82685Y-2540D02*
X83685D01*
X83185Y-3040D02*
Y-2040D01*
X76705Y-7620D02*
X79505D01*
X78105Y-9020D02*
Y-6220D01*
X86865Y-7620D02*
X89665D01*
X88265Y-9020D02*
Y-6220D01*
X78127Y46656D02*
X79527D01*
X78827Y45956D02*
Y47356D01*
X73127Y46656D02*
X74527D01*
X73827Y45956D02*
Y47356D01*
X75627Y36656D02*
X77027D01*
X76327Y35956D02*
Y37356D01*
X74327Y41656D02*
X78327D01*
X76327Y39656D02*
Y43656D01*
X90446Y46783D02*
X91846D01*
X91146Y46083D02*
Y47483D01*
X85446Y46783D02*
X86846D01*
X86146Y46083D02*
Y47483D01*
X87946Y36783D02*
X89346D01*
X88646Y36083D02*
Y37483D01*
X86646Y41783D02*
X90646D01*
X88646Y39783D02*
Y43783D01*
X109496Y46783D02*
X110896D01*
X110196Y46083D02*
Y47483D01*
X104496Y46783D02*
X105896D01*
X105196Y46083D02*
Y47483D01*
X106996Y36783D02*
X108396D01*
X107696Y36083D02*
Y37483D01*
X105696Y41783D02*
X109696D01*
X107696Y39783D02*
Y43783D01*
X120799Y46783D02*
X122199D01*
X121499Y46083D02*
Y47483D01*
X115799Y46783D02*
X117199D01*
X116499Y46083D02*
Y47483D01*
X118299Y36783D02*
X119699D01*
X118999Y36083D02*
Y37483D01*
X116999Y41783D02*
X120999D01*
X118999Y39783D02*
Y43783D01*
X12065Y56401D02*
X13335D01*
X12700Y55766D02*
Y57036D01*
X9017Y2019D02*
X10287D01*
X9652Y1384D02*
Y2654D01*
X50981Y26924D02*
X51381D01*
X51181Y26724D02*
Y27124D01*
X36223Y-9017D02*
X40223D01*
X38223Y-11017D02*
Y-7017D01*
X121698Y66675D02*
X125698D01*
X123698Y64675D02*
Y68675D01*
X36223Y66675D02*
X40223D01*
X38223Y64675D02*
Y68675D01*
X122079Y-8509D02*
X126079D01*
X124079Y-10509D02*
Y-6509D01*
X50981Y45593D02*
X51381D01*
X51181Y45393D02*
Y45793D01*
X52378Y25400D02*
X52778D01*
X52578Y25200D02*
Y25600D01*
X79175Y27686D02*
X79575D01*
X79375Y27486D02*
Y27886D01*
X68253Y19050D02*
X68653D01*
X68453Y18850D02*
Y19250D01*
X61522Y19050D02*
X61922D01*
X61722Y18850D02*
Y19250D01*
X48187Y19177D02*
X48587D01*
X48387Y18977D02*
Y19377D01*
X46155Y40894D02*
X46555D01*
X46355Y40694D02*
Y41094D01*
X54791Y43434D02*
X55191D01*
X54991Y43234D02*
Y43634D01*
X9022Y49989D02*
X9422D01*
X9222Y49789D02*
Y50189D01*
X44758Y33274D02*
X45158D01*
X44958Y33074D02*
Y33474D01*
X47425Y47625D02*
X47825D01*
X47625Y47425D02*
Y47825D01*
X92129Y9271D02*
X92529D01*
X92329Y9071D02*
Y9471D01*
X75746Y-635D02*
X76146D01*
X75946Y-835D02*
Y-435D01*
X112576Y27051D02*
X112976D01*
X112776Y26851D02*
Y27251D01*
X128197Y26797D02*
X128597D01*
X128397Y26597D02*
Y26997D01*
X110671Y30607D02*
X111071D01*
X110871Y30407D02*
Y30807D01*
X80433Y28702D02*
X80833D01*
X80633Y28502D02*
Y28902D01*
X86541Y32639D02*
X86941D01*
X86741Y32439D02*
Y32839D01*
X123968Y33618D02*
X124368D01*
X124169Y33417D02*
Y33818D01*
X111926Y33540D02*
X112326D01*
X112126Y33340D02*
Y33740D01*
X92256Y35179D02*
X92656D01*
X92456Y34979D02*
Y35379D01*
X122609Y31369D02*
X123009D01*
X122809Y31169D02*
Y31569D01*
X46917Y18288D02*
X47317D01*
X47117Y18088D02*
Y18488D01*
X55299Y18288D02*
X55699D01*
X55499Y18088D02*
Y18488D01*
X47425Y43815D02*
X47825D01*
X47625Y43615D02*
Y44015D01*
X77651Y18415D02*
X78051D01*
X77851Y18215D02*
Y18615D01*
X91494Y18161D02*
X91894D01*
X91694Y17961D02*
Y18361D01*
X110163Y18415D02*
X110563D01*
X110363Y18215D02*
Y18615D01*
X120577Y18796D02*
X120977D01*
X120777Y18596D02*
Y18996D01*
X79175Y34290D02*
X79575D01*
X79375Y34090D02*
Y34490D01*
X79175Y29718D02*
X79575D01*
X79375Y29518D02*
Y29918D01*
X40313Y35560D02*
X40713D01*
X40513Y35360D02*
Y35760D01*
X111052Y28194D02*
X111452D01*
X111252Y27994D02*
Y28394D01*
X98006Y25562D02*
X98406D01*
X98206Y25362D02*
Y25762D01*
X42426Y1651D02*
X43426D01*
X42926Y1151D02*
Y2151D01*
X9960Y27813D02*
X10360D01*
X10160Y27613D02*
Y28013D01*
X9198Y30353D02*
X9598D01*
X9398Y30153D02*
Y30553D01*
%TF.MD5,52845805afa3c628649d3cca6ccc1ec5*%
M02*
