G04 Layer_Physical_Order=4*
G04 Layer_Color=16711680*
%FSLAX43Y43*%
%MOMM*%
%TF.FileFunction,Copper,L4,Bot,Signal*%
%TF.Part,Single*%
G01*
G75*
%TA.AperFunction,SMDPad,CuDef*%
%ADD21C,1.000*%
%TA.AperFunction,Conductor*%
%ADD25C,0.500*%
%ADD26C,1.000*%
%ADD27C,0.300*%
%ADD28C,1.500*%
%TA.AperFunction,ViaPad*%
%ADD29C,0.900*%
%TA.AperFunction,ComponentPad*%
%ADD30C,1.500*%
%ADD31C,3.300*%
%ADD32C,1.200*%
%ADD33C,2.200*%
%ADD34C,1.900*%
%ADD35C,4.000*%
%ADD36C,1.270*%
%TA.AperFunction,ViaPad*%
%ADD37C,8.000*%
%ADD38C,2.000*%
%TA.AperFunction,BGAPad,CuDef*%
%ADD39C,0.700*%
%TA.AperFunction,Conductor*%
%ADD40C,1.300*%
G36*
X140333Y-14349D02*
X32387D01*
Y-0D01*
X32348Y195D01*
X32237Y360D01*
X32072Y471D01*
X31877Y510D01*
X510D01*
Y57529D01*
X31877D01*
X32072Y57568D01*
X32237Y57679D01*
X32348Y57844D01*
X32387Y58039D01*
Y71320D01*
X140333D01*
Y-14349D01*
D02*
G37*
%LPC*%
G36*
X134366Y-6180D02*
X134092Y-6216D01*
X133836Y-6322D01*
X133617Y-6490D01*
X133449Y-6709D01*
X133343Y-6965D01*
X133307Y-7239D01*
X133343Y-7513D01*
X133449Y-7769D01*
X133617Y-7988D01*
X133836Y-8156D01*
X134092Y-8262D01*
X134366Y-8298D01*
X134640Y-8262D01*
X134896Y-8156D01*
X135115Y-7988D01*
X135283Y-7769D01*
X135389Y-7513D01*
X135425Y-7239D01*
X135389Y-6965D01*
X135283Y-6709D01*
X135115Y-6490D01*
X134896Y-6322D01*
X134640Y-6216D01*
X134366Y-6180D01*
D02*
G37*
G36*
X124206Y-4254D02*
Y-8382D01*
X128334D01*
X128306Y-7953D01*
X128197Y-7406D01*
X128018Y-6878D01*
X127771Y-6377D01*
X127461Y-5914D01*
X127093Y-5495D01*
X126674Y-5127D01*
X126211Y-4817D01*
X125710Y-4570D01*
X125182Y-4391D01*
X124635Y-4282D01*
X124206Y-4254D01*
D02*
G37*
G36*
X83185Y-1481D02*
X82911Y-1517D01*
X82655Y-1623D01*
X82436Y-1791D01*
X82268Y-2010D01*
X82162Y-2266D01*
X82126Y-2540D01*
X82162Y-2814D01*
X82268Y-3070D01*
X82436Y-3289D01*
X82655Y-3457D01*
X82911Y-3563D01*
X83185Y-3599D01*
X83459Y-3563D01*
X83715Y-3457D01*
X83934Y-3289D01*
X84102Y-3070D01*
X84208Y-2814D01*
X84244Y-2540D01*
X84208Y-2266D01*
X84102Y-2010D01*
X83934Y-1791D01*
X83715Y-1623D01*
X83459Y-1517D01*
X83185Y-1481D01*
D02*
G37*
G36*
X136906Y-6180D02*
X136632Y-6216D01*
X136376Y-6322D01*
X136157Y-6490D01*
X135989Y-6709D01*
X135883Y-6965D01*
X135847Y-7239D01*
X135883Y-7513D01*
X135989Y-7769D01*
X136157Y-7988D01*
X136376Y-8156D01*
X136632Y-8262D01*
X136906Y-8298D01*
X137180Y-8262D01*
X137436Y-8156D01*
X137655Y-7988D01*
X137823Y-7769D01*
X137929Y-7513D01*
X137965Y-7239D01*
X137929Y-6965D01*
X137823Y-6709D01*
X137655Y-6490D01*
X137436Y-6322D01*
X137180Y-6216D01*
X136906Y-6180D01*
D02*
G37*
G36*
X123952Y-4254D02*
X123523Y-4282D01*
X122976Y-4391D01*
X122448Y-4570D01*
X121947Y-4817D01*
X121484Y-5127D01*
X121065Y-5495D01*
X120697Y-5914D01*
X120387Y-6377D01*
X120140Y-6878D01*
X119961Y-7406D01*
X119852Y-7953D01*
X119824Y-8382D01*
X123952D01*
Y-4254D01*
D02*
G37*
G36*
X114935Y-5280D02*
X114553Y-5317D01*
X114185Y-5429D01*
X113846Y-5610D01*
X113549Y-5853D01*
X113306Y-6150D01*
X113125Y-6489D01*
X113013Y-6857D01*
X112976Y-7239D01*
X113013Y-7621D01*
X113125Y-7989D01*
X113306Y-8328D01*
X113549Y-8625D01*
X113846Y-8868D01*
X114185Y-9049D01*
X114553Y-9161D01*
X114935Y-9198D01*
X115317Y-9161D01*
X115685Y-9049D01*
X116024Y-8868D01*
X116321Y-8625D01*
X116564Y-8328D01*
X116745Y-7989D01*
X116857Y-7621D01*
X116894Y-7239D01*
X116857Y-6857D01*
X116745Y-6489D01*
X116564Y-6150D01*
X116321Y-5853D01*
X116024Y-5610D01*
X115685Y-5429D01*
X115317Y-5317D01*
X114935Y-5280D01*
D02*
G37*
G36*
X104775D02*
X104393Y-5317D01*
X104025Y-5429D01*
X103686Y-5610D01*
X103389Y-5853D01*
X103146Y-6150D01*
X102965Y-6489D01*
X102853Y-6857D01*
X102816Y-7239D01*
X102853Y-7621D01*
X102965Y-7989D01*
X103146Y-8328D01*
X103389Y-8625D01*
X103686Y-8868D01*
X104025Y-9049D01*
X104393Y-9161D01*
X104775Y-9198D01*
X105157Y-9161D01*
X105525Y-9049D01*
X105864Y-8868D01*
X106161Y-8625D01*
X106404Y-8328D01*
X106585Y-7989D01*
X106697Y-7621D01*
X106734Y-7239D01*
X106697Y-6857D01*
X106585Y-6489D01*
X106404Y-6150D01*
X106161Y-5853D01*
X105864Y-5610D01*
X105525Y-5429D01*
X105157Y-5317D01*
X104775Y-5280D01*
D02*
G37*
G36*
X38350Y-4762D02*
Y-8890D01*
X42478D01*
X42450Y-8461D01*
X42341Y-7914D01*
X42162Y-7386D01*
X41915Y-6885D01*
X41605Y-6422D01*
X41237Y-6003D01*
X40818Y-5635D01*
X40355Y-5325D01*
X39854Y-5078D01*
X39326Y-4899D01*
X38779Y-4790D01*
X38350Y-4762D01*
D02*
G37*
G36*
X38096D02*
X37667Y-4790D01*
X37120Y-4899D01*
X36592Y-5078D01*
X36091Y-5325D01*
X35628Y-5635D01*
X35209Y-6003D01*
X34841Y-6422D01*
X34531Y-6885D01*
X34284Y-7386D01*
X34105Y-7914D01*
X33996Y-8461D01*
X33968Y-8890D01*
X38096D01*
Y-4762D01*
D02*
G37*
G36*
X112268Y-2286D02*
X111399D01*
X111417Y-2421D01*
X111518Y-2665D01*
X111679Y-2875D01*
X111889Y-3036D01*
X112133Y-3137D01*
X112268Y-3155D01*
Y-2286D01*
D02*
G37*
G36*
X109855Y-1100D02*
X109581Y-1136D01*
X109325Y-1242D01*
X109106Y-1410D01*
X108938Y-1629D01*
X108832Y-1885D01*
X108796Y-2159D01*
X108832Y-2433D01*
X108938Y-2689D01*
X109106Y-2908D01*
X109325Y-3076D01*
X109581Y-3182D01*
X109855Y-3218D01*
X110129Y-3182D01*
X110385Y-3076D01*
X110604Y-2908D01*
X110772Y-2689D01*
X110878Y-2433D01*
X110914Y-2159D01*
X110878Y-1885D01*
X110772Y-1629D01*
X110604Y-1410D01*
X110385Y-1242D01*
X110129Y-1136D01*
X109855Y-1100D01*
D02*
G37*
G36*
X136779Y-2286D02*
X135910D01*
X135928Y-2421D01*
X136029Y-2665D01*
X136190Y-2875D01*
X136400Y-3036D01*
X136644Y-3137D01*
X136779Y-3155D01*
Y-2286D01*
D02*
G37*
G36*
X113391D02*
X112522D01*
Y-3155D01*
X112657Y-3137D01*
X112901Y-3036D01*
X113111Y-2875D01*
X113272Y-2665D01*
X113373Y-2421D01*
X113391Y-2286D01*
D02*
G37*
G36*
X137902D02*
X137033D01*
Y-3155D01*
X137168Y-3137D01*
X137412Y-3036D01*
X137622Y-2875D01*
X137783Y-2665D01*
X137884Y-2421D01*
X137902Y-2286D01*
D02*
G37*
G36*
X85598Y-2667D02*
X84729D01*
X84747Y-2802D01*
X84848Y-3046D01*
X85009Y-3256D01*
X85219Y-3417D01*
X85463Y-3518D01*
X85598Y-3536D01*
Y-2667D01*
D02*
G37*
G36*
X50292D02*
X49423D01*
X49441Y-2802D01*
X49542Y-3046D01*
X49703Y-3256D01*
X49913Y-3417D01*
X50157Y-3518D01*
X50292Y-3536D01*
Y-2667D01*
D02*
G37*
G36*
X51415D02*
X50546D01*
Y-3536D01*
X50681Y-3518D01*
X50925Y-3417D01*
X51135Y-3256D01*
X51296Y-3046D01*
X51397Y-2802D01*
X51415Y-2667D01*
D02*
G37*
G36*
X86721D02*
X85852D01*
Y-3536D01*
X85987Y-3518D01*
X86231Y-3417D01*
X86441Y-3256D01*
X86602Y-3046D01*
X86703Y-2802D01*
X86721Y-2667D01*
D02*
G37*
G36*
X59035D02*
X58166D01*
Y-3536D01*
X58301Y-3518D01*
X58545Y-3417D01*
X58755Y-3256D01*
X58916Y-3046D01*
X59017Y-2802D01*
X59035Y-2667D01*
D02*
G37*
G36*
X25654Y41509D02*
X25519Y41491D01*
X25275Y41390D01*
X25065Y41229D01*
X24904Y41019D01*
X24803Y40775D01*
X24785Y40640D01*
X25654D01*
Y41509D01*
D02*
G37*
G36*
X25908D02*
Y40640D01*
X26777D01*
X26759Y40775D01*
X26658Y41019D01*
X26497Y41229D01*
X26287Y41390D01*
X26043Y41491D01*
X25908Y41509D01*
D02*
G37*
G36*
X52959Y-9736D02*
X52685Y-9772D01*
X52429Y-9878D01*
X52210Y-10046D01*
X52042Y-10265D01*
X51936Y-10521D01*
X51900Y-10795D01*
X51936Y-11069D01*
X52042Y-11325D01*
X52210Y-11544D01*
X52429Y-11712D01*
X52685Y-11818D01*
X52959Y-11854D01*
X53233Y-11818D01*
X53489Y-11712D01*
X53708Y-11544D01*
X53876Y-11325D01*
X53982Y-11069D01*
X54018Y-10795D01*
X53982Y-10521D01*
X53876Y-10265D01*
X53708Y-10046D01*
X53489Y-9878D01*
X53233Y-9772D01*
X52959Y-9736D01*
D02*
G37*
G36*
X57912Y-10922D02*
X57043D01*
X57061Y-11057D01*
X57162Y-11301D01*
X57323Y-11511D01*
X57533Y-11672D01*
X57777Y-11773D01*
X57912Y-11791D01*
Y-10922D01*
D02*
G37*
G36*
X50292D02*
X49423D01*
X49441Y-11057D01*
X49542Y-11301D01*
X49703Y-11511D01*
X49913Y-11672D01*
X50157Y-11773D01*
X50292Y-11791D01*
Y-10922D01*
D02*
G37*
G36*
X68786Y42418D02*
X67564D01*
Y41196D01*
X67790Y41226D01*
X68120Y41362D01*
X68403Y41579D01*
X68620Y41862D01*
X68756Y42192D01*
X68786Y42418D01*
D02*
G37*
G36*
X54991Y44190D02*
X54795Y44165D01*
X54613Y44089D01*
X54456Y43969D01*
X54336Y43812D01*
X54260Y43630D01*
X54240Y43476D01*
X52219Y41455D01*
X46856D01*
X46733Y41549D01*
X46551Y41625D01*
X46355Y41650D01*
X46159Y41625D01*
X45977Y41549D01*
X45820Y41429D01*
X45700Y41272D01*
X45624Y41090D01*
X45599Y40894D01*
X45624Y40698D01*
X45700Y40516D01*
X45820Y40359D01*
X45977Y40239D01*
X46159Y40163D01*
X46355Y40138D01*
X46551Y40163D01*
X46733Y40239D01*
X46856Y40333D01*
X52451D01*
X52666Y40376D01*
X52848Y40497D01*
X55033Y42683D01*
X55187Y42703D01*
X55369Y42779D01*
X55526Y42899D01*
X55646Y43056D01*
X55722Y43238D01*
X55747Y43434D01*
X55722Y43630D01*
X55646Y43812D01*
X55526Y43969D01*
X55369Y44089D01*
X55187Y44165D01*
X54991Y44190D01*
D02*
G37*
G36*
X67310Y42418D02*
X66088D01*
X66118Y42192D01*
X66254Y41862D01*
X66471Y41579D01*
X66754Y41362D01*
X67084Y41226D01*
X67310Y41196D01*
Y42418D01*
D02*
G37*
G36*
X62230D02*
X61008D01*
X61038Y42192D01*
X61174Y41862D01*
X61391Y41579D01*
X61674Y41362D01*
X62004Y41226D01*
X62230Y41196D01*
Y42418D01*
D02*
G37*
G36*
X63706D02*
X62484D01*
Y41196D01*
X62710Y41226D01*
X63040Y41362D01*
X63323Y41579D01*
X63540Y41862D01*
X63676Y42192D01*
X63706Y42418D01*
D02*
G37*
G36*
X58166Y-9799D02*
Y-10668D01*
X59035D01*
X59017Y-10533D01*
X58916Y-10289D01*
X58755Y-10079D01*
X58545Y-9918D01*
X58301Y-9817D01*
X58166Y-9799D01*
D02*
G37*
G36*
X50292Y-9799D02*
X50157Y-9817D01*
X49913Y-9918D01*
X49703Y-10079D01*
X49542Y-10289D01*
X49441Y-10533D01*
X49423Y-10668D01*
X50292D01*
Y-9799D01*
D02*
G37*
G36*
X50546Y-9799D02*
Y-10668D01*
X51415D01*
X51397Y-10533D01*
X51296Y-10289D01*
X51135Y-10079D01*
X50925Y-9918D01*
X50681Y-9817D01*
X50546Y-9799D01*
D02*
G37*
G36*
X88265Y-5661D02*
X87883Y-5698D01*
X87515Y-5810D01*
X87176Y-5991D01*
X86879Y-6234D01*
X86636Y-6531D01*
X86455Y-6870D01*
X86343Y-7238D01*
X86306Y-7620D01*
X86343Y-8002D01*
X86455Y-8370D01*
X86636Y-8709D01*
X86879Y-9006D01*
X87176Y-9249D01*
X87515Y-9430D01*
X87883Y-9542D01*
X88265Y-9579D01*
X88647Y-9542D01*
X89015Y-9430D01*
X89354Y-9249D01*
X89651Y-9006D01*
X89894Y-8709D01*
X90075Y-8370D01*
X90187Y-8002D01*
X90224Y-7620D01*
X90187Y-7238D01*
X90075Y-6870D01*
X89894Y-6531D01*
X89651Y-6234D01*
X89354Y-5991D01*
X89015Y-5810D01*
X88647Y-5698D01*
X88265Y-5661D01*
D02*
G37*
G36*
X78105D02*
X77723Y-5698D01*
X77355Y-5810D01*
X77016Y-5991D01*
X76719Y-6234D01*
X76476Y-6531D01*
X76295Y-6870D01*
X76183Y-7238D01*
X76146Y-7620D01*
X76183Y-8002D01*
X76295Y-8370D01*
X76476Y-8709D01*
X76719Y-9006D01*
X77016Y-9249D01*
X77355Y-9430D01*
X77723Y-9542D01*
X78105Y-9579D01*
X78487Y-9542D01*
X78855Y-9430D01*
X79194Y-9249D01*
X79491Y-9006D01*
X79734Y-8709D01*
X79915Y-8370D01*
X80027Y-8002D01*
X80064Y-7620D01*
X80027Y-7238D01*
X79915Y-6870D01*
X79734Y-6531D01*
X79491Y-6234D01*
X79194Y-5991D01*
X78855Y-5810D01*
X78487Y-5698D01*
X78105Y-5661D01*
D02*
G37*
G36*
X59035Y-10922D02*
X58166D01*
Y-11791D01*
X58301Y-11773D01*
X58545Y-11672D01*
X58755Y-11511D01*
X58916Y-11301D01*
X59017Y-11057D01*
X59035Y-10922D01*
D02*
G37*
G36*
X51415D02*
X50546D01*
Y-11791D01*
X50681Y-11773D01*
X50925Y-11672D01*
X51135Y-11511D01*
X51296Y-11301D01*
X51397Y-11057D01*
X51415Y-10922D01*
D02*
G37*
G36*
X134366Y-8720D02*
X134092Y-8756D01*
X133836Y-8862D01*
X133617Y-9030D01*
X133449Y-9249D01*
X133343Y-9505D01*
X133307Y-9779D01*
X133343Y-10053D01*
X133449Y-10309D01*
X133617Y-10528D01*
X133836Y-10696D01*
X134092Y-10802D01*
X134366Y-10838D01*
X134640Y-10802D01*
X134896Y-10696D01*
X135115Y-10528D01*
X135283Y-10309D01*
X135389Y-10053D01*
X135425Y-9779D01*
X135389Y-9505D01*
X135283Y-9249D01*
X135115Y-9030D01*
X134896Y-8862D01*
X134640Y-8756D01*
X134366Y-8720D01*
D02*
G37*
G36*
X57912Y-9799D02*
X57777Y-9817D01*
X57533Y-9918D01*
X57323Y-10079D01*
X57162Y-10289D01*
X57061Y-10533D01*
X57043Y-10668D01*
X57912D01*
Y-9799D01*
D02*
G37*
G36*
X136906Y-8720D02*
X136632Y-8756D01*
X136376Y-8862D01*
X136157Y-9030D01*
X135989Y-9249D01*
X135883Y-9505D01*
X135847Y-9779D01*
X135883Y-10053D01*
X135989Y-10309D01*
X136157Y-10528D01*
X136376Y-10696D01*
X136632Y-10802D01*
X136906Y-10838D01*
X137180Y-10802D01*
X137436Y-10696D01*
X137655Y-10528D01*
X137823Y-10309D01*
X137929Y-10053D01*
X137965Y-9779D01*
X137929Y-9505D01*
X137823Y-9249D01*
X137655Y-9030D01*
X137436Y-8862D01*
X137180Y-8756D01*
X136906Y-8720D01*
D02*
G37*
G36*
X50292Y-1544D02*
X50157Y-1562D01*
X49913Y-1663D01*
X49703Y-1824D01*
X49542Y-2034D01*
X49441Y-2278D01*
X49423Y-2413D01*
X50292D01*
Y-1544D01*
D02*
G37*
G36*
X137852Y20574D02*
X136983D01*
Y19705D01*
X137118Y19723D01*
X137362Y19824D01*
X137572Y19985D01*
X137733Y20195D01*
X137834Y20439D01*
X137852Y20574D01*
D02*
G37*
G36*
X23241Y6012D02*
X22967Y5976D01*
X22711Y5870D01*
X22492Y5702D01*
X22324Y5483D01*
X22218Y5227D01*
X22182Y4953D01*
X22218Y4679D01*
X22324Y4423D01*
X22492Y4204D01*
X22711Y4036D01*
X22967Y3930D01*
X23241Y3894D01*
X23515Y3930D01*
X23771Y4036D01*
X23990Y4204D01*
X24158Y4423D01*
X24264Y4679D01*
X24300Y4953D01*
X24264Y5227D01*
X24158Y5483D01*
X23990Y5702D01*
X23771Y5870D01*
X23515Y5976D01*
X23241Y6012D01*
D02*
G37*
G36*
X25781D02*
X25507Y5976D01*
X25251Y5870D01*
X25032Y5702D01*
X24864Y5483D01*
X24758Y5227D01*
X24722Y4953D01*
X24758Y4679D01*
X24864Y4423D01*
X25032Y4204D01*
X25251Y4036D01*
X25507Y3930D01*
X25781Y3894D01*
X26055Y3930D01*
X26311Y4036D01*
X26530Y4204D01*
X26698Y4423D01*
X26804Y4679D01*
X26840Y4953D01*
X26804Y5227D01*
X26698Y5483D01*
X26530Y5702D01*
X26311Y5870D01*
X26055Y5976D01*
X25781Y6012D01*
D02*
G37*
G36*
X136729Y20574D02*
X135860D01*
X135878Y20439D01*
X135979Y20195D01*
X136140Y19985D01*
X136350Y19824D01*
X136594Y19723D01*
X136729Y19705D01*
Y20574D01*
D02*
G37*
G36*
X134189Y21697D02*
X134054Y21679D01*
X133810Y21578D01*
X133600Y21417D01*
X133439Y21207D01*
X133338Y20963D01*
X133320Y20828D01*
X134189D01*
Y21697D01*
D02*
G37*
G36*
X136983D02*
Y20828D01*
X137852D01*
X137834Y20963D01*
X137733Y21207D01*
X137572Y21417D01*
X137362Y21578D01*
X137118Y21679D01*
X136983Y21697D01*
D02*
G37*
G36*
X6350Y4318D02*
X5886D01*
X5908Y4209D01*
X6042Y4010D01*
X6241Y3876D01*
X6350Y3854D01*
Y4318D01*
D02*
G37*
G36*
X136729Y21697D02*
X136594Y21679D01*
X136350Y21578D01*
X136140Y21417D01*
X135979Y21207D01*
X135878Y20963D01*
X135860Y20828D01*
X136729D01*
Y21697D01*
D02*
G37*
G36*
X134443D02*
Y20828D01*
X135312D01*
X135294Y20963D01*
X135193Y21207D01*
X135032Y21417D01*
X134822Y21578D01*
X134578Y21679D01*
X134443Y21697D01*
D02*
G37*
G36*
X67183Y4699D02*
X66465D01*
X66478Y4603D01*
X66564Y4395D01*
X66701Y4217D01*
X66879Y4080D01*
X67087Y3994D01*
X67183Y3981D01*
Y4699D01*
D02*
G37*
G36*
X23241Y8552D02*
X22967Y8516D01*
X22711Y8410D01*
X22492Y8242D01*
X22324Y8023D01*
X22218Y7767D01*
X22182Y7493D01*
X22218Y7219D01*
X22324Y6963D01*
X22492Y6744D01*
X22711Y6576D01*
X22967Y6470D01*
X23241Y6434D01*
X23515Y6470D01*
X23771Y6576D01*
X23990Y6744D01*
X24158Y6963D01*
X24264Y7219D01*
X24300Y7493D01*
X24264Y7767D01*
X24158Y8023D01*
X23990Y8242D01*
X23771Y8410D01*
X23515Y8516D01*
X23241Y8552D01*
D02*
G37*
G36*
X99187Y7893D02*
X98952Y7862D01*
X98733Y7771D01*
X98545Y7627D01*
X98401Y7439D01*
X98310Y7220D01*
X98279Y6985D01*
X98310Y6750D01*
X98401Y6531D01*
X98545Y6343D01*
X98733Y6199D01*
X98952Y6108D01*
X99187Y6077D01*
X99422Y6108D01*
X99641Y6199D01*
X99829Y6343D01*
X99973Y6531D01*
X100064Y6750D01*
X100095Y6985D01*
X100064Y7220D01*
X99973Y7439D01*
X99829Y7627D01*
X99641Y7771D01*
X99422Y7862D01*
X99187Y7893D01*
D02*
G37*
G36*
X92329Y10330D02*
X57658D01*
X57384Y10294D01*
X57128Y10188D01*
X56909Y10020D01*
X56909Y10020D01*
X47130Y241D01*
X46962Y22D01*
X46856Y-234D01*
X46820Y-508D01*
X46820Y-508D01*
Y-2540D01*
X46856Y-2814D01*
X46962Y-3070D01*
X47130Y-3289D01*
X47349Y-3457D01*
X47605Y-3563D01*
X47879Y-3599D01*
X48153Y-3563D01*
X48409Y-3457D01*
X48628Y-3289D01*
X48796Y-3070D01*
X48902Y-2814D01*
X48938Y-2540D01*
Y-947D01*
X58097Y8212D01*
X66725D01*
X66769Y8085D01*
X66668Y8008D01*
X66524Y7820D01*
X66433Y7601D01*
X66402Y7366D01*
X66433Y7131D01*
X66524Y6912D01*
X66668Y6724D01*
X66856Y6580D01*
X67075Y6489D01*
X67310Y6458D01*
X67545Y6489D01*
X67764Y6580D01*
X67952Y6724D01*
X68096Y6912D01*
X68187Y7131D01*
X68218Y7366D01*
X68187Y7601D01*
X68096Y7820D01*
X67952Y8008D01*
X67851Y8085D01*
X67895Y8212D01*
X92329D01*
X92603Y8248D01*
X92859Y8354D01*
X93078Y8522D01*
X93246Y8741D01*
X93352Y8997D01*
X93388Y9271D01*
X93352Y9545D01*
X93246Y9801D01*
X93078Y10020D01*
X92859Y10188D01*
X92603Y10294D01*
X92329Y10330D01*
D02*
G37*
G36*
X25781Y8552D02*
X25507Y8516D01*
X25251Y8410D01*
X25032Y8242D01*
X24864Y8023D01*
X24758Y7767D01*
X24722Y7493D01*
X24758Y7219D01*
X24864Y6963D01*
X25032Y6744D01*
X25251Y6576D01*
X25507Y6470D01*
X25781Y6434D01*
X26055Y6470D01*
X26311Y6576D01*
X26530Y6744D01*
X26698Y6963D01*
X26804Y7219D01*
X26840Y7493D01*
X26804Y7767D01*
X26698Y8023D01*
X26530Y8242D01*
X26311Y8410D01*
X26055Y8516D01*
X25781Y8552D01*
D02*
G37*
G36*
X67437Y5671D02*
Y4953D01*
X68155D01*
X68142Y5049D01*
X68056Y5257D01*
X67919Y5435D01*
X67741Y5572D01*
X67533Y5658D01*
X67437Y5671D01*
D02*
G37*
G36*
X99060Y5290D02*
X98964Y5277D01*
X98756Y5191D01*
X98578Y5054D01*
X98441Y4876D01*
X98355Y4668D01*
X98342Y4572D01*
X99060D01*
Y5290D01*
D02*
G37*
G36*
X68155Y4699D02*
X67437D01*
Y3981D01*
X67533Y3994D01*
X67741Y4080D01*
X67919Y4217D01*
X68056Y4395D01*
X68142Y4603D01*
X68155Y4699D01*
D02*
G37*
G36*
X67183Y5671D02*
X67087Y5658D01*
X66879Y5572D01*
X66701Y5435D01*
X66564Y5257D01*
X66478Y5049D01*
X66465Y4953D01*
X67183D01*
Y5671D01*
D02*
G37*
G36*
X99314Y5290D02*
Y4572D01*
X100032D01*
X100019Y4668D01*
X99933Y4876D01*
X99796Y5054D01*
X99618Y5191D01*
X99410Y5277D01*
X99314Y5290D01*
D02*
G37*
G36*
X134316Y24300D02*
X134042Y24264D01*
X133786Y24158D01*
X133567Y23990D01*
X133399Y23771D01*
X133293Y23515D01*
X133257Y23241D01*
X133293Y22967D01*
X133399Y22711D01*
X133567Y22492D01*
X133786Y22324D01*
X134042Y22218D01*
X134316Y22182D01*
X134590Y22218D01*
X134846Y22324D01*
X135065Y22492D01*
X135233Y22711D01*
X135339Y22967D01*
X135375Y23241D01*
X135339Y23515D01*
X135233Y23771D01*
X135065Y23990D01*
X134846Y24158D01*
X134590Y24264D01*
X134316Y24300D01*
D02*
G37*
G36*
X134493Y-1163D02*
Y-2032D01*
X135362D01*
X135344Y-1897D01*
X135243Y-1653D01*
X135082Y-1443D01*
X134872Y-1282D01*
X134628Y-1181D01*
X134493Y-1163D01*
D02*
G37*
G36*
X136779D02*
X136644Y-1181D01*
X136400Y-1282D01*
X136190Y-1443D01*
X136029Y-1653D01*
X135928Y-1897D01*
X135910Y-2032D01*
X136779D01*
Y-1163D01*
D02*
G37*
G36*
X112522D02*
Y-2032D01*
X113391D01*
X113373Y-1897D01*
X113272Y-1653D01*
X113111Y-1443D01*
X112901Y-1282D01*
X112657Y-1181D01*
X112522Y-1163D01*
D02*
G37*
G36*
X137033D02*
Y-2032D01*
X137902D01*
X137884Y-1897D01*
X137783Y-1653D01*
X137622Y-1443D01*
X137412Y-1282D01*
X137168Y-1181D01*
X137033Y-1163D01*
D02*
G37*
G36*
X134239D02*
X134104Y-1181D01*
X133860Y-1282D01*
X133650Y-1443D01*
X133489Y-1653D01*
X133388Y-1897D01*
X133370Y-2032D01*
X134239D01*
Y-1163D01*
D02*
G37*
G36*
X50546Y-1544D02*
Y-2413D01*
X51415D01*
X51397Y-2278D01*
X51296Y-2034D01*
X51135Y-1824D01*
X50925Y-1663D01*
X50681Y-1562D01*
X50546Y-1544D01*
D02*
G37*
G36*
X85598Y-1544D02*
X85463Y-1562D01*
X85219Y-1663D01*
X85009Y-1824D01*
X84848Y-2034D01*
X84747Y-2278D01*
X84729Y-2413D01*
X85598D01*
Y-1544D01*
D02*
G37*
G36*
X112268Y-1163D02*
X112133Y-1181D01*
X111889Y-1282D01*
X111679Y-1443D01*
X111518Y-1653D01*
X111417Y-1897D01*
X111399Y-2032D01*
X112268D01*
Y-1163D01*
D02*
G37*
G36*
X85852Y-1544D02*
Y-2413D01*
X86721D01*
X86703Y-2278D01*
X86602Y-2034D01*
X86441Y-1824D01*
X86231Y-1663D01*
X85987Y-1562D01*
X85852Y-1544D01*
D02*
G37*
G36*
X75946Y172D02*
X75737Y144D01*
X75543Y64D01*
X75375Y-64D01*
X75257Y-183D01*
X57397D01*
X57188Y-211D01*
X56994Y-291D01*
X56826Y-419D01*
X55513Y-1733D01*
X53632D01*
X53489Y-1623D01*
X53233Y-1517D01*
X52959Y-1481D01*
X52685Y-1517D01*
X52429Y-1623D01*
X52210Y-1791D01*
X52042Y-2010D01*
X51936Y-2266D01*
X51900Y-2540D01*
X51936Y-2814D01*
X52042Y-3070D01*
X52210Y-3289D01*
X52429Y-3457D01*
X52685Y-3563D01*
X52959Y-3599D01*
X53233Y-3563D01*
X53489Y-3457D01*
X53632Y-3347D01*
X55847D01*
X56056Y-3319D01*
X56250Y-3239D01*
X56418Y-3111D01*
X56909Y-2619D01*
X57043Y-2665D01*
X57061Y-2802D01*
X57162Y-3046D01*
X57323Y-3256D01*
X57533Y-3417D01*
X57777Y-3518D01*
X57912Y-3536D01*
Y-2540D01*
X58039D01*
Y-2413D01*
X59035D01*
X59017Y-2278D01*
X58916Y-2034D01*
X58832Y-1924D01*
X58894Y-1797D01*
X59682D01*
X59738Y-1911D01*
X59662Y-2010D01*
X59556Y-2266D01*
X59520Y-2540D01*
X59556Y-2814D01*
X59662Y-3070D01*
X59830Y-3289D01*
X60049Y-3457D01*
X60305Y-3563D01*
X60579Y-3599D01*
X60853Y-3563D01*
X61109Y-3457D01*
X61328Y-3289D01*
X61496Y-3070D01*
X61602Y-2814D01*
X61638Y-2540D01*
X61602Y-2266D01*
X61496Y-2010D01*
X61420Y-1911D01*
X61476Y-1797D01*
X75591D01*
X75800Y-1769D01*
X75994Y-1689D01*
X76162Y-1561D01*
X76517Y-1206D01*
X76645Y-1038D01*
X76725Y-844D01*
X76753Y-635D01*
X76725Y-426D01*
X76645Y-232D01*
X76517Y-64D01*
X76349Y64D01*
X76155Y144D01*
X75946Y172D01*
D02*
G37*
G36*
X100032Y4318D02*
X99314D01*
Y3600D01*
X99410Y3613D01*
X99618Y3699D01*
X99796Y3836D01*
X99933Y4014D01*
X100019Y4222D01*
X100032Y4318D01*
D02*
G37*
G36*
X99060D02*
X98342D01*
X98355Y4222D01*
X98441Y4014D01*
X98578Y3836D01*
X98756Y3699D01*
X98964Y3613D01*
X99060Y3600D01*
Y4318D01*
D02*
G37*
G36*
X136856Y24300D02*
X136582Y24264D01*
X136326Y24158D01*
X136107Y23990D01*
X135939Y23771D01*
X135833Y23515D01*
X135797Y23241D01*
X135833Y22967D01*
X135939Y22711D01*
X136107Y22492D01*
X136326Y22324D01*
X136582Y22218D01*
X136856Y22182D01*
X137130Y22218D01*
X137386Y22324D01*
X137605Y22492D01*
X137773Y22711D01*
X137879Y22967D01*
X137915Y23241D01*
X137879Y23515D01*
X137773Y23771D01*
X137605Y23990D01*
X137386Y24158D01*
X137130Y24264D01*
X136856Y24300D01*
D02*
G37*
G36*
X11430Y4318D02*
X10966D01*
X10988Y4209D01*
X11122Y4010D01*
X11321Y3876D01*
X11430Y3854D01*
Y4318D01*
D02*
G37*
G36*
X67310Y3194D02*
X67075Y3163D01*
X66856Y3072D01*
X66668Y2928D01*
X66524Y2740D01*
X66433Y2521D01*
X66402Y2286D01*
X66433Y2051D01*
X66524Y1832D01*
X66668Y1644D01*
X66856Y1500D01*
X67075Y1409D01*
X67310Y1378D01*
X67545Y1409D01*
X67764Y1500D01*
X67952Y1644D01*
X68096Y1832D01*
X68187Y2051D01*
X68218Y2286D01*
X68187Y2521D01*
X68096Y2740D01*
X67952Y2928D01*
X67764Y3072D01*
X67545Y3163D01*
X67310Y3194D01*
D02*
G37*
G36*
X136906Y1440D02*
X136632Y1404D01*
X136376Y1298D01*
X136157Y1130D01*
X135989Y911D01*
X135883Y655D01*
X135847Y381D01*
X135883Y107D01*
X135989Y-149D01*
X136157Y-368D01*
X136376Y-536D01*
X136632Y-642D01*
X136906Y-678D01*
X137180Y-642D01*
X137436Y-536D01*
X137655Y-368D01*
X137823Y-149D01*
X137929Y107D01*
X137965Y381D01*
X137929Y655D01*
X137823Y911D01*
X137655Y1130D01*
X137436Y1298D01*
X137180Y1404D01*
X136906Y1440D01*
D02*
G37*
G36*
X134366D02*
X134092Y1404D01*
X133836Y1298D01*
X133617Y1130D01*
X133449Y911D01*
X133343Y655D01*
X133307Y381D01*
X133343Y107D01*
X133449Y-149D01*
X133617Y-368D01*
X133836Y-536D01*
X134092Y-642D01*
X134366Y-678D01*
X134640Y-642D01*
X134896Y-536D01*
X135115Y-368D01*
X135283Y-149D01*
X135389Y107D01*
X135425Y381D01*
X135389Y655D01*
X135283Y911D01*
X135115Y1130D01*
X134896Y1298D01*
X134640Y1404D01*
X134366Y1440D01*
D02*
G37*
G36*
X9712Y2967D02*
X9592D01*
X9410Y2931D01*
X9408Y2930D01*
X9407Y2930D01*
X9345Y2917D01*
X9234Y2872D01*
X9181Y2836D01*
X9180Y2836D01*
X9178Y2834D01*
X9024Y2731D01*
X8940Y2647D01*
X8837Y2493D01*
X8835Y2491D01*
X8835Y2490D01*
X8800Y2437D01*
X8754Y2327D01*
X8741Y2264D01*
X8741Y2263D01*
X8741Y2261D01*
X8705Y2079D01*
Y2049D01*
X8699Y2019D01*
X8705Y1990D01*
Y1960D01*
X8741Y1778D01*
X8741Y1775D01*
X8741Y1774D01*
X8754Y1712D01*
X8800Y1602D01*
X8835Y1549D01*
X8835Y1548D01*
X8837Y1546D01*
X8940Y1392D01*
X9024Y1307D01*
X9178Y1204D01*
X9180Y1203D01*
X9181Y1202D01*
X9234Y1167D01*
X9345Y1121D01*
X9407Y1109D01*
X9408Y1108D01*
X9410Y1108D01*
X9592Y1072D01*
X9712D01*
X9894Y1108D01*
X9896Y1108D01*
X9897Y1109D01*
X9959Y1121D01*
X10070Y1167D01*
X10123Y1202D01*
X10124Y1203D01*
X10126Y1204D01*
X10280Y1307D01*
X10364Y1392D01*
X10467Y1546D01*
X10469Y1548D01*
X10469Y1549D01*
X10504Y1602D01*
X10550Y1712D01*
X10563Y1774D01*
X10563Y1775D01*
X10563Y1778D01*
X10599Y1960D01*
Y1990D01*
X10605Y2019D01*
X10599Y2049D01*
Y2079D01*
X10563Y2261D01*
X10563Y2263D01*
X10563Y2264D01*
X10550Y2327D01*
X10504Y2437D01*
X10469Y2490D01*
X10469Y2491D01*
X10467Y2493D01*
X10364Y2647D01*
X10280Y2731D01*
X10126Y2834D01*
X10124Y2836D01*
X10123Y2836D01*
X10070Y2872D01*
X9959Y2917D01*
X9897Y2930D01*
X9896Y2930D01*
X9894Y2931D01*
X9712Y2967D01*
D02*
G37*
G36*
X99187Y2813D02*
X98952Y2782D01*
X98733Y2691D01*
X98545Y2547D01*
X98401Y2359D01*
X98310Y2140D01*
X98279Y1905D01*
X98310Y1670D01*
X98401Y1451D01*
X98545Y1263D01*
X98733Y1119D01*
X98952Y1028D01*
X99187Y997D01*
X99422Y1028D01*
X99641Y1119D01*
X99829Y1263D01*
X99973Y1451D01*
X100064Y1670D01*
X100095Y1905D01*
X100064Y2140D01*
X99973Y2359D01*
X99829Y2547D01*
X99641Y2691D01*
X99422Y2782D01*
X99187Y2813D01*
D02*
G37*
G36*
X137827Y43434D02*
X136958D01*
Y42565D01*
X137093Y42583D01*
X137337Y42684D01*
X137547Y42845D01*
X137708Y43055D01*
X137809Y43299D01*
X137827Y43434D01*
D02*
G37*
G36*
X62484Y48974D02*
Y47752D01*
X63706D01*
X63676Y47978D01*
X63540Y48308D01*
X63323Y48591D01*
X63040Y48808D01*
X62710Y48944D01*
X62484Y48974D01*
D02*
G37*
G36*
X67310D02*
X67084Y48944D01*
X66754Y48808D01*
X66471Y48591D01*
X66254Y48308D01*
X66118Y47978D01*
X66088Y47752D01*
X67310D01*
Y48974D01*
D02*
G37*
G36*
X47752Y48318D02*
Y47752D01*
X48318D01*
X48311Y47809D01*
X48240Y47980D01*
X48127Y48127D01*
X47980Y48240D01*
X47809Y48311D01*
X47752Y48318D01*
D02*
G37*
G36*
X62230Y48974D02*
X62004Y48944D01*
X61674Y48808D01*
X61391Y48591D01*
X61174Y48308D01*
X61038Y47978D01*
X61008Y47752D01*
X62230D01*
Y48974D01*
D02*
G37*
G36*
X67564D02*
Y47752D01*
X68786D01*
X68756Y47978D01*
X68620Y48308D01*
X68403Y48591D01*
X68120Y48808D01*
X67790Y48944D01*
X67564Y48974D01*
D02*
G37*
G36*
X42926Y2962D02*
X42587Y2918D01*
X42270Y2787D01*
X41999Y2578D01*
X41790Y2307D01*
X41659Y1990D01*
X41615Y1651D01*
X41659Y1312D01*
X41790Y995D01*
X41999Y724D01*
X42270Y515D01*
X42587Y384D01*
X42711Y368D01*
X43137Y-58D01*
Y-127D01*
X43173Y-401D01*
X43238Y-557D01*
Y-11176D01*
X43270Y-11424D01*
X43366Y-11655D01*
X43518Y-11854D01*
X45423Y-13759D01*
X45622Y-13911D01*
X45853Y-14007D01*
X46101Y-14039D01*
X59436D01*
X59684Y-14007D01*
X59915Y-13911D01*
X60114Y-13759D01*
X61257Y-12616D01*
X61409Y-12417D01*
X61505Y-12186D01*
X61537Y-11938D01*
Y-11225D01*
X61602Y-11069D01*
X61638Y-10795D01*
X61602Y-10521D01*
X61496Y-10265D01*
X61328Y-10046D01*
X61109Y-9878D01*
X60853Y-9772D01*
X60579Y-9736D01*
X60305Y-9772D01*
X60049Y-9878D01*
X59830Y-10046D01*
X59662Y-10265D01*
X59556Y-10521D01*
X59520Y-10795D01*
X59556Y-11069D01*
X59621Y-11225D01*
Y-11541D01*
X59039Y-12123D01*
X46498D01*
X45154Y-10779D01*
Y-557D01*
X45219Y-401D01*
X45255Y-127D01*
Y381D01*
X45255Y381D01*
X45219Y655D01*
X45113Y911D01*
X44945Y1130D01*
X44945Y1130D01*
X44209Y1866D01*
X44193Y1990D01*
X44062Y2307D01*
X43853Y2578D01*
X43582Y2787D01*
X43265Y2918D01*
X42926Y2962D01*
D02*
G37*
G36*
X6350Y54566D02*
X6241Y54544D01*
X6042Y54410D01*
X5908Y54211D01*
X5886Y54102D01*
X6350D01*
Y54566D01*
D02*
G37*
G36*
X130556Y-12020D02*
X130347Y-12048D01*
X130153Y-12128D01*
X129985Y-12256D01*
X129857Y-12424D01*
X129777Y-12618D01*
X129749Y-12827D01*
X129777Y-13036D01*
X129857Y-13230D01*
X129985Y-13398D01*
X130153Y-13526D01*
X130347Y-13606D01*
X130556Y-13634D01*
X130765Y-13606D01*
X130959Y-13526D01*
X131127Y-13398D01*
X131255Y-13230D01*
X131335Y-13036D01*
X131363Y-12827D01*
X131335Y-12618D01*
X131255Y-12424D01*
X131127Y-12256D01*
X130959Y-12128D01*
X130765Y-12048D01*
X130556Y-12020D01*
D02*
G37*
G36*
X33528Y-12274D02*
X33319Y-12302D01*
X33125Y-12382D01*
X32957Y-12510D01*
X32829Y-12678D01*
X32749Y-12872D01*
X32721Y-13081D01*
X32749Y-13290D01*
X32829Y-13484D01*
X32957Y-13652D01*
X33125Y-13780D01*
X33319Y-13860D01*
X33528Y-13888D01*
X33737Y-13860D01*
X33931Y-13780D01*
X34099Y-13652D01*
X34227Y-13484D01*
X34307Y-13290D01*
X34335Y-13081D01*
X34307Y-12872D01*
X34227Y-12678D01*
X34099Y-12510D01*
X33931Y-12382D01*
X33737Y-12302D01*
X33528Y-12274D01*
D02*
G37*
G36*
X47498Y48318D02*
X47441Y48311D01*
X47270Y48240D01*
X47123Y48127D01*
X47010Y47980D01*
X46939Y47809D01*
X46932Y47752D01*
X47498D01*
Y48318D01*
D02*
G37*
G36*
X105069Y47981D02*
X104882Y47956D01*
X104589Y47835D01*
X104337Y47642D01*
X104144Y47390D01*
X104023Y47097D01*
X103998Y46910D01*
X105069D01*
Y47981D01*
D02*
G37*
G36*
X116626Y47981D02*
Y46910D01*
X117697D01*
X117672Y47097D01*
X117551Y47390D01*
X117358Y47642D01*
X117106Y47835D01*
X116813Y47956D01*
X116626Y47981D01*
D02*
G37*
G36*
X116372Y47981D02*
X116185Y47956D01*
X115892Y47835D01*
X115640Y47642D01*
X115447Y47390D01*
X115326Y47097D01*
X115301Y46910D01*
X116372D01*
Y47981D01*
D02*
G37*
G36*
X86019D02*
X85832Y47956D01*
X85539Y47835D01*
X85287Y47642D01*
X85094Y47390D01*
X84973Y47097D01*
X84948Y46910D01*
X86019D01*
Y47981D01*
D02*
G37*
G36*
X86273Y47981D02*
Y46910D01*
X87344D01*
X87319Y47097D01*
X87198Y47390D01*
X87005Y47642D01*
X86753Y47835D01*
X86460Y47956D01*
X86273Y47981D01*
D02*
G37*
G36*
X48318Y47498D02*
X47752D01*
Y46932D01*
X47809Y46939D01*
X47980Y47010D01*
X48127Y47123D01*
X48240Y47270D01*
X48311Y47441D01*
X48318Y47498D01*
D02*
G37*
G36*
X134366Y-11260D02*
X134092Y-11296D01*
X133836Y-11402D01*
X133617Y-11570D01*
X133449Y-11789D01*
X133343Y-12045D01*
X133307Y-12319D01*
X133343Y-12593D01*
X133449Y-12849D01*
X133617Y-13068D01*
X133836Y-13236D01*
X134092Y-13342D01*
X134366Y-13378D01*
X134640Y-13342D01*
X134896Y-13236D01*
X135115Y-13068D01*
X135283Y-12849D01*
X135389Y-12593D01*
X135425Y-12319D01*
X135389Y-12045D01*
X135283Y-11789D01*
X135115Y-11570D01*
X134896Y-11402D01*
X134640Y-11296D01*
X134366Y-11260D01*
D02*
G37*
G36*
X105323Y47981D02*
Y46910D01*
X106394D01*
X106369Y47097D01*
X106248Y47390D01*
X106055Y47642D01*
X105803Y47835D01*
X105510Y47956D01*
X105323Y47981D01*
D02*
G37*
G36*
X47498Y47498D02*
X46932D01*
X46939Y47441D01*
X47010Y47270D01*
X47123Y47123D01*
X47270Y47010D01*
X47441Y46939D01*
X47498Y46932D01*
Y47498D01*
D02*
G37*
G36*
X11430Y54566D02*
X11321Y54544D01*
X11122Y54410D01*
X10988Y54211D01*
X10966Y54102D01*
X11430D01*
Y54566D01*
D02*
G37*
G36*
X38350Y70930D02*
Y66802D01*
X42478D01*
X42450Y67231D01*
X42341Y67778D01*
X42162Y68306D01*
X41915Y68807D01*
X41605Y69270D01*
X41237Y69689D01*
X40818Y70057D01*
X40355Y70367D01*
X39854Y70614D01*
X39326Y70793D01*
X38779Y70902D01*
X38350Y70930D01*
D02*
G37*
G36*
X123571D02*
X123142Y70902D01*
X122595Y70793D01*
X122067Y70614D01*
X121566Y70367D01*
X121103Y70057D01*
X120684Y69689D01*
X120316Y69270D01*
X120006Y68807D01*
X119759Y68306D01*
X119580Y67778D01*
X119471Y67231D01*
X119443Y66802D01*
X123571D01*
Y70930D01*
D02*
G37*
G36*
X137008Y67417D02*
Y66548D01*
X137877D01*
X137859Y66683D01*
X137758Y66927D01*
X137597Y67137D01*
X137387Y67298D01*
X137143Y67399D01*
X137008Y67417D01*
D02*
G37*
G36*
X38096Y70930D02*
X37667Y70902D01*
X37120Y70793D01*
X36592Y70614D01*
X36091Y70367D01*
X35628Y70057D01*
X35209Y69689D01*
X34841Y69270D01*
X34531Y68807D01*
X34284Y68306D01*
X34105Y67778D01*
X33996Y67231D01*
X33968Y66802D01*
X38096D01*
Y70930D01*
D02*
G37*
G36*
X123825D02*
Y66802D01*
X127953D01*
X127925Y67231D01*
X127816Y67778D01*
X127637Y68306D01*
X127390Y68807D01*
X127080Y69270D01*
X126712Y69689D01*
X126293Y70057D01*
X125830Y70367D01*
X125329Y70614D01*
X124801Y70793D01*
X124254Y70902D01*
X123825Y70930D01*
D02*
G37*
G36*
X130556Y70022D02*
X130347Y69994D01*
X130153Y69914D01*
X129985Y69786D01*
X129857Y69618D01*
X129777Y69424D01*
X129749Y69215D01*
X129777Y69006D01*
X129857Y68812D01*
X129985Y68644D01*
X130153Y68516D01*
X130347Y68436D01*
X130556Y68408D01*
X130765Y68436D01*
X130959Y68516D01*
X131127Y68644D01*
X131255Y68812D01*
X131335Y69006D01*
X131363Y69215D01*
X131335Y69424D01*
X131255Y69618D01*
X131127Y69786D01*
X130959Y69914D01*
X130765Y69994D01*
X130556Y70022D01*
D02*
G37*
G36*
X33401Y71165D02*
X33192Y71137D01*
X32998Y71057D01*
X32830Y70929D01*
X32702Y70761D01*
X32622Y70567D01*
X32594Y70358D01*
X32622Y70149D01*
X32702Y69955D01*
X32830Y69787D01*
X32998Y69659D01*
X33192Y69579D01*
X33401Y69551D01*
X33610Y69579D01*
X33804Y69659D01*
X33972Y69787D01*
X34100Y69955D01*
X34180Y70149D01*
X34208Y70358D01*
X34180Y70567D01*
X34100Y70761D01*
X33972Y70929D01*
X33804Y71057D01*
X33610Y71137D01*
X33401Y71165D01*
D02*
G37*
G36*
X134341Y70020D02*
X134067Y69984D01*
X133811Y69878D01*
X133592Y69710D01*
X133424Y69491D01*
X133318Y69235D01*
X133282Y68961D01*
X133318Y68687D01*
X133424Y68431D01*
X133592Y68212D01*
X133811Y68044D01*
X134067Y67938D01*
X134341Y67902D01*
X134615Y67938D01*
X134871Y68044D01*
X135090Y68212D01*
X135258Y68431D01*
X135364Y68687D01*
X135400Y68961D01*
X135364Y69235D01*
X135258Y69491D01*
X135090Y69710D01*
X134871Y69878D01*
X134615Y69984D01*
X134341Y70020D01*
D02*
G37*
G36*
X136881D02*
X136607Y69984D01*
X136351Y69878D01*
X136132Y69710D01*
X135964Y69491D01*
X135858Y69235D01*
X135822Y68961D01*
X135858Y68687D01*
X135964Y68431D01*
X136132Y68212D01*
X136351Y68044D01*
X136607Y67938D01*
X136881Y67902D01*
X137155Y67938D01*
X137411Y68044D01*
X137630Y68212D01*
X137798Y68431D01*
X137904Y68687D01*
X137940Y68961D01*
X137904Y69235D01*
X137798Y69491D01*
X137630Y69710D01*
X137411Y69878D01*
X137155Y69984D01*
X136881Y70020D01*
D02*
G37*
G36*
X134468Y67417D02*
Y66548D01*
X135337D01*
X135319Y66683D01*
X135218Y66927D01*
X135057Y67137D01*
X134847Y67298D01*
X134603Y67399D01*
X134468Y67417D01*
D02*
G37*
G36*
X38096Y66548D02*
X33968D01*
X33996Y66119D01*
X34105Y65572D01*
X34284Y65044D01*
X34531Y64543D01*
X34841Y64080D01*
X35209Y63661D01*
X35628Y63293D01*
X36091Y62983D01*
X36592Y62736D01*
X37120Y62557D01*
X37667Y62448D01*
X38096Y62420D01*
Y66548D01*
D02*
G37*
G36*
X42478D02*
X38350D01*
Y62420D01*
X38779Y62448D01*
X39326Y62557D01*
X39854Y62736D01*
X40355Y62983D01*
X40818Y63293D01*
X41237Y63661D01*
X41605Y64080D01*
X41915Y64543D01*
X42162Y65044D01*
X42341Y65572D01*
X42450Y66119D01*
X42478Y66548D01*
D02*
G37*
G36*
X7747Y54631D02*
X7577Y54608D01*
X7419Y54543D01*
X7283Y54439D01*
X7179Y54303D01*
X7159Y54253D01*
X7152Y54251D01*
X7020Y54250D01*
X6912Y54410D01*
X6713Y54544D01*
X6604Y54566D01*
Y53975D01*
X6477D01*
Y53848D01*
X5886D01*
X5908Y53739D01*
X6042Y53540D01*
X6202Y53432D01*
X6201Y53300D01*
X6199Y53293D01*
X6149Y53273D01*
X6013Y53169D01*
X5909Y53033D01*
X5844Y52875D01*
X5821Y52705D01*
X5844Y52535D01*
X5909Y52377D01*
X6013Y52241D01*
X6149Y52137D01*
X6199Y52117D01*
X6201Y52110D01*
X6202Y51978D01*
X6042Y51870D01*
X5908Y51671D01*
X5886Y51562D01*
X6477D01*
Y51308D01*
X5886D01*
X5908Y51199D01*
X6042Y51000D01*
X6202Y50892D01*
X6201Y50760D01*
X6199Y50753D01*
X6149Y50733D01*
X6013Y50629D01*
X5909Y50493D01*
X5844Y50335D01*
X5821Y50165D01*
X5844Y49995D01*
X5909Y49837D01*
X6013Y49701D01*
X6149Y49597D01*
X6199Y49577D01*
X6201Y49570D01*
X6202Y49438D01*
X6042Y49330D01*
X5908Y49131D01*
X5886Y49022D01*
X6477D01*
Y48768D01*
X5886D01*
X5908Y48659D01*
X6042Y48460D01*
X6202Y48352D01*
X6201Y48220D01*
X6199Y48213D01*
X6149Y48193D01*
X6013Y48089D01*
X5909Y47953D01*
X5844Y47795D01*
X5821Y47625D01*
X5844Y47455D01*
X5909Y47297D01*
X6013Y47161D01*
X6149Y47057D01*
Y46923D01*
X6013Y46819D01*
X5909Y46683D01*
X5844Y46525D01*
X5821Y46355D01*
X5844Y46185D01*
X5909Y46027D01*
X6013Y45891D01*
X6149Y45787D01*
X6199Y45767D01*
X6201Y45760D01*
X6202Y45628D01*
X6042Y45520D01*
X5908Y45321D01*
X5886Y45212D01*
X6477D01*
Y44958D01*
X5886D01*
X5908Y44849D01*
X6042Y44650D01*
X6241Y44516D01*
X6248Y44515D01*
Y44385D01*
X6241Y44384D01*
X6042Y44250D01*
X5908Y44051D01*
X5886Y43942D01*
X6477D01*
Y43688D01*
X5886D01*
X5908Y43579D01*
X6042Y43380D01*
X6202Y43272D01*
X6201Y43140D01*
X6199Y43133D01*
X6149Y43113D01*
X6013Y43009D01*
X5909Y42873D01*
X5844Y42715D01*
X5821Y42545D01*
X5844Y42375D01*
X5909Y42217D01*
X6013Y42081D01*
X6149Y41977D01*
Y41843D01*
X6013Y41739D01*
X5909Y41603D01*
X5844Y41445D01*
X5821Y41275D01*
X5844Y41105D01*
X5909Y40947D01*
X6013Y40811D01*
X6149Y40707D01*
X6199Y40687D01*
X6201Y40680D01*
X6202Y40548D01*
X6042Y40440D01*
X5908Y40241D01*
X5886Y40132D01*
X6477D01*
Y39878D01*
X5886D01*
X5908Y39769D01*
X6042Y39570D01*
X6241Y39436D01*
X6248Y39435D01*
Y39305D01*
X6241Y39304D01*
X6042Y39170D01*
X5908Y38971D01*
X5886Y38862D01*
X6477D01*
Y38608D01*
X5886D01*
X5908Y38499D01*
X6042Y38300D01*
X6202Y38192D01*
X6201Y38060D01*
X6199Y38053D01*
X6149Y38033D01*
X6013Y37929D01*
X5909Y37793D01*
X5844Y37635D01*
X5821Y37465D01*
X5844Y37295D01*
X5909Y37137D01*
X6013Y37001D01*
X6149Y36897D01*
Y36763D01*
X6013Y36659D01*
X5909Y36523D01*
X5844Y36365D01*
X5821Y36195D01*
X5844Y36025D01*
X5909Y35867D01*
X6013Y35731D01*
X6149Y35627D01*
X6199Y35607D01*
X6201Y35600D01*
X6202Y35468D01*
X6042Y35360D01*
X5908Y35161D01*
X5886Y35052D01*
X6477D01*
Y34798D01*
X5886D01*
X5908Y34689D01*
X6042Y34490D01*
X6241Y34356D01*
X6248Y34355D01*
Y34225D01*
X6241Y34224D01*
X6042Y34090D01*
X5908Y33891D01*
X5886Y33782D01*
X6477D01*
Y33528D01*
X5886D01*
X5908Y33419D01*
X6042Y33220D01*
X6202Y33112D01*
X6201Y32980D01*
X6199Y32973D01*
X6149Y32953D01*
X6013Y32849D01*
X5909Y32713D01*
X5844Y32555D01*
X5821Y32385D01*
X5844Y32215D01*
X5909Y32057D01*
X6013Y31921D01*
X6149Y31817D01*
Y31683D01*
X6013Y31579D01*
X5909Y31443D01*
X5844Y31285D01*
X5821Y31115D01*
X5844Y30945D01*
X5909Y30787D01*
X6013Y30651D01*
X6149Y30547D01*
X6199Y30527D01*
X6201Y30520D01*
X6202Y30388D01*
X6042Y30280D01*
X5908Y30081D01*
X5886Y29972D01*
X6477D01*
Y29718D01*
X5886D01*
X5908Y29609D01*
X6042Y29410D01*
X6241Y29276D01*
X6248Y29275D01*
Y29145D01*
X6241Y29144D01*
X6042Y29010D01*
X5908Y28811D01*
X5886Y28702D01*
X6477D01*
Y28448D01*
X5886D01*
X5908Y28339D01*
X6042Y28140D01*
X6202Y28032D01*
X6201Y27900D01*
X6199Y27893D01*
X6149Y27873D01*
X6013Y27769D01*
X5909Y27633D01*
X5844Y27475D01*
X5821Y27305D01*
X5844Y27135D01*
X5909Y26977D01*
X6013Y26841D01*
X6149Y26737D01*
Y26603D01*
X6013Y26499D01*
X5909Y26363D01*
X5844Y26205D01*
X5821Y26035D01*
X5844Y25865D01*
X5909Y25707D01*
X6013Y25571D01*
X6149Y25467D01*
X6199Y25447D01*
X6201Y25440D01*
X6202Y25308D01*
X6042Y25200D01*
X5908Y25001D01*
X5886Y24892D01*
X6477D01*
Y24638D01*
X5886D01*
X5908Y24529D01*
X6042Y24330D01*
X6241Y24196D01*
X6248Y24195D01*
Y24065D01*
X6241Y24064D01*
X6042Y23930D01*
X5908Y23731D01*
X5886Y23622D01*
X6477D01*
Y23368D01*
X5886D01*
X5908Y23259D01*
X6042Y23060D01*
X6202Y22952D01*
X6201Y22820D01*
X6199Y22813D01*
X6149Y22793D01*
X6013Y22689D01*
X5909Y22553D01*
X5844Y22395D01*
X5821Y22225D01*
X5844Y22055D01*
X5909Y21897D01*
X6013Y21761D01*
X6149Y21657D01*
Y21523D01*
X6013Y21419D01*
X5909Y21283D01*
X5844Y21125D01*
X5821Y20955D01*
X5844Y20785D01*
X5909Y20627D01*
X6013Y20491D01*
X6149Y20387D01*
X6199Y20367D01*
X6201Y20360D01*
X6202Y20228D01*
X6042Y20120D01*
X5908Y19921D01*
X5886Y19812D01*
X6477D01*
Y19558D01*
X5886D01*
X5908Y19449D01*
X6042Y19250D01*
X6241Y19116D01*
X6248Y19115D01*
Y18985D01*
X6241Y18984D01*
X6042Y18850D01*
X5908Y18651D01*
X5886Y18542D01*
X6477D01*
Y18288D01*
X5886D01*
X5908Y18179D01*
X6042Y17980D01*
X6202Y17872D01*
X6201Y17740D01*
X6199Y17733D01*
X6149Y17713D01*
X6013Y17609D01*
X5909Y17473D01*
X5844Y17315D01*
X5821Y17145D01*
X5844Y16975D01*
X5909Y16817D01*
X6013Y16681D01*
X6149Y16577D01*
Y16443D01*
X6013Y16339D01*
X5909Y16203D01*
X5844Y16045D01*
X5821Y15875D01*
X5844Y15705D01*
X5909Y15547D01*
X6013Y15411D01*
X6149Y15307D01*
X6199Y15287D01*
X6201Y15280D01*
X6202Y15148D01*
X6042Y15040D01*
X5908Y14841D01*
X5886Y14732D01*
X6477D01*
Y14478D01*
X5886D01*
X5908Y14369D01*
X6042Y14170D01*
X6241Y14036D01*
X6248Y14035D01*
Y13905D01*
X6241Y13904D01*
X6042Y13770D01*
X5908Y13571D01*
X5886Y13462D01*
X6477D01*
Y13208D01*
X5886D01*
X5908Y13099D01*
X6042Y12900D01*
X6202Y12792D01*
X6201Y12660D01*
X6199Y12653D01*
X6149Y12633D01*
X6013Y12529D01*
X5909Y12393D01*
X5844Y12235D01*
X5821Y12065D01*
X5844Y11895D01*
X5909Y11737D01*
X6013Y11601D01*
X6149Y11497D01*
Y11363D01*
X6013Y11259D01*
X5909Y11123D01*
X5844Y10965D01*
X5821Y10795D01*
X5844Y10625D01*
X5909Y10467D01*
X6013Y10331D01*
X6149Y10227D01*
X6199Y10207D01*
X6201Y10200D01*
X6202Y10068D01*
X6042Y9960D01*
X5908Y9761D01*
X5886Y9652D01*
X6477D01*
Y9398D01*
X5886D01*
X5908Y9289D01*
X6042Y9090D01*
X6241Y8956D01*
X6248Y8955D01*
Y8825D01*
X6241Y8824D01*
X6042Y8690D01*
X5908Y8491D01*
X5886Y8382D01*
X6477D01*
Y8128D01*
X5886D01*
X5908Y8019D01*
X6042Y7820D01*
X6202Y7712D01*
X6201Y7580D01*
X6199Y7573D01*
X6149Y7553D01*
X6013Y7449D01*
X5909Y7313D01*
X5844Y7155D01*
X5821Y6985D01*
X5844Y6815D01*
X5909Y6657D01*
X6013Y6521D01*
X6149Y6417D01*
Y6283D01*
X6013Y6179D01*
X5909Y6043D01*
X5844Y5885D01*
X5821Y5715D01*
X5844Y5545D01*
X5909Y5387D01*
X6013Y5251D01*
X6149Y5147D01*
X6199Y5127D01*
X6201Y5120D01*
X6202Y4988D01*
X6042Y4880D01*
X5908Y4681D01*
X5886Y4572D01*
X6477D01*
Y4445D01*
X6604D01*
Y3854D01*
X6713Y3876D01*
X6912Y4010D01*
X7020Y4170D01*
X7152Y4169D01*
X7159Y4167D01*
X7179Y4117D01*
X7283Y3981D01*
X7419Y3877D01*
X7577Y3812D01*
X7747Y3789D01*
X7917Y3812D01*
X8075Y3877D01*
X8211Y3981D01*
X8315Y4117D01*
X8380Y4275D01*
X8403Y4445D01*
X8380Y4615D01*
X8315Y4773D01*
X8211Y4909D01*
X8075Y5013D01*
X8025Y5033D01*
X8023Y5040D01*
X8022Y5172D01*
X8182Y5280D01*
X8316Y5479D01*
X8338Y5588D01*
X7747D01*
Y5842D01*
X8338D01*
X8316Y5951D01*
X8182Y6150D01*
X7983Y6284D01*
X7976Y6285D01*
Y6415D01*
X7983Y6416D01*
X8182Y6550D01*
X8316Y6749D01*
X8338Y6858D01*
X7747D01*
Y7112D01*
X8338D01*
X8316Y7221D01*
X8182Y7420D01*
X8022Y7528D01*
X8023Y7660D01*
X8025Y7667D01*
X8075Y7687D01*
X8211Y7791D01*
X8315Y7927D01*
X8380Y8085D01*
X8403Y8255D01*
X8380Y8425D01*
X8315Y8583D01*
X8211Y8719D01*
X8075Y8823D01*
Y8957D01*
X8211Y9061D01*
X8315Y9197D01*
X8380Y9355D01*
X8403Y9525D01*
X8380Y9695D01*
X8315Y9853D01*
X8211Y9989D01*
X8075Y10093D01*
X8025Y10113D01*
X8023Y10120D01*
X8022Y10252D01*
X8182Y10360D01*
X8316Y10559D01*
X8338Y10668D01*
X7747D01*
Y10922D01*
X8338D01*
X8316Y11031D01*
X8182Y11230D01*
X7983Y11364D01*
X7976Y11365D01*
Y11495D01*
X7983Y11496D01*
X8182Y11630D01*
X8316Y11829D01*
X8338Y11938D01*
X7747D01*
Y12192D01*
X8338D01*
X8316Y12301D01*
X8182Y12500D01*
X8022Y12608D01*
X8023Y12740D01*
X8025Y12747D01*
X8075Y12767D01*
X8211Y12871D01*
X8315Y13007D01*
X8380Y13165D01*
X8403Y13335D01*
X8380Y13505D01*
X8315Y13663D01*
X8211Y13799D01*
X8075Y13903D01*
Y14037D01*
X8211Y14141D01*
X8315Y14277D01*
X8380Y14435D01*
X8403Y14605D01*
X8380Y14775D01*
X8315Y14933D01*
X8211Y15069D01*
X8075Y15173D01*
X8025Y15193D01*
X8023Y15200D01*
X8022Y15332D01*
X8182Y15440D01*
X8316Y15639D01*
X8338Y15748D01*
X7747D01*
Y16002D01*
X8338D01*
X8316Y16111D01*
X8182Y16310D01*
X8022Y16418D01*
X8023Y16550D01*
X8025Y16557D01*
X8075Y16577D01*
X8211Y16681D01*
X8315Y16817D01*
X8380Y16975D01*
X8403Y17145D01*
X8380Y17315D01*
X8315Y17473D01*
X8211Y17609D01*
X8075Y17713D01*
Y17847D01*
X8211Y17951D01*
X8315Y18087D01*
X8380Y18245D01*
X8403Y18415D01*
X8380Y18585D01*
X8315Y18743D01*
X8211Y18879D01*
X8075Y18983D01*
X8025Y19003D01*
X8023Y19010D01*
X8022Y19142D01*
X8182Y19250D01*
X8316Y19449D01*
X8338Y19558D01*
X7747D01*
Y19812D01*
X8338D01*
X8316Y19921D01*
X8182Y20120D01*
X8022Y20228D01*
X8023Y20360D01*
X8025Y20367D01*
X8075Y20387D01*
X8211Y20491D01*
X8315Y20627D01*
X8380Y20785D01*
X8403Y20955D01*
X8380Y21125D01*
X8315Y21283D01*
X8211Y21419D01*
X8075Y21523D01*
Y21657D01*
X8211Y21761D01*
X8315Y21897D01*
X8380Y22055D01*
X8403Y22225D01*
X8380Y22395D01*
X8315Y22553D01*
X8211Y22689D01*
X8075Y22793D01*
X8025Y22813D01*
X8023Y22820D01*
X8022Y22952D01*
X8182Y23060D01*
X8316Y23259D01*
X8338Y23368D01*
X7747D01*
Y23622D01*
X8338D01*
X8316Y23731D01*
X8182Y23930D01*
X8022Y24038D01*
X8023Y24170D01*
X8025Y24177D01*
X8075Y24197D01*
X8211Y24301D01*
X8315Y24437D01*
X8380Y24595D01*
X8403Y24765D01*
X8380Y24935D01*
X8315Y25093D01*
X8211Y25229D01*
X8075Y25333D01*
Y25467D01*
X8211Y25571D01*
X8315Y25707D01*
X8380Y25865D01*
X8403Y26035D01*
X8380Y26205D01*
X8315Y26363D01*
X8211Y26499D01*
X8075Y26603D01*
X8025Y26623D01*
X8023Y26630D01*
X8022Y26762D01*
X8182Y26870D01*
X8316Y27069D01*
X8338Y27178D01*
X7747D01*
Y27432D01*
X8338D01*
X8316Y27541D01*
X8182Y27740D01*
X8022Y27848D01*
X8023Y27980D01*
X8025Y27987D01*
X8075Y28007D01*
X8211Y28111D01*
X8315Y28247D01*
X8380Y28405D01*
X8403Y28575D01*
X8380Y28745D01*
X8315Y28903D01*
X8211Y29039D01*
X8075Y29143D01*
Y29277D01*
X8211Y29381D01*
X8315Y29517D01*
X8380Y29675D01*
X8403Y29845D01*
X8380Y30015D01*
X8315Y30173D01*
X8211Y30309D01*
X8075Y30413D01*
X8025Y30433D01*
X8023Y30440D01*
X8022Y30572D01*
X8182Y30680D01*
X8316Y30879D01*
X8338Y30988D01*
X7747D01*
Y31242D01*
X8338D01*
X8316Y31351D01*
X8182Y31550D01*
X8022Y31658D01*
X8023Y31790D01*
X8025Y31797D01*
X8075Y31817D01*
X8211Y31921D01*
X8315Y32057D01*
X8380Y32215D01*
X8403Y32385D01*
X8380Y32555D01*
X8315Y32713D01*
X8211Y32849D01*
X8075Y32953D01*
Y33087D01*
X8211Y33191D01*
X8315Y33327D01*
X8380Y33485D01*
X8403Y33655D01*
X8380Y33825D01*
X8315Y33983D01*
X8211Y34119D01*
X8075Y34223D01*
X8025Y34243D01*
X8023Y34250D01*
X8022Y34382D01*
X8182Y34490D01*
X8316Y34689D01*
X8338Y34798D01*
X7747D01*
Y35052D01*
X8338D01*
X8316Y35161D01*
X8182Y35360D01*
X8022Y35468D01*
X8023Y35600D01*
X8025Y35607D01*
X8075Y35627D01*
X8211Y35731D01*
X8315Y35867D01*
X8380Y36025D01*
X8403Y36195D01*
X8380Y36365D01*
X8315Y36523D01*
X8211Y36659D01*
X8075Y36763D01*
Y36897D01*
X8211Y37001D01*
X8315Y37137D01*
X8380Y37295D01*
X8403Y37465D01*
X8380Y37635D01*
X8315Y37793D01*
X8211Y37929D01*
X8075Y38033D01*
X8025Y38053D01*
X8023Y38060D01*
X8022Y38192D01*
X8182Y38300D01*
X8316Y38499D01*
X8338Y38608D01*
X7747D01*
Y38862D01*
X8338D01*
X8316Y38971D01*
X8182Y39170D01*
X8022Y39278D01*
X8023Y39410D01*
X8025Y39417D01*
X8075Y39437D01*
X8211Y39541D01*
X8315Y39677D01*
X8380Y39835D01*
X8403Y40005D01*
X8380Y40175D01*
X8315Y40333D01*
X8211Y40469D01*
X8075Y40573D01*
Y40707D01*
X8211Y40811D01*
X8315Y40947D01*
X8380Y41105D01*
X8403Y41275D01*
X8380Y41445D01*
X8315Y41603D01*
X8211Y41739D01*
X8075Y41843D01*
Y41977D01*
X8211Y42081D01*
X8315Y42217D01*
X8380Y42375D01*
X8403Y42545D01*
X8380Y42715D01*
X8315Y42873D01*
X8211Y43009D01*
X8075Y43113D01*
Y43247D01*
X8211Y43351D01*
X8315Y43487D01*
X8380Y43645D01*
X8403Y43815D01*
X8380Y43985D01*
X8315Y44143D01*
X8211Y44279D01*
X8075Y44383D01*
Y44517D01*
X8211Y44621D01*
X8315Y44757D01*
X8380Y44915D01*
X8403Y45085D01*
X8380Y45255D01*
X8315Y45413D01*
X8211Y45549D01*
X8075Y45653D01*
Y45787D01*
X8211Y45891D01*
X8315Y46027D01*
X8380Y46185D01*
X8403Y46355D01*
X8380Y46525D01*
X8315Y46683D01*
X8211Y46819D01*
X8075Y46923D01*
Y47057D01*
X8211Y47161D01*
X8315Y47297D01*
X8380Y47455D01*
X8403Y47625D01*
X8380Y47795D01*
X8315Y47953D01*
X8211Y48089D01*
X8075Y48193D01*
Y48327D01*
X8130Y48370D01*
X8166Y48377D01*
X8348Y48498D01*
X8854Y49005D01*
X8948Y48966D01*
X9222Y48930D01*
X9496Y48966D01*
X9751Y49072D01*
X9971Y49240D01*
X10139Y49459D01*
X10245Y49715D01*
X10281Y49989D01*
Y50165D01*
X10245Y50439D01*
X10139Y50695D01*
X9971Y50914D01*
X9751Y51082D01*
X9496Y51188D01*
X9222Y51224D01*
X8948Y51188D01*
X8822Y51136D01*
X8384Y51573D01*
X8380Y51605D01*
X8315Y51763D01*
X8211Y51899D01*
X8075Y52003D01*
X8025Y52023D01*
X8023Y52030D01*
X8022Y52162D01*
X8182Y52270D01*
X8316Y52469D01*
X8338Y52578D01*
X7747D01*
Y52832D01*
X8338D01*
X8316Y52941D01*
X8182Y53140D01*
X8022Y53248D01*
X8023Y53380D01*
X8025Y53387D01*
X8075Y53407D01*
X8211Y53511D01*
X8315Y53647D01*
X8380Y53805D01*
X8403Y53975D01*
X8380Y54145D01*
X8315Y54303D01*
X8211Y54439D01*
X8075Y54543D01*
X7917Y54608D01*
X7747Y54631D01*
D02*
G37*
G36*
X12760Y57348D02*
X12640D01*
X12458Y57312D01*
X12456Y57312D01*
X12455Y57311D01*
X12393Y57299D01*
X12282Y57253D01*
X12229Y57218D01*
X12228Y57217D01*
X12226Y57216D01*
X12072Y57113D01*
X11988Y57028D01*
X11885Y56874D01*
X11883Y56872D01*
X11883Y56871D01*
X11848Y56818D01*
X11802Y56708D01*
X11789Y56646D01*
X11789Y56645D01*
X11789Y56642D01*
X11753Y56460D01*
Y56430D01*
X11747Y56401D01*
X11753Y56371D01*
Y56341D01*
X11789Y56159D01*
X11789Y56157D01*
X11789Y56156D01*
X11802Y56093D01*
X11848Y55983D01*
X11883Y55930D01*
X11883Y55929D01*
X11885Y55927D01*
X11988Y55773D01*
X12072Y55689D01*
X12226Y55586D01*
X12228Y55584D01*
X12229Y55584D01*
X12282Y55548D01*
X12393Y55503D01*
X12455Y55490D01*
X12456Y55490D01*
X12458Y55489D01*
X12640Y55453D01*
X12760D01*
X12941Y55489D01*
X12944Y55490D01*
X12945Y55490D01*
X13007Y55503D01*
X13118Y55548D01*
X13171Y55584D01*
X13172Y55584D01*
X13174Y55586D01*
X13328Y55689D01*
X13412Y55773D01*
X13515Y55927D01*
X13517Y55929D01*
X13517Y55930D01*
X13552Y55983D01*
X13598Y56093D01*
X13611Y56156D01*
X13611Y56157D01*
X13611Y56159D01*
X13647Y56341D01*
Y56371D01*
X13653Y56401D01*
X13647Y56430D01*
Y56460D01*
X13611Y56642D01*
X13611Y56645D01*
X13611Y56646D01*
X13598Y56708D01*
X13552Y56818D01*
X13517Y56871D01*
X13517Y56872D01*
X13515Y56874D01*
X13412Y57028D01*
X13328Y57113D01*
X13174Y57216D01*
X13172Y57217D01*
X13171Y57218D01*
X13118Y57253D01*
X13007Y57299D01*
X12945Y57311D01*
X12944Y57312D01*
X12941Y57312D01*
X12760Y57348D01*
D02*
G37*
G36*
X127953Y66548D02*
X119443D01*
X119471Y66119D01*
X119580Y65572D01*
X119759Y65044D01*
X120006Y64543D01*
X120316Y64080D01*
X120684Y63661D01*
X121103Y63293D01*
X121566Y62983D01*
X122067Y62736D01*
X122595Y62557D01*
X122566Y62435D01*
X39878D01*
X39702Y62400D01*
X39554Y62300D01*
X30925Y53672D01*
X26727D01*
X26698Y53743D01*
X26530Y53962D01*
X26311Y54130D01*
X26055Y54236D01*
X25781Y54272D01*
X25507Y54236D01*
X25436Y54207D01*
X24835Y54807D01*
X24687Y54907D01*
X24511Y54942D01*
X17526D01*
X17350Y54907D01*
X17202Y54807D01*
X14288Y51894D01*
X13294D01*
X13291Y51899D01*
X13155Y52003D01*
X13105Y52023D01*
X13103Y52030D01*
X13102Y52162D01*
X13262Y52270D01*
X13396Y52469D01*
X13418Y52578D01*
X12827D01*
Y52832D01*
X13418D01*
X13396Y52941D01*
X13262Y53140D01*
X13102Y53248D01*
X13103Y53380D01*
X13105Y53387D01*
X13155Y53407D01*
X13291Y53511D01*
X13395Y53647D01*
X13460Y53805D01*
X13483Y53975D01*
X13460Y54145D01*
X13395Y54303D01*
X13291Y54439D01*
X13155Y54543D01*
X12997Y54608D01*
X12827Y54631D01*
X12657Y54608D01*
X12499Y54543D01*
X12363Y54439D01*
X12259Y54303D01*
X12239Y54253D01*
X12232Y54251D01*
X12100Y54250D01*
X11992Y54410D01*
X11793Y54544D01*
X11684Y54566D01*
Y53975D01*
X11557D01*
Y53848D01*
X10966D01*
X10988Y53739D01*
X11122Y53540D01*
X11282Y53432D01*
X11281Y53300D01*
X11279Y53293D01*
X11229Y53273D01*
X11093Y53169D01*
X10989Y53033D01*
X10924Y52875D01*
X10901Y52705D01*
X10924Y52535D01*
X10989Y52377D01*
X11093Y52241D01*
X11229Y52137D01*
X11279Y52117D01*
X11281Y52110D01*
X11282Y51978D01*
X11122Y51870D01*
X10988Y51671D01*
X10966Y51562D01*
X11557D01*
Y51308D01*
X10966D01*
X10988Y51199D01*
X11122Y51000D01*
X11282Y50892D01*
X11281Y50760D01*
X11279Y50753D01*
X11229Y50733D01*
X11093Y50629D01*
X10989Y50493D01*
X10924Y50335D01*
X10901Y50165D01*
X10924Y49995D01*
X10989Y49837D01*
X11093Y49701D01*
X11229Y49597D01*
Y49463D01*
X11093Y49359D01*
X10989Y49223D01*
X10924Y49065D01*
X10901Y48895D01*
X10924Y48725D01*
X10989Y48567D01*
X11093Y48431D01*
X11229Y48327D01*
X11279Y48307D01*
X11281Y48300D01*
X11282Y48168D01*
X11122Y48060D01*
X10988Y47861D01*
X10966Y47752D01*
X11557D01*
Y47498D01*
X10966D01*
X10988Y47389D01*
X11122Y47190D01*
X11282Y47082D01*
X11281Y46950D01*
X11279Y46943D01*
X11229Y46923D01*
X11093Y46819D01*
X10989Y46683D01*
X10924Y46525D01*
X10901Y46355D01*
X10924Y46185D01*
X10989Y46027D01*
X11093Y45891D01*
X11229Y45787D01*
Y45653D01*
X11093Y45549D01*
X10989Y45413D01*
X10924Y45255D01*
X10901Y45085D01*
X10924Y44915D01*
X10989Y44757D01*
X11093Y44621D01*
X11229Y44517D01*
X11279Y44497D01*
X11281Y44490D01*
X11282Y44358D01*
X11122Y44250D01*
X10988Y44051D01*
X10966Y43942D01*
X11557D01*
Y43688D01*
X10966D01*
X10988Y43579D01*
X11122Y43380D01*
X11282Y43272D01*
X11281Y43140D01*
X11279Y43133D01*
X11229Y43113D01*
X11093Y43009D01*
X10989Y42873D01*
X10924Y42715D01*
X10901Y42545D01*
X10924Y42375D01*
X10989Y42217D01*
X11093Y42081D01*
X11229Y41977D01*
Y41843D01*
X11093Y41739D01*
X10989Y41603D01*
X10924Y41445D01*
X10901Y41275D01*
X10924Y41105D01*
X10989Y40947D01*
X11093Y40811D01*
X11229Y40707D01*
X11279Y40687D01*
X11281Y40680D01*
X11282Y40548D01*
X11122Y40440D01*
X10988Y40241D01*
X10966Y40132D01*
X11557D01*
Y39878D01*
X10966D01*
X10988Y39769D01*
X11122Y39570D01*
X11282Y39462D01*
X11281Y39330D01*
X11279Y39323D01*
X11229Y39303D01*
X11093Y39199D01*
X10989Y39063D01*
X10924Y38905D01*
X10901Y38735D01*
X10924Y38565D01*
X10989Y38407D01*
X11093Y38271D01*
X11229Y38167D01*
Y38033D01*
X11093Y37929D01*
X10989Y37793D01*
X10924Y37635D01*
X10901Y37465D01*
X10924Y37295D01*
X10989Y37137D01*
X11093Y37001D01*
X11229Y36897D01*
X11279Y36877D01*
X11281Y36870D01*
X11282Y36738D01*
X11122Y36630D01*
X10988Y36431D01*
X10966Y36322D01*
X11557D01*
Y36068D01*
X10966D01*
X10988Y35959D01*
X11122Y35760D01*
X11282Y35652D01*
X11281Y35520D01*
X11279Y35513D01*
X11229Y35493D01*
X11093Y35389D01*
X10989Y35253D01*
X10924Y35095D01*
X10901Y34925D01*
X10924Y34755D01*
X10989Y34597D01*
X11093Y34461D01*
X11229Y34357D01*
Y34223D01*
X11093Y34119D01*
X10989Y33983D01*
X10924Y33825D01*
X10901Y33655D01*
X10924Y33485D01*
X10989Y33327D01*
X11093Y33191D01*
X11229Y33087D01*
X11279Y33067D01*
X11281Y33060D01*
X11282Y32928D01*
X11122Y32820D01*
X10988Y32621D01*
X10966Y32512D01*
X11557D01*
Y32258D01*
X10966D01*
X10988Y32149D01*
X11122Y31950D01*
X11282Y31842D01*
X11281Y31710D01*
X11279Y31703D01*
X11229Y31683D01*
X11093Y31579D01*
X10989Y31443D01*
X10924Y31285D01*
X10901Y31115D01*
X10924Y30945D01*
X10989Y30787D01*
X11093Y30651D01*
X11229Y30547D01*
Y30413D01*
X11093Y30309D01*
X10989Y30173D01*
X10924Y30015D01*
X10901Y29845D01*
X10924Y29675D01*
X10989Y29517D01*
X11093Y29381D01*
X11229Y29277D01*
X11279Y29257D01*
X11281Y29250D01*
X11282Y29118D01*
X11122Y29010D01*
X10988Y28811D01*
X10966Y28702D01*
X11557D01*
Y28448D01*
X10966D01*
X10988Y28339D01*
X11122Y28140D01*
X11282Y28032D01*
X11281Y27900D01*
X11279Y27893D01*
X11229Y27873D01*
X11093Y27769D01*
X11027Y27683D01*
X10906Y27733D01*
X10916Y27813D01*
X10891Y28009D01*
X10815Y28191D01*
X10695Y28348D01*
X10538Y28468D01*
X10356Y28544D01*
X10160Y28569D01*
X9964Y28544D01*
X9846Y28495D01*
X9719Y28571D01*
Y29674D01*
X9776Y29698D01*
X9933Y29818D01*
X10053Y29975D01*
X10129Y30157D01*
X10154Y30353D01*
X10129Y30549D01*
X10053Y30731D01*
X9933Y30888D01*
X9776Y31008D01*
X9594Y31084D01*
X9398Y31109D01*
X9202Y31084D01*
X9020Y31008D01*
X8863Y30888D01*
X8743Y30731D01*
X8667Y30549D01*
X8642Y30353D01*
X8667Y30157D01*
X8743Y29975D01*
X8801Y29899D01*
Y27440D01*
X8836Y27265D01*
X8936Y27116D01*
X8939Y27112D01*
Y6985D01*
X8974Y6809D01*
X9074Y6661D01*
X10344Y5391D01*
X10492Y5291D01*
X10668Y5256D01*
X11090D01*
X11093Y5251D01*
X11229Y5147D01*
X11279Y5127D01*
X11281Y5120D01*
X11282Y4988D01*
X11122Y4880D01*
X10988Y4681D01*
X10966Y4572D01*
X11557D01*
Y4445D01*
X11684D01*
Y3854D01*
X11793Y3876D01*
X11992Y4010D01*
X12100Y4170D01*
X12232Y4169D01*
X12239Y4167D01*
X12259Y4117D01*
X12363Y3981D01*
X12499Y3877D01*
X12657Y3812D01*
X12827Y3789D01*
X12997Y3812D01*
X13155Y3877D01*
X13291Y3981D01*
X13395Y4117D01*
X13460Y4275D01*
X13483Y4445D01*
X13460Y4615D01*
X13395Y4773D01*
X13291Y4909D01*
X13155Y5013D01*
Y5147D01*
X13291Y5251D01*
X13395Y5387D01*
X13460Y5545D01*
X13483Y5715D01*
X13460Y5885D01*
X13395Y6043D01*
X13291Y6179D01*
X13155Y6283D01*
X13105Y6303D01*
X13103Y6310D01*
X13102Y6442D01*
X13262Y6550D01*
X13396Y6749D01*
X13418Y6858D01*
X12827D01*
Y7112D01*
X13418D01*
X13396Y7221D01*
X13262Y7420D01*
X13102Y7528D01*
X13103Y7660D01*
X13105Y7667D01*
X13155Y7687D01*
X13291Y7791D01*
X13294Y7796D01*
X19050D01*
X19226Y7831D01*
X19374Y7931D01*
X21018Y9574D01*
X22295D01*
X22324Y9503D01*
X22492Y9284D01*
X22711Y9116D01*
X22967Y9010D01*
X23241Y8974D01*
X23515Y9010D01*
X23771Y9116D01*
X23990Y9284D01*
X24158Y9503D01*
X24264Y9759D01*
X24300Y10033D01*
X24264Y10307D01*
X24236Y10374D01*
X24707Y10844D01*
X24920D01*
X24983Y10717D01*
X24864Y10563D01*
X24758Y10307D01*
X24722Y10033D01*
X24758Y9759D01*
X24864Y9503D01*
X25032Y9284D01*
X25251Y9116D01*
X25507Y9010D01*
X25781Y8974D01*
X26055Y9010D01*
X26311Y9116D01*
X26530Y9284D01*
X26698Y9503D01*
X26804Y9759D01*
X26840Y10033D01*
X26804Y10307D01*
X26698Y10563D01*
X26580Y10717D01*
X26642Y10844D01*
X116269D01*
X132354Y-5240D01*
X132502Y-5340D01*
X132678Y-5375D01*
X133561D01*
X133617Y-5448D01*
X133836Y-5616D01*
X134092Y-5722D01*
X134366Y-5758D01*
X134640Y-5722D01*
X134896Y-5616D01*
X135115Y-5448D01*
X135283Y-5229D01*
X135389Y-4973D01*
X135425Y-4699D01*
X135389Y-4425D01*
X135283Y-4169D01*
X135186Y-4042D01*
X135240Y-3923D01*
X135343Y-3912D01*
X135880Y-4449D01*
X135847Y-4699D01*
X135883Y-4973D01*
X135989Y-5229D01*
X136157Y-5448D01*
X136376Y-5616D01*
X136632Y-5722D01*
X136906Y-5758D01*
X137180Y-5722D01*
X137436Y-5616D01*
X137655Y-5448D01*
X137823Y-5229D01*
X137929Y-4973D01*
X137965Y-4699D01*
X137929Y-4425D01*
X137823Y-4169D01*
X137655Y-3950D01*
X137436Y-3782D01*
X137180Y-3676D01*
X136906Y-3640D01*
X136632Y-3676D01*
X136471Y-3743D01*
X135833Y-3105D01*
X135685Y-3005D01*
X135509Y-2970D01*
X135152D01*
X135107Y-2843D01*
X135243Y-2665D01*
X135344Y-2421D01*
X135362Y-2286D01*
X134366D01*
X133370D01*
X133388Y-2421D01*
X133489Y-2665D01*
X133625Y-2843D01*
X133580Y-2970D01*
X132270D01*
X116402Y12897D01*
X116254Y12997D01*
X116078Y13032D01*
X26727D01*
X26698Y13103D01*
X26580Y13257D01*
X26642Y13384D01*
X126556D01*
X129851Y10090D01*
X129999Y9990D01*
X130175Y9955D01*
X133442D01*
X133567Y9792D01*
X133786Y9624D01*
X134042Y9518D01*
X134316Y9482D01*
X134590Y9518D01*
X134846Y9624D01*
X135065Y9792D01*
X135233Y10011D01*
X135339Y10267D01*
X135375Y10541D01*
X135339Y10815D01*
X135233Y11071D01*
X135115Y11225D01*
X135177Y11352D01*
X135396D01*
X135862Y10886D01*
X135833Y10815D01*
X135797Y10541D01*
X135833Y10267D01*
X135939Y10011D01*
X136107Y9792D01*
X136326Y9624D01*
X136582Y9518D01*
X136856Y9482D01*
X137130Y9518D01*
X137386Y9624D01*
X137605Y9792D01*
X137773Y10011D01*
X137879Y10267D01*
X137915Y10541D01*
X137879Y10815D01*
X137773Y11071D01*
X137605Y11290D01*
X137386Y11458D01*
X137130Y11564D01*
X136856Y11600D01*
X136582Y11564D01*
X136511Y11535D01*
X135910Y12135D01*
X135762Y12235D01*
X135586Y12270D01*
X135177D01*
X135115Y12397D01*
X135233Y12551D01*
X135339Y12807D01*
X135375Y13081D01*
X135339Y13355D01*
X135233Y13611D01*
X135115Y13765D01*
X135177Y13892D01*
X135396D01*
X135862Y13426D01*
X135833Y13355D01*
X135797Y13081D01*
X135833Y12807D01*
X135939Y12551D01*
X136107Y12332D01*
X136326Y12164D01*
X136582Y12058D01*
X136856Y12022D01*
X137130Y12058D01*
X137386Y12164D01*
X137605Y12332D01*
X137773Y12551D01*
X137879Y12807D01*
X137915Y13081D01*
X137879Y13355D01*
X137773Y13611D01*
X137605Y13830D01*
X137386Y13998D01*
X137130Y14104D01*
X136856Y14140D01*
X136582Y14104D01*
X136511Y14075D01*
X135910Y14675D01*
X135762Y14775D01*
X135586Y14810D01*
X135177D01*
X135115Y14937D01*
X135233Y15091D01*
X135339Y15347D01*
X135375Y15621D01*
X135346Y15845D01*
X135466Y15904D01*
X135804Y15566D01*
X135833Y15347D01*
X135939Y15091D01*
X136107Y14872D01*
X136326Y14704D01*
X136582Y14598D01*
X136856Y14562D01*
X137130Y14598D01*
X137386Y14704D01*
X137605Y14872D01*
X137773Y15091D01*
X137879Y15347D01*
X137915Y15621D01*
X137879Y15895D01*
X137773Y16151D01*
X137605Y16370D01*
X137386Y16538D01*
X137130Y16644D01*
X136856Y16680D01*
X136582Y16644D01*
X136326Y16538D01*
X136215Y16453D01*
X135509Y17158D01*
X135361Y17258D01*
X135185Y17293D01*
X135105D01*
X135080Y17368D01*
X135071Y17420D01*
X135233Y17631D01*
X135339Y17887D01*
X135375Y18161D01*
X135339Y18435D01*
X135233Y18691D01*
X135158Y18788D01*
X135221Y18915D01*
X135503D01*
X135877Y18541D01*
X135833Y18435D01*
X135797Y18161D01*
X135833Y17887D01*
X135939Y17631D01*
X136107Y17412D01*
X136326Y17244D01*
X136582Y17138D01*
X136856Y17102D01*
X137130Y17138D01*
X137386Y17244D01*
X137605Y17412D01*
X137773Y17631D01*
X137879Y17887D01*
X137915Y18161D01*
X137879Y18435D01*
X137773Y18691D01*
X137605Y18910D01*
X137386Y19078D01*
X137130Y19184D01*
X136856Y19220D01*
X136582Y19184D01*
X136547Y19169D01*
X136017Y19698D01*
X135869Y19798D01*
X135693Y19833D01*
X135031D01*
X134991Y19953D01*
X135032Y19985D01*
X135193Y20195D01*
X135294Y20439D01*
X135312Y20574D01*
X134316D01*
X133320D01*
X133338Y20439D01*
X133439Y20195D01*
X133600Y19985D01*
X133641Y19953D01*
X133601Y19833D01*
X132975D01*
X128572Y24235D01*
X128424Y24335D01*
X128248Y24370D01*
X106765D01*
X106716Y24487D01*
X109964Y27735D01*
X110659D01*
X110717Y27659D01*
X110874Y27539D01*
X111056Y27463D01*
X111252Y27438D01*
X111448Y27463D01*
X111630Y27539D01*
X111787Y27659D01*
X111845Y27735D01*
X112167D01*
X112169Y27729D01*
X112195Y27608D01*
X112077Y27454D01*
X111997Y27260D01*
X111969Y27051D01*
Y26797D01*
X111997Y26588D01*
X112077Y26394D01*
X112205Y26226D01*
X112373Y26098D01*
X112567Y26018D01*
X112776Y25990D01*
X128397D01*
X128606Y26018D01*
X128800Y26098D01*
X128968Y26226D01*
X129096Y26394D01*
X129176Y26588D01*
X129204Y26797D01*
X129176Y27006D01*
X129096Y27200D01*
X128968Y27368D01*
X128800Y27496D01*
X128606Y27576D01*
X128397Y27604D01*
X113486D01*
X113482Y27608D01*
X113543Y27735D01*
X133604D01*
X133780Y27770D01*
X133928Y27870D01*
X138627Y32569D01*
X138727Y32717D01*
X138762Y32893D01*
Y34036D01*
X138727Y34212D01*
X138627Y34360D01*
X137992Y34995D01*
X137844Y35095D01*
X137689Y35126D01*
X137652Y35184D01*
X137630Y35257D01*
X137748Y35411D01*
X137854Y35667D01*
X137890Y35941D01*
X137854Y36215D01*
X137748Y36470D01*
X137580Y36690D01*
X137361Y36858D01*
X137105Y36964D01*
X136831Y37000D01*
X136557Y36964D01*
X136486Y36935D01*
X135885Y37535D01*
X135736Y37635D01*
X135561Y37670D01*
X135152D01*
X135090Y37797D01*
X135208Y37951D01*
X135314Y38207D01*
X135350Y38481D01*
X135314Y38755D01*
X135208Y39010D01*
X135156Y39078D01*
X135211Y39216D01*
X135260Y39224D01*
X135799Y38685D01*
X135772Y38481D01*
X135808Y38207D01*
X135914Y37951D01*
X136082Y37732D01*
X136301Y37564D01*
X136557Y37458D01*
X136831Y37422D01*
X137105Y37458D01*
X137361Y37564D01*
X137580Y37732D01*
X137748Y37951D01*
X137854Y38207D01*
X137890Y38481D01*
X137854Y38755D01*
X137748Y39010D01*
X137580Y39230D01*
X137361Y39398D01*
X137105Y39504D01*
X136831Y39540D01*
X136557Y39504D01*
X136360Y39422D01*
X135706Y40075D01*
X135558Y40175D01*
X135382Y40210D01*
X135152D01*
X135090Y40337D01*
X135208Y40491D01*
X135314Y40747D01*
X135350Y41021D01*
X135314Y41295D01*
X135281Y41374D01*
X135389Y41446D01*
X135777Y41058D01*
X135772Y41021D01*
X135808Y40747D01*
X135914Y40491D01*
X136082Y40272D01*
X136301Y40104D01*
X136557Y39998D01*
X136831Y39962D01*
X137105Y39998D01*
X137361Y40104D01*
X137580Y40272D01*
X137748Y40491D01*
X137854Y40747D01*
X137890Y41021D01*
X137854Y41295D01*
X137748Y41550D01*
X137580Y41770D01*
X137361Y41938D01*
X137105Y42044D01*
X136831Y42080D01*
X136557Y42044D01*
X136301Y41938D01*
X136241Y41892D01*
X135517Y42615D01*
X135369Y42715D01*
X135193Y42750D01*
X135077D01*
X135032Y42877D01*
X135168Y43055D01*
X135269Y43299D01*
X135287Y43434D01*
X134291D01*
X133295D01*
X133313Y43299D01*
X133414Y43055D01*
X133550Y42877D01*
X133505Y42750D01*
X132524D01*
X130716Y44557D01*
X130568Y44657D01*
X130392Y44692D01*
X73062D01*
X72886Y44657D01*
X72738Y44557D01*
X67882Y39702D01*
X26567D01*
X26522Y39829D01*
X26658Y40007D01*
X26759Y40251D01*
X26777Y40386D01*
X25781D01*
X24785D01*
X24803Y40251D01*
X24904Y40007D01*
X25040Y39829D01*
X24995Y39702D01*
X24511D01*
X24335Y39667D01*
X24187Y39567D01*
X23586Y38967D01*
X23515Y38996D01*
X23241Y39032D01*
X22967Y38996D01*
X22711Y38890D01*
X22492Y38722D01*
X22324Y38503D01*
X22295Y38432D01*
X16133D01*
X16084Y38549D01*
X18859Y41324D01*
X22380D01*
X22442Y41197D01*
X22324Y41043D01*
X22218Y40787D01*
X22182Y40513D01*
X22218Y40239D01*
X22324Y39983D01*
X22492Y39764D01*
X22711Y39596D01*
X22967Y39490D01*
X23241Y39454D01*
X23515Y39490D01*
X23771Y39596D01*
X23990Y39764D01*
X24158Y39983D01*
X24264Y40239D01*
X24300Y40513D01*
X24264Y40787D01*
X24158Y41043D01*
X24039Y41197D01*
X24102Y41324D01*
X24130D01*
X24306Y41359D01*
X24454Y41459D01*
X25184Y42188D01*
X25251Y42136D01*
X25507Y42030D01*
X25781Y41994D01*
X26055Y42030D01*
X26311Y42136D01*
X26530Y42304D01*
X26698Y42523D01*
X26727Y42594D01*
X33147D01*
X33323Y42629D01*
X33471Y42729D01*
X44894Y54151D01*
X132306D01*
X132482Y54186D01*
X132630Y54286D01*
X133742Y55397D01*
X133811Y55344D01*
X134067Y55238D01*
X134341Y55202D01*
X134615Y55238D01*
X134871Y55344D01*
X135090Y55512D01*
X135258Y55731D01*
X135364Y55987D01*
X135400Y56261D01*
X135364Y56535D01*
X135258Y56791D01*
X135153Y56928D01*
X135215Y57055D01*
X135438D01*
X135887Y56606D01*
X135858Y56535D01*
X135822Y56261D01*
X135858Y55987D01*
X135964Y55731D01*
X136132Y55512D01*
X136351Y55344D01*
X136607Y55238D01*
X136881Y55202D01*
X137155Y55238D01*
X137411Y55344D01*
X137630Y55512D01*
X137798Y55731D01*
X137904Y55987D01*
X137940Y56261D01*
X137904Y56535D01*
X137798Y56791D01*
X137630Y57010D01*
X137411Y57178D01*
X137155Y57284D01*
X136881Y57320D01*
X136607Y57284D01*
X136536Y57255D01*
X135952Y57838D01*
X135804Y57938D01*
X135628Y57973D01*
X135187D01*
X135126Y58100D01*
X135258Y58271D01*
X135364Y58527D01*
X135400Y58801D01*
X135364Y59075D01*
X135258Y59331D01*
X135363Y59392D01*
X135837Y58918D01*
X135822Y58801D01*
X135858Y58527D01*
X135964Y58271D01*
X136132Y58052D01*
X136351Y57884D01*
X136607Y57778D01*
X136881Y57742D01*
X137155Y57778D01*
X137411Y57884D01*
X137630Y58052D01*
X137798Y58271D01*
X137904Y58527D01*
X137940Y58801D01*
X137904Y59075D01*
X137798Y59331D01*
X137630Y59550D01*
X137411Y59718D01*
X137155Y59824D01*
X136881Y59860D01*
X136607Y59824D01*
X136351Y59718D01*
X136342Y59711D01*
X135657Y60395D01*
X135509Y60495D01*
X135333Y60530D01*
X135202D01*
X135139Y60657D01*
X135258Y60811D01*
X135364Y61067D01*
X135400Y61341D01*
X135364Y61615D01*
X135258Y61871D01*
X135363Y61932D01*
X135837Y61458D01*
X135822Y61341D01*
X135858Y61067D01*
X135964Y60811D01*
X136132Y60592D01*
X136351Y60424D01*
X136607Y60318D01*
X136881Y60282D01*
X137155Y60318D01*
X137411Y60424D01*
X137630Y60592D01*
X137798Y60811D01*
X137904Y61067D01*
X137940Y61341D01*
X137904Y61615D01*
X137798Y61871D01*
X137630Y62090D01*
X137411Y62258D01*
X137155Y62364D01*
X136881Y62400D01*
X136607Y62364D01*
X136351Y62258D01*
X136342Y62251D01*
X135657Y62935D01*
X135509Y63035D01*
X135333Y63070D01*
X135202D01*
X135139Y63197D01*
X135258Y63351D01*
X135364Y63607D01*
X135400Y63881D01*
X135364Y64155D01*
X135258Y64411D01*
X135363Y64472D01*
X135837Y63998D01*
X135822Y63881D01*
X135858Y63607D01*
X135964Y63351D01*
X136132Y63132D01*
X136351Y62964D01*
X136607Y62858D01*
X136881Y62822D01*
X137155Y62858D01*
X137411Y62964D01*
X137630Y63132D01*
X137798Y63351D01*
X137904Y63607D01*
X137940Y63881D01*
X137904Y64155D01*
X137798Y64411D01*
X137630Y64630D01*
X137411Y64798D01*
X137155Y64904D01*
X136881Y64940D01*
X136607Y64904D01*
X136351Y64798D01*
X136342Y64791D01*
X135657Y65475D01*
X135509Y65575D01*
X135333Y65610D01*
X135127D01*
X135082Y65737D01*
X135218Y65915D01*
X135319Y66159D01*
X135337Y66294D01*
X134341D01*
X133345D01*
X133363Y66159D01*
X133464Y65915D01*
X133600Y65737D01*
X133555Y65610D01*
X132969D01*
X132793Y65575D01*
X132645Y65475D01*
X129604Y62435D01*
X124830D01*
X124801Y62557D01*
X125329Y62736D01*
X125830Y62983D01*
X126293Y63293D01*
X126712Y63661D01*
X127080Y64080D01*
X127390Y64543D01*
X127637Y65044D01*
X127816Y65572D01*
X127925Y66119D01*
X127953Y66548D01*
D02*
G37*
G36*
X134214Y67417D02*
X134079Y67399D01*
X133835Y67298D01*
X133625Y67137D01*
X133464Y66927D01*
X133363Y66683D01*
X133345Y66548D01*
X134214D01*
Y67417D01*
D02*
G37*
G36*
X136754D02*
X136619Y67399D01*
X136375Y67298D01*
X136165Y67137D01*
X136004Y66927D01*
X135903Y66683D01*
X135885Y66548D01*
X136754D01*
Y67417D01*
D02*
G37*
G36*
X137877Y66294D02*
X137008D01*
Y65425D01*
X137143Y65443D01*
X137387Y65544D01*
X137597Y65705D01*
X137758Y65915D01*
X137859Y66159D01*
X137877Y66294D01*
D02*
G37*
G36*
X136754D02*
X135885D01*
X135903Y66159D01*
X136004Y65915D01*
X136165Y65705D01*
X136375Y65544D01*
X136619Y65443D01*
X136754Y65425D01*
Y66294D01*
D02*
G37*
G36*
X136906Y-11260D02*
X136632Y-11296D01*
X136376Y-11402D01*
X136157Y-11570D01*
X135989Y-11789D01*
X135883Y-12045D01*
X135847Y-12319D01*
X135883Y-12593D01*
X135989Y-12849D01*
X136157Y-13068D01*
X136376Y-13236D01*
X136632Y-13342D01*
X136906Y-13378D01*
X137180Y-13342D01*
X137436Y-13236D01*
X137655Y-13068D01*
X137823Y-12849D01*
X137929Y-12593D01*
X137965Y-12319D01*
X137929Y-12045D01*
X137823Y-11789D01*
X137655Y-11570D01*
X137436Y-11402D01*
X137180Y-11296D01*
X136906Y-11260D01*
D02*
G37*
G36*
X47498Y44508D02*
X47441Y44501D01*
X47270Y44430D01*
X47123Y44317D01*
X47010Y44170D01*
X46939Y43999D01*
X46932Y43942D01*
X47498D01*
Y44508D01*
D02*
G37*
G36*
X47752D02*
Y43942D01*
X48318D01*
X48311Y43999D01*
X48240Y44170D01*
X48127Y44317D01*
X47980Y44430D01*
X47809Y44501D01*
X47752Y44508D01*
D02*
G37*
G36*
X134418Y44557D02*
Y43688D01*
X135287D01*
X135269Y43823D01*
X135168Y44067D01*
X135007Y44277D01*
X134797Y44438D01*
X134553Y44539D01*
X134418Y44557D01*
D02*
G37*
G36*
X136958D02*
Y43688D01*
X137827D01*
X137809Y43823D01*
X137708Y44067D01*
X137547Y44277D01*
X137337Y44438D01*
X137093Y44539D01*
X136958Y44557D01*
D02*
G37*
G36*
X128334Y-8636D02*
X124206D01*
Y-12764D01*
X124635Y-12736D01*
X125182Y-12627D01*
X125710Y-12448D01*
X126211Y-12201D01*
X126674Y-11891D01*
X127093Y-11523D01*
X127461Y-11104D01*
X127771Y-10641D01*
X128018Y-10140D01*
X128197Y-9612D01*
X128306Y-9065D01*
X128334Y-8636D01*
D02*
G37*
G36*
X134291Y47160D02*
X134017Y47124D01*
X133761Y47018D01*
X133542Y46850D01*
X133374Y46630D01*
X133268Y46375D01*
X133232Y46101D01*
X133268Y45827D01*
X133374Y45571D01*
X133542Y45352D01*
X133761Y45184D01*
X134017Y45078D01*
X134291Y45042D01*
X134565Y45078D01*
X134821Y45184D01*
X135040Y45352D01*
X135208Y45571D01*
X135314Y45827D01*
X135350Y46101D01*
X135314Y46375D01*
X135208Y46630D01*
X135040Y46850D01*
X134821Y47018D01*
X134565Y47124D01*
X134291Y47160D01*
D02*
G37*
G36*
X136831D02*
X136557Y47124D01*
X136301Y47018D01*
X136082Y46850D01*
X135914Y46630D01*
X135808Y46375D01*
X135772Y46101D01*
X135808Y45827D01*
X135914Y45571D01*
X136082Y45352D01*
X136301Y45184D01*
X136557Y45078D01*
X136831Y45042D01*
X137105Y45078D01*
X137361Y45184D01*
X137580Y45352D01*
X137748Y45571D01*
X137854Y45827D01*
X137890Y46101D01*
X137854Y46375D01*
X137748Y46630D01*
X137580Y46850D01*
X137361Y47018D01*
X137105Y47124D01*
X136831Y47160D01*
D02*
G37*
G36*
X123952Y-8636D02*
X119824D01*
X119852Y-9065D01*
X119961Y-9612D01*
X120140Y-10140D01*
X120387Y-10641D01*
X120697Y-11104D01*
X121065Y-11523D01*
X121484Y-11891D01*
X121947Y-12201D01*
X122448Y-12448D01*
X122976Y-12627D01*
X123523Y-12736D01*
X123952Y-12764D01*
Y-8636D01*
D02*
G37*
G36*
X42478Y-9144D02*
X38350D01*
Y-13272D01*
X38779Y-13244D01*
X39326Y-13135D01*
X39854Y-12956D01*
X40355Y-12709D01*
X40818Y-12399D01*
X41237Y-12031D01*
X41605Y-11612D01*
X41915Y-11149D01*
X42162Y-10648D01*
X42341Y-10120D01*
X42450Y-9573D01*
X42478Y-9144D01*
D02*
G37*
G36*
X136704Y44557D02*
X136569Y44539D01*
X136325Y44438D01*
X136115Y44277D01*
X135954Y44067D01*
X135853Y43823D01*
X135835Y43688D01*
X136704D01*
Y44557D01*
D02*
G37*
G36*
X62484Y43894D02*
Y42672D01*
X63706D01*
X63676Y42898D01*
X63540Y43228D01*
X63323Y43511D01*
X63040Y43728D01*
X62710Y43864D01*
X62484Y43894D01*
D02*
G37*
G36*
X67310D02*
X67084Y43864D01*
X66754Y43728D01*
X66471Y43511D01*
X66254Y43228D01*
X66118Y42898D01*
X66088Y42672D01*
X67310D01*
Y43894D01*
D02*
G37*
G36*
X136704Y43434D02*
X135835D01*
X135853Y43299D01*
X135954Y43055D01*
X136115Y42845D01*
X136325Y42684D01*
X136569Y42583D01*
X136704Y42565D01*
Y43434D01*
D02*
G37*
G36*
X62230Y43894D02*
X62004Y43864D01*
X61674Y43728D01*
X61391Y43511D01*
X61174Y43228D01*
X61038Y42898D01*
X61008Y42672D01*
X62230D01*
Y43894D01*
D02*
G37*
G36*
X67564D02*
Y42672D01*
X68786D01*
X68756Y42898D01*
X68620Y43228D01*
X68403Y43511D01*
X68120Y43728D01*
X67790Y43864D01*
X67564Y43894D01*
D02*
G37*
G36*
X47879Y-9736D02*
X47605Y-9772D01*
X47349Y-9878D01*
X47130Y-10046D01*
X46962Y-10265D01*
X46856Y-10521D01*
X46820Y-10795D01*
X46856Y-11069D01*
X46962Y-11325D01*
X47130Y-11544D01*
X47349Y-11712D01*
X47605Y-11818D01*
X47879Y-11854D01*
X48153Y-11818D01*
X48409Y-11712D01*
X48628Y-11544D01*
X48796Y-11325D01*
X48902Y-11069D01*
X48938Y-10795D01*
X48902Y-10521D01*
X48796Y-10265D01*
X48628Y-10046D01*
X48409Y-9878D01*
X48153Y-9772D01*
X47879Y-9736D01*
D02*
G37*
G36*
X134164Y44557D02*
X134029Y44539D01*
X133785Y44438D01*
X133575Y44277D01*
X133414Y44067D01*
X133313Y43823D01*
X133295Y43688D01*
X134164D01*
Y44557D01*
D02*
G37*
G36*
X47498Y43688D02*
X46932D01*
X46939Y43631D01*
X47010Y43460D01*
X47123Y43313D01*
X47270Y43200D01*
X47441Y43129D01*
X47498Y43122D01*
Y43688D01*
D02*
G37*
G36*
X48318D02*
X47752D01*
Y43122D01*
X47809Y43129D01*
X47980Y43200D01*
X48127Y43313D01*
X48240Y43460D01*
X48311Y43631D01*
X48318Y43688D01*
D02*
G37*
G36*
X78827Y47917D02*
X78501Y47874D01*
X78197Y47748D01*
X77935Y47548D01*
X77735Y47286D01*
X77609Y46982D01*
X77566Y46656D01*
X77609Y46330D01*
X77735Y46026D01*
X77935Y45764D01*
X78197Y45564D01*
X78501Y45438D01*
X78827Y45395D01*
X79153Y45438D01*
X79457Y45564D01*
X79719Y45764D01*
X79919Y46026D01*
X80045Y46330D01*
X80088Y46656D01*
X80045Y46982D01*
X79919Y47286D01*
X79719Y47548D01*
X79457Y47748D01*
X79153Y47874D01*
X78827Y47917D01*
D02*
G37*
G36*
X64897Y46497D02*
X64532Y46449D01*
X64191Y46308D01*
X63899Y46083D01*
X63874Y46052D01*
X51774D01*
X51716Y46128D01*
X51559Y46248D01*
X51377Y46324D01*
X51181Y46349D01*
X50985Y46324D01*
X50803Y46248D01*
X50646Y46128D01*
X50526Y45971D01*
X50450Y45789D01*
X50425Y45593D01*
X50450Y45397D01*
X50526Y45215D01*
X50646Y45058D01*
X50803Y44938D01*
X50985Y44862D01*
X51181Y44837D01*
X51377Y44862D01*
X51559Y44938D01*
X51716Y45058D01*
X51774Y45134D01*
X63442D01*
X63485Y45085D01*
X63533Y44720D01*
X63674Y44379D01*
X63899Y44087D01*
X64191Y43862D01*
X64532Y43721D01*
X64897Y43673D01*
X65262Y43721D01*
X65603Y43862D01*
X65895Y44087D01*
X66120Y44379D01*
X66261Y44720D01*
X66309Y45085D01*
X66261Y45450D01*
X66120Y45791D01*
X65895Y46083D01*
X65603Y46308D01*
X65262Y46449D01*
X64897Y46497D01*
D02*
G37*
G36*
X62230Y47498D02*
X61008D01*
X61038Y47272D01*
X61174Y46942D01*
X61391Y46659D01*
X61674Y46442D01*
X62004Y46306D01*
X62230Y46276D01*
Y47498D01*
D02*
G37*
G36*
X117697Y46656D02*
X116626D01*
Y45585D01*
X116813Y45610D01*
X117106Y45731D01*
X117358Y45924D01*
X117551Y46176D01*
X117672Y46469D01*
X117697Y46656D01*
D02*
G37*
G36*
X38096Y-9144D02*
X33968D01*
X33996Y-9573D01*
X34105Y-10120D01*
X34284Y-10648D01*
X34531Y-11149D01*
X34841Y-11612D01*
X35209Y-12031D01*
X35628Y-12399D01*
X36091Y-12709D01*
X36592Y-12956D01*
X37120Y-13135D01*
X37667Y-13244D01*
X38096Y-13272D01*
Y-9144D01*
D02*
G37*
G36*
X63706Y47498D02*
X62484D01*
Y46276D01*
X62710Y46306D01*
X63040Y46442D01*
X63323Y46659D01*
X63540Y46942D01*
X63676Y47272D01*
X63706Y47498D01*
D02*
G37*
G36*
X73700Y47854D02*
X73513Y47829D01*
X73220Y47708D01*
X72968Y47515D01*
X72775Y47263D01*
X72654Y46970D01*
X72629Y46783D01*
X73700D01*
Y47854D01*
D02*
G37*
G36*
X73954Y47854D02*
Y46783D01*
X75025D01*
X75000Y46970D01*
X74879Y47263D01*
X74686Y47515D01*
X74434Y47708D01*
X74141Y47829D01*
X73954Y47854D01*
D02*
G37*
G36*
X67310Y47498D02*
X66088D01*
X66118Y47272D01*
X66254Y46942D01*
X66471Y46659D01*
X66754Y46442D01*
X67084Y46306D01*
X67310Y46276D01*
Y47498D01*
D02*
G37*
G36*
X68786D02*
X67564D01*
Y46276D01*
X67790Y46306D01*
X68120Y46442D01*
X68403Y46659D01*
X68620Y46942D01*
X68756Y47272D01*
X68786Y47498D01*
D02*
G37*
G36*
X106394Y46656D02*
X105323D01*
Y45585D01*
X105510Y45610D01*
X105803Y45731D01*
X106055Y45924D01*
X106248Y46176D01*
X106369Y46469D01*
X106394Y46656D01*
D02*
G37*
G36*
X91146Y48044D02*
X90820Y48001D01*
X90516Y47875D01*
X90254Y47675D01*
X90054Y47413D01*
X89928Y47109D01*
X89885Y46783D01*
X89928Y46457D01*
X90054Y46153D01*
X90254Y45891D01*
X90516Y45691D01*
X90820Y45565D01*
X91146Y45522D01*
X91472Y45565D01*
X91776Y45691D01*
X92038Y45891D01*
X92238Y46153D01*
X92364Y46457D01*
X92407Y46783D01*
X92364Y47109D01*
X92238Y47413D01*
X92038Y47675D01*
X91776Y47875D01*
X91472Y48001D01*
X91146Y48044D01*
D02*
G37*
G36*
X110196D02*
X109870Y48001D01*
X109566Y47875D01*
X109304Y47675D01*
X109104Y47413D01*
X108978Y47109D01*
X108935Y46783D01*
X108978Y46457D01*
X109104Y46153D01*
X109304Y45891D01*
X109566Y45691D01*
X109870Y45565D01*
X110196Y45522D01*
X110522Y45565D01*
X110826Y45691D01*
X111088Y45891D01*
X111288Y46153D01*
X111414Y46457D01*
X111457Y46783D01*
X111414Y47109D01*
X111288Y47413D01*
X111088Y47675D01*
X110826Y47875D01*
X110522Y48001D01*
X110196Y48044D01*
D02*
G37*
G36*
X73700Y46529D02*
X72629D01*
X72654Y46342D01*
X72775Y46049D01*
X72968Y45797D01*
X73220Y45604D01*
X73513Y45483D01*
X73700Y45458D01*
Y46529D01*
D02*
G37*
G36*
X75025D02*
X73954D01*
Y45458D01*
X74141Y45483D01*
X74434Y45604D01*
X74686Y45797D01*
X74879Y46049D01*
X75000Y46342D01*
X75025Y46529D01*
D02*
G37*
G36*
X121499Y48044D02*
X121173Y48001D01*
X120869Y47875D01*
X120607Y47675D01*
X120407Y47413D01*
X120281Y47109D01*
X120238Y46783D01*
X120281Y46457D01*
X120407Y46153D01*
X120607Y45891D01*
X120869Y45691D01*
X121173Y45565D01*
X121499Y45522D01*
X121825Y45565D01*
X122129Y45691D01*
X122391Y45891D01*
X122591Y46153D01*
X122717Y46457D01*
X122760Y46783D01*
X122717Y47109D01*
X122591Y47413D01*
X122391Y47675D01*
X122129Y47875D01*
X121825Y48001D01*
X121499Y48044D01*
D02*
G37*
G36*
X116372Y46656D02*
X115301D01*
X115326Y46469D01*
X115447Y46176D01*
X115640Y45924D01*
X115892Y45731D01*
X116185Y45610D01*
X116372Y45585D01*
Y46656D01*
D02*
G37*
G36*
X87344D02*
X86273D01*
Y45585D01*
X86460Y45610D01*
X86753Y45731D01*
X87005Y45924D01*
X87198Y46176D01*
X87319Y46469D01*
X87344Y46656D01*
D02*
G37*
G36*
X86019D02*
X84948D01*
X84973Y46469D01*
X85094Y46176D01*
X85287Y45924D01*
X85539Y45731D01*
X85832Y45610D01*
X86019Y45585D01*
Y46656D01*
D02*
G37*
G36*
X105069D02*
X103998D01*
X104023Y46469D01*
X104144Y46176D01*
X104337Y45924D01*
X104589Y45731D01*
X104882Y45610D01*
X105069Y45585D01*
Y46656D01*
D02*
G37*
%LPD*%
G36*
X22442Y10717D02*
X22324Y10563D01*
X22295Y10492D01*
X20828D01*
X20652Y10457D01*
X20504Y10357D01*
X18860Y8714D01*
X13294D01*
X13291Y8719D01*
X13155Y8823D01*
Y8957D01*
X13291Y9061D01*
X13294Y9066D01*
X14605D01*
X14781Y9101D01*
X14929Y9201D01*
X16573Y10844D01*
X22380D01*
X22442Y10717D01*
D02*
G37*
G36*
X10907Y27346D02*
X10901Y27305D01*
X10924Y27135D01*
X10989Y26977D01*
X11093Y26841D01*
X11229Y26737D01*
Y26603D01*
X11093Y26499D01*
X10989Y26363D01*
X10924Y26205D01*
X10901Y26035D01*
X10924Y25865D01*
X10989Y25707D01*
X11093Y25571D01*
X11229Y25467D01*
X11279Y25447D01*
X11281Y25440D01*
X11282Y25308D01*
X11122Y25200D01*
X10988Y25001D01*
X10966Y24892D01*
X11557D01*
Y24638D01*
X10966D01*
X10988Y24529D01*
X11122Y24330D01*
X11282Y24222D01*
X11281Y24090D01*
X11279Y24083D01*
X11229Y24063D01*
X11093Y23959D01*
X10989Y23823D01*
X10924Y23665D01*
X10901Y23495D01*
X10924Y23325D01*
X10989Y23167D01*
X11093Y23031D01*
X11229Y22927D01*
Y22793D01*
X11093Y22689D01*
X10989Y22553D01*
X10924Y22395D01*
X10901Y22225D01*
X10924Y22055D01*
X10989Y21897D01*
X11093Y21761D01*
X11229Y21657D01*
X11279Y21637D01*
X11281Y21630D01*
X11282Y21498D01*
X11122Y21390D01*
X10988Y21191D01*
X10966Y21082D01*
X11557D01*
Y20828D01*
X10966D01*
X10988Y20719D01*
X11122Y20520D01*
X11282Y20412D01*
X11281Y20280D01*
X11279Y20273D01*
X11229Y20253D01*
X11093Y20149D01*
X10989Y20013D01*
X10924Y19855D01*
X10901Y19685D01*
X10924Y19515D01*
X10989Y19357D01*
X11093Y19221D01*
X11229Y19117D01*
Y18983D01*
X11093Y18879D01*
X10989Y18743D01*
X10924Y18585D01*
X10901Y18415D01*
X10924Y18245D01*
X10989Y18087D01*
X11093Y17951D01*
X11229Y17847D01*
X11279Y17827D01*
X11281Y17820D01*
X11282Y17688D01*
X11122Y17580D01*
X10988Y17381D01*
X10966Y17272D01*
X11557D01*
Y17018D01*
X10966D01*
X10988Y16909D01*
X11122Y16710D01*
X11282Y16602D01*
X11281Y16470D01*
X11279Y16463D01*
X11229Y16443D01*
X11093Y16339D01*
X10989Y16203D01*
X10924Y16045D01*
X10901Y15875D01*
X10924Y15705D01*
X10989Y15547D01*
X11093Y15411D01*
X11229Y15307D01*
Y15173D01*
X11093Y15069D01*
X10989Y14933D01*
X10924Y14775D01*
X10901Y14605D01*
X10924Y14435D01*
X10989Y14277D01*
X11093Y14141D01*
X11229Y14037D01*
X11279Y14017D01*
X11281Y14010D01*
X11282Y13878D01*
X11122Y13770D01*
X10988Y13571D01*
X10966Y13462D01*
X11557D01*
Y13208D01*
X10966D01*
X10988Y13099D01*
X11122Y12900D01*
X11282Y12792D01*
X11281Y12660D01*
X11279Y12653D01*
X11229Y12633D01*
X11093Y12529D01*
X10989Y12393D01*
X10924Y12235D01*
X10901Y12065D01*
X10924Y11895D01*
X10989Y11737D01*
X11093Y11601D01*
X11229Y11497D01*
Y11363D01*
X11093Y11259D01*
X10989Y11123D01*
X10924Y10965D01*
X10901Y10795D01*
X10924Y10625D01*
X10989Y10467D01*
X11093Y10331D01*
X11229Y10227D01*
X11279Y10207D01*
X11281Y10200D01*
X11282Y10068D01*
X11122Y9960D01*
X10988Y9761D01*
X10966Y9652D01*
X11557D01*
Y9398D01*
X10966D01*
X10988Y9289D01*
X11122Y9090D01*
X11321Y8956D01*
X11328Y8955D01*
Y8825D01*
X11321Y8824D01*
X11122Y8690D01*
X10988Y8491D01*
X10966Y8382D01*
X11557D01*
Y8128D01*
X10966D01*
X10988Y8019D01*
X11122Y7820D01*
X11282Y7712D01*
X11281Y7580D01*
X11279Y7573D01*
X11229Y7553D01*
X11101Y7455D01*
X10619Y7937D01*
Y27220D01*
X10695Y27278D01*
X10785Y27396D01*
X10907Y27346D01*
D02*
G37*
G36*
X136301Y32484D02*
X136557Y32378D01*
X136831Y32342D01*
X136937Y32356D01*
X136997Y32236D01*
X133414Y28653D01*
X132602D01*
X132563Y28780D01*
X132567Y28783D01*
X136283Y32498D01*
X136301Y32484D01*
D02*
G37*
G36*
X73451Y25087D02*
X73402Y24970D01*
X53481D01*
X53449Y25006D01*
X53442Y25019D01*
X53425Y25090D01*
X56959Y28624D01*
X63953D01*
X64055Y28377D01*
X64280Y28085D01*
X64572Y27860D01*
X64913Y27719D01*
X65278Y27671D01*
X65643Y27719D01*
X65984Y27860D01*
X66276Y28085D01*
X66501Y28377D01*
X66603Y28624D01*
X69914D01*
X73451Y25087D01*
D02*
G37*
G36*
X80255Y28047D02*
X80437Y27971D01*
X80633Y27946D01*
X80829Y27971D01*
X81011Y28047D01*
X81134Y28141D01*
X107209D01*
X107258Y28024D01*
X106755Y27521D01*
X80206D01*
X80122Y27616D01*
X80131Y27686D01*
X80106Y27882D01*
X80030Y28064D01*
X80130Y28142D01*
X80255Y28047D01*
D02*
G37*
G36*
X133374Y37951D02*
X133492Y37797D01*
X133430Y37670D01*
X123080D01*
X123028Y37797D01*
X123216Y37985D01*
X133360D01*
X133374Y37951D01*
D02*
G37*
G36*
X133493Y39165D02*
X133374Y39010D01*
X133329Y38903D01*
X123026D01*
X122889Y38876D01*
X122826Y38993D01*
X123126Y39292D01*
X133430D01*
X133493Y39165D01*
D02*
G37*
G36*
X22324Y42523D02*
X22442Y42369D01*
X22380Y42242D01*
X18669D01*
X18493Y42207D01*
X18345Y42107D01*
X15431Y39194D01*
X13294D01*
X13291Y39199D01*
X13155Y39303D01*
Y39437D01*
X13291Y39541D01*
X13294Y39546D01*
X14605D01*
X14781Y39581D01*
X14929Y39681D01*
X17843Y42594D01*
X22295D01*
X22324Y42523D01*
D02*
G37*
G36*
X106333Y43647D02*
X106081Y43440D01*
X106062Y43417D01*
X106038Y43398D01*
X105789Y43094D01*
X105774Y43067D01*
X105755Y43044D01*
X105570Y42696D01*
X105561Y42667D01*
X105547Y42641D01*
X105432Y42264D01*
X105429Y42234D01*
X105421Y42205D01*
X105382Y41813D01*
X105385Y41783D01*
X105382Y41753D01*
X105421Y41361D01*
X105429Y41332D01*
X105432Y41302D01*
X105547Y40925D01*
X105561Y40899D01*
X105570Y40870D01*
X105755Y40522D01*
X105774Y40499D01*
X105789Y40472D01*
X106038Y40168D01*
X106062Y40149D01*
X106081Y40125D01*
X106333Y39919D01*
X106287Y39792D01*
X91403D01*
X91227Y39757D01*
X91079Y39657D01*
X90488Y39067D01*
X77592D01*
X77582Y39065D01*
X75205D01*
X75202Y39067D01*
X75027Y39102D01*
X68746D01*
X68697Y39219D01*
X73252Y43774D01*
X75137D01*
X75168Y43651D01*
X75066Y43597D01*
X75043Y43578D01*
X75016Y43563D01*
X74712Y43313D01*
X74693Y43290D01*
X74670Y43271D01*
X74420Y42967D01*
X74405Y42940D01*
X74386Y42917D01*
X74201Y42569D01*
X74192Y42540D01*
X74178Y42514D01*
X74063Y42137D01*
X74060Y42107D01*
X74052Y42078D01*
X74013Y41686D01*
X74016Y41656D01*
X74013Y41626D01*
X74052Y41234D01*
X74060Y41205D01*
X74063Y41175D01*
X74178Y40798D01*
X74192Y40772D01*
X74201Y40743D01*
X74386Y40395D01*
X74405Y40372D01*
X74420Y40345D01*
X74670Y40041D01*
X74693Y40022D01*
X74712Y39999D01*
X75016Y39749D01*
X75043Y39734D01*
X75066Y39715D01*
X75414Y39530D01*
X75443Y39521D01*
X75469Y39507D01*
X75846Y39392D01*
X75876Y39389D01*
X75905Y39381D01*
X76297Y39342D01*
X76312Y39343D01*
X76327Y39340D01*
X76342Y39343D01*
X76357Y39342D01*
X76749Y39381D01*
X76778Y39389D01*
X76808Y39392D01*
X77185Y39507D01*
X77211Y39521D01*
X77240Y39530D01*
X77588Y39715D01*
X77611Y39734D01*
X77638Y39749D01*
X77942Y39999D01*
X77961Y40022D01*
X77984Y40041D01*
X78234Y40345D01*
X78249Y40372D01*
X78268Y40395D01*
X78453Y40743D01*
X78462Y40772D01*
X78476Y40798D01*
X78591Y41175D01*
X78594Y41205D01*
X78602Y41234D01*
X78641Y41626D01*
X78638Y41656D01*
X78641Y41686D01*
X78602Y42078D01*
X78594Y42107D01*
X78591Y42137D01*
X78476Y42514D01*
X78462Y42540D01*
X78453Y42569D01*
X78268Y42917D01*
X78249Y42940D01*
X78234Y42967D01*
X77984Y43271D01*
X77961Y43290D01*
X77942Y43313D01*
X77638Y43563D01*
X77611Y43578D01*
X77588Y43597D01*
X77486Y43651D01*
X77517Y43774D01*
X87237D01*
X87283Y43647D01*
X87031Y43440D01*
X87012Y43417D01*
X86989Y43398D01*
X86739Y43094D01*
X86724Y43067D01*
X86705Y43044D01*
X86520Y42696D01*
X86511Y42667D01*
X86497Y42641D01*
X86382Y42264D01*
X86379Y42234D01*
X86371Y42205D01*
X86332Y41813D01*
X86335Y41783D01*
X86332Y41753D01*
X86371Y41361D01*
X86379Y41332D01*
X86382Y41302D01*
X86497Y40925D01*
X86511Y40899D01*
X86520Y40870D01*
X86705Y40522D01*
X86724Y40499D01*
X86739Y40472D01*
X86989Y40168D01*
X87012Y40149D01*
X87031Y40125D01*
X87335Y39876D01*
X87362Y39861D01*
X87385Y39842D01*
X87733Y39657D01*
X87762Y39648D01*
X87788Y39634D01*
X88165Y39519D01*
X88195Y39516D01*
X88224Y39508D01*
X88616Y39469D01*
X88631Y39470D01*
X88646Y39467D01*
X88661Y39470D01*
X88676Y39469D01*
X89068Y39508D01*
X89097Y39516D01*
X89127Y39519D01*
X89504Y39634D01*
X89530Y39648D01*
X89559Y39657D01*
X89907Y39842D01*
X89930Y39861D01*
X89957Y39876D01*
X90261Y40125D01*
X90280Y40149D01*
X90303Y40168D01*
X90553Y40472D01*
X90568Y40499D01*
X90587Y40522D01*
X90772Y40870D01*
X90781Y40899D01*
X90795Y40925D01*
X90910Y41302D01*
X90913Y41332D01*
X90921Y41361D01*
X90960Y41753D01*
X90957Y41783D01*
X90960Y41813D01*
X90921Y42205D01*
X90913Y42234D01*
X90910Y42264D01*
X90795Y42641D01*
X90781Y42667D01*
X90772Y42696D01*
X90587Y43044D01*
X90568Y43067D01*
X90553Y43094D01*
X90303Y43398D01*
X90280Y43417D01*
X90261Y43440D01*
X90009Y43647D01*
X90055Y43774D01*
X106287D01*
X106333Y43647D01*
D02*
G37*
G36*
X22442Y43737D02*
X22324Y43583D01*
X22295Y43512D01*
X17653D01*
X17477Y43477D01*
X17329Y43377D01*
X14415Y40464D01*
X13294D01*
X13291Y40469D01*
X13155Y40573D01*
X13105Y40593D01*
X13103Y40600D01*
X13102Y40732D01*
X13262Y40840D01*
X13396Y41039D01*
X13418Y41148D01*
X12827D01*
Y41402D01*
X13418D01*
X13396Y41511D01*
X13262Y41710D01*
X13102Y41818D01*
X13103Y41950D01*
X13105Y41957D01*
X13155Y41977D01*
X13291Y42081D01*
X13294Y42086D01*
X15240D01*
X15416Y42121D01*
X15564Y42221D01*
X17208Y43864D01*
X22380D01*
X22442Y43737D01*
D02*
G37*
G36*
X133311Y56484D02*
X133282Y56261D01*
X133285Y56238D01*
X132116Y55069D01*
X44704D01*
X44528Y55034D01*
X44380Y54934D01*
X32957Y43512D01*
X26727D01*
X26698Y43583D01*
X26580Y43737D01*
X26642Y43864D01*
X32639D01*
X32815Y43899D01*
X32963Y43999D01*
X44894Y55929D01*
X132387D01*
X132563Y55964D01*
X132711Y56064D01*
X133191Y56543D01*
X133311Y56484D01*
D02*
G37*
G36*
X16682Y45779D02*
X15177Y44274D01*
X13294D01*
X13291Y44279D01*
X13155Y44383D01*
X13105Y44403D01*
X13103Y44410D01*
X13102Y44542D01*
X13262Y44650D01*
X13396Y44849D01*
X13418Y44958D01*
X12827D01*
Y45212D01*
X13418D01*
X13396Y45321D01*
X13262Y45520D01*
X13102Y45628D01*
X13103Y45760D01*
X13105Y45767D01*
X13155Y45787D01*
X13291Y45891D01*
X13294Y45896D01*
X16633D01*
X16682Y45779D01*
D02*
G37*
G36*
X117636Y43647D02*
X117384Y43440D01*
X117365Y43417D01*
X117341Y43398D01*
X117092Y43094D01*
X117077Y43067D01*
X117058Y43044D01*
X116873Y42696D01*
X116864Y42667D01*
X116850Y42641D01*
X116735Y42264D01*
X116732Y42234D01*
X116724Y42205D01*
X116685Y41813D01*
X116688Y41783D01*
X116685Y41753D01*
X116724Y41361D01*
X116732Y41332D01*
X116735Y41302D01*
X116850Y40925D01*
X116864Y40899D01*
X116873Y40870D01*
X117058Y40522D01*
X117077Y40499D01*
X117092Y40472D01*
X117341Y40168D01*
X117365Y40149D01*
X117384Y40125D01*
X117636Y39919D01*
X117590Y39792D01*
X109105D01*
X109059Y39919D01*
X109311Y40125D01*
X109330Y40149D01*
X109354Y40168D01*
X109603Y40472D01*
X109618Y40499D01*
X109637Y40522D01*
X109822Y40870D01*
X109831Y40899D01*
X109845Y40925D01*
X109960Y41302D01*
X109963Y41332D01*
X109971Y41361D01*
X110010Y41753D01*
X110007Y41783D01*
X110010Y41813D01*
X109971Y42205D01*
X109963Y42234D01*
X109960Y42264D01*
X109845Y42641D01*
X109831Y42667D01*
X109822Y42696D01*
X109637Y43044D01*
X109618Y43067D01*
X109603Y43094D01*
X109354Y43398D01*
X109330Y43417D01*
X109311Y43440D01*
X109059Y43647D01*
X109105Y43774D01*
X117590D01*
X117636Y43647D01*
D02*
G37*
G36*
X132010Y41967D02*
X132158Y41867D01*
X132334Y41832D01*
X133430D01*
X133493Y41705D01*
X133374Y41550D01*
X133329Y41443D01*
X122899D01*
X122723Y41408D01*
X122575Y41308D01*
X121058Y39792D01*
X120408D01*
X120362Y39919D01*
X120614Y40125D01*
X120633Y40149D01*
X120657Y40168D01*
X120906Y40472D01*
X120921Y40499D01*
X120940Y40522D01*
X121125Y40870D01*
X121134Y40899D01*
X121148Y40925D01*
X121263Y41302D01*
X121266Y41332D01*
X121274Y41361D01*
X121313Y41753D01*
X121310Y41783D01*
X121313Y41813D01*
X121274Y42205D01*
X121266Y42234D01*
X121263Y42264D01*
X121148Y42641D01*
X121134Y42667D01*
X121125Y42696D01*
X120940Y43044D01*
X120921Y43067D01*
X120906Y43094D01*
X120657Y43398D01*
X120633Y43417D01*
X120614Y43440D01*
X120362Y43647D01*
X120408Y43774D01*
X130202D01*
X132010Y41967D01*
D02*
G37*
G36*
X133374Y40491D02*
X133492Y40337D01*
X133430Y40210D01*
X122953D01*
X122922Y40251D01*
X122895Y40331D01*
X123089Y40525D01*
X133360D01*
X133374Y40491D01*
D02*
G37*
G36*
X15158Y38159D02*
X13653Y36654D01*
X13294D01*
X13291Y36659D01*
X13155Y36763D01*
X13105Y36783D01*
X13103Y36790D01*
X13102Y36922D01*
X13262Y37030D01*
X13396Y37229D01*
X13418Y37338D01*
X12827D01*
Y37592D01*
X13418D01*
X13396Y37701D01*
X13262Y37900D01*
X13102Y38008D01*
X13103Y38140D01*
X13105Y38147D01*
X13155Y38167D01*
X13291Y38271D01*
X13294Y38276D01*
X15109D01*
X15158Y38159D01*
D02*
G37*
G36*
X22324Y37443D02*
X22442Y37289D01*
X22380Y37162D01*
X16383D01*
X16207Y37127D01*
X16059Y37027D01*
X14415Y35384D01*
X13294D01*
X13291Y35389D01*
X13155Y35493D01*
Y35627D01*
X13291Y35731D01*
X13294Y35736D01*
X13843D01*
X14019Y35771D01*
X14167Y35871D01*
X15811Y37514D01*
X22295D01*
X22324Y37443D01*
D02*
G37*
G36*
X133493Y36625D02*
X133374Y36470D01*
X133268Y36215D01*
X133232Y35941D01*
X133268Y35667D01*
X133374Y35411D01*
X133542Y35192D01*
X133761Y35024D01*
X134017Y34918D01*
X134291Y34882D01*
X134328Y34887D01*
X134717Y34499D01*
X134645Y34391D01*
X134565Y34424D01*
X134291Y34460D01*
X134017Y34424D01*
X133761Y34318D01*
X133542Y34150D01*
X133374Y33930D01*
X133268Y33675D01*
X133232Y33401D01*
X133268Y33127D01*
X133282Y33093D01*
X132017Y31828D01*
X123402D01*
X123344Y31904D01*
X123187Y32024D01*
X123005Y32100D01*
X122809Y32125D01*
X122613Y32100D01*
X122431Y32024D01*
X122274Y31904D01*
X122154Y31747D01*
X122078Y31565D01*
X122053Y31369D01*
X122065Y31274D01*
X120957Y30166D01*
X111629D01*
X111553Y30293D01*
X111602Y30411D01*
X111627Y30607D01*
X111602Y30803D01*
X111526Y30985D01*
X111406Y31142D01*
X111249Y31262D01*
X111067Y31338D01*
X110871Y31363D01*
X110675Y31338D01*
X110493Y31262D01*
X110336Y31142D01*
X110308Y31106D01*
X109438D01*
X109223Y31063D01*
X109042Y30942D01*
X107363Y29263D01*
X81134D01*
X81011Y29357D01*
X80829Y29433D01*
X80633Y29458D01*
X80437Y29433D01*
X80255Y29357D01*
X80130Y29261D01*
X80030Y29340D01*
X80106Y29522D01*
X80131Y29718D01*
X80106Y29914D01*
X80030Y30096D01*
X79910Y30253D01*
X79753Y30373D01*
X79571Y30449D01*
X79375Y30474D01*
X79179Y30449D01*
X78997Y30373D01*
X78840Y30253D01*
X78720Y30096D01*
X78644Y29914D01*
X78619Y29718D01*
X78644Y29522D01*
X78720Y29340D01*
X78840Y29183D01*
X78916Y29125D01*
Y28279D01*
X78840Y28221D01*
X78720Y28064D01*
X78644Y27882D01*
X78619Y27686D01*
X78628Y27616D01*
X78544Y27521D01*
X75617D01*
X70035Y33103D01*
X70084Y33220D01*
X78523D01*
X78678Y33066D01*
X78827Y32966D01*
X79002Y32931D01*
X79748D01*
X79923Y32966D01*
X80072Y33066D01*
X80234Y33227D01*
X80269Y33220D01*
X86019D01*
X86081Y33093D01*
X86042Y33042D01*
X85962Y32848D01*
X85934Y32639D01*
X85962Y32430D01*
X86042Y32236D01*
X86170Y32068D01*
X86338Y31940D01*
X86532Y31860D01*
X86741Y31832D01*
X111125D01*
X111334Y31860D01*
X111528Y31940D01*
X111696Y32068D01*
X112425Y32798D01*
X112456Y32811D01*
X124169D01*
X124377Y32838D01*
X124572Y32919D01*
X124739Y33047D01*
X124867Y33214D01*
X124948Y33409D01*
X124975Y33618D01*
X124948Y33826D01*
X124867Y34021D01*
X124739Y34188D01*
X124572Y34316D01*
X124377Y34397D01*
X124169Y34424D01*
X120953D01*
X120905Y34542D01*
X123115Y36752D01*
X133430D01*
X133493Y36625D01*
D02*
G37*
G36*
X40205Y36244D02*
X40135Y36215D01*
X39978Y36095D01*
X39858Y35938D01*
X39782Y35756D01*
X39757Y35560D01*
X39782Y35364D01*
X39858Y35182D01*
X39978Y35025D01*
X40135Y34905D01*
X40317Y34829D01*
X40513Y34804D01*
X40709Y34829D01*
X40891Y34905D01*
X41048Y35025D01*
X41106Y35101D01*
X41906D01*
X41955Y34984D01*
X35243Y28272D01*
X26727D01*
X26698Y28343D01*
X26530Y28562D01*
X26311Y28730D01*
X26055Y28836D01*
X25781Y28872D01*
X25507Y28836D01*
X25257Y28732D01*
X24581Y29407D01*
X24433Y29507D01*
X24257Y29542D01*
X24102D01*
X24039Y29669D01*
X24158Y29823D01*
X24264Y30079D01*
X24300Y30353D01*
X24264Y30627D01*
X24158Y30883D01*
X23990Y31102D01*
X23771Y31270D01*
X23515Y31376D01*
X23241Y31412D01*
X22967Y31376D01*
X22711Y31270D01*
X22492Y31102D01*
X22324Y30883D01*
X22218Y30627D01*
X22182Y30353D01*
X22218Y30079D01*
X22324Y29823D01*
X22442Y29669D01*
X22380Y29542D01*
X14478D01*
X14302Y29507D01*
X14154Y29407D01*
X13780Y29034D01*
X13294D01*
X13291Y29039D01*
X13155Y29143D01*
X13105Y29163D01*
X13103Y29170D01*
X13102Y29302D01*
X13262Y29410D01*
X13396Y29609D01*
X13418Y29718D01*
X12827D01*
Y29972D01*
X13418D01*
X13396Y30081D01*
X13262Y30280D01*
X13102Y30388D01*
X13103Y30520D01*
X13105Y30527D01*
X13155Y30547D01*
X13291Y30651D01*
X13294Y30656D01*
X16129D01*
X16305Y30691D01*
X16453Y30791D01*
X19367Y33704D01*
X22380D01*
X22442Y33577D01*
X22324Y33423D01*
X22218Y33167D01*
X22182Y32893D01*
X22218Y32619D01*
X22324Y32363D01*
X22492Y32144D01*
X22711Y31976D01*
X22967Y31870D01*
X23241Y31834D01*
X23515Y31870D01*
X23771Y31976D01*
X23990Y32144D01*
X24158Y32363D01*
X24264Y32619D01*
X24300Y32893D01*
X24264Y33167D01*
X24158Y33423D01*
X24039Y33577D01*
X24102Y33704D01*
X24257D01*
X24433Y33739D01*
X24581Y33839D01*
X25257Y34514D01*
X25507Y34410D01*
X25781Y34374D01*
X26055Y34410D01*
X26311Y34516D01*
X26530Y34684D01*
X26698Y34903D01*
X26727Y34974D01*
X28448D01*
X28624Y35009D01*
X28772Y35109D01*
X30035Y36371D01*
X40180D01*
X40205Y36244D01*
D02*
G37*
G36*
X106745Y37597D02*
X106604Y37413D01*
X106478Y37109D01*
X106435Y36783D01*
X106478Y36457D01*
X106604Y36153D01*
X106804Y35891D01*
X106813Y35885D01*
X106772Y35765D01*
X100882D01*
X100833Y35882D01*
X102676Y37724D01*
X106683D01*
X106745Y37597D01*
D02*
G37*
G36*
X121262Y38833D02*
X121289Y38753D01*
X121178Y38642D01*
X102485D01*
X102310Y38607D01*
X102161Y38507D01*
X99291Y35638D01*
X93049D01*
X92991Y35714D01*
X92834Y35834D01*
X92652Y35910D01*
X92456Y35935D01*
X92260Y35910D01*
X92078Y35834D01*
X91921Y35714D01*
X91871Y35649D01*
X89430D01*
X89387Y35776D01*
X89538Y35891D01*
X89738Y36153D01*
X89864Y36457D01*
X89907Y36783D01*
X89864Y37109D01*
X89738Y37413D01*
X89538Y37675D01*
X89276Y37875D01*
X88972Y38001D01*
X88810Y38022D01*
X88818Y38149D01*
X90678D01*
X90854Y38184D01*
X91002Y38284D01*
X91593Y38874D01*
X121231D01*
X121262Y38833D01*
D02*
G37*
G36*
X74888Y38182D02*
X75064Y38147D01*
X77590D01*
X77600Y38149D01*
X88474D01*
X88482Y38022D01*
X88320Y38001D01*
X88016Y37875D01*
X87754Y37675D01*
X87554Y37413D01*
X87428Y37109D01*
X87385Y36783D01*
X87428Y36457D01*
X87554Y36153D01*
X87754Y35891D01*
X87905Y35776D01*
X87862Y35649D01*
X79002D01*
X78947Y35638D01*
X77251D01*
X77210Y35758D01*
X77219Y35764D01*
X77419Y36026D01*
X77545Y36330D01*
X77588Y36656D01*
X77545Y36982D01*
X77419Y37286D01*
X77219Y37548D01*
X76957Y37748D01*
X76653Y37874D01*
X76327Y37917D01*
X76001Y37874D01*
X75697Y37748D01*
X75435Y37548D01*
X75235Y37286D01*
X75109Y36982D01*
X75066Y36656D01*
X75109Y36330D01*
X75235Y36026D01*
X75435Y35764D01*
X75444Y35758D01*
X75403Y35638D01*
X70046D01*
X67903Y37780D01*
X67754Y37880D01*
X67579Y37915D01*
X26961D01*
X26945Y37912D01*
X26834Y38019D01*
X26825Y38089D01*
X26909Y38184D01*
X74885D01*
X74888Y38182D01*
D02*
G37*
G36*
X55921Y34393D02*
X55926Y34350D01*
X55309Y33733D01*
X45551D01*
X45493Y33809D01*
X45336Y33929D01*
X45154Y34005D01*
X44958Y34030D01*
X44762Y34005D01*
X44580Y33929D01*
X44423Y33809D01*
X44303Y33652D01*
X44227Y33470D01*
X44202Y33274D01*
X44227Y33078D01*
X44303Y32896D01*
X44423Y32739D01*
X44580Y32619D01*
X44762Y32543D01*
X44958Y32518D01*
X45154Y32543D01*
X45336Y32619D01*
X45493Y32739D01*
X45551Y32815D01*
X55499D01*
X55675Y32850D01*
X55823Y32950D01*
X56451Y33577D01*
X67407D01*
X67883Y33101D01*
X67846Y33027D01*
X67816Y32988D01*
X67465Y32942D01*
X67135Y32806D01*
X66852Y32589D01*
X66635Y32306D01*
X66499Y31976D01*
X66469Y31750D01*
X67818D01*
Y31623D01*
X67945D01*
Y30274D01*
X68171Y30304D01*
X68501Y30440D01*
X68784Y30657D01*
X69001Y30940D01*
X69137Y31270D01*
X69183Y31621D01*
X69222Y31651D01*
X69296Y31688D01*
X74847Y26138D01*
X74995Y26038D01*
X75171Y26003D01*
X78288D01*
X78429Y25862D01*
X78578Y25762D01*
X78754Y25727D01*
X79996D01*
X80172Y25762D01*
X80321Y25862D01*
X80462Y26003D01*
X97448D01*
X97524Y25876D01*
X97475Y25758D01*
X97451Y25570D01*
X74266D01*
X70428Y29407D01*
X70280Y29507D01*
X70104Y29542D01*
X66603D01*
X66501Y29789D01*
X66276Y30081D01*
X65984Y30306D01*
X65643Y30447D01*
X65278Y30495D01*
X64913Y30447D01*
X64572Y30306D01*
X64280Y30081D01*
X64055Y29789D01*
X63953Y29542D01*
X56769D01*
X56593Y29507D01*
X56445Y29407D01*
X53033Y25996D01*
X52956Y26055D01*
X52774Y26131D01*
X52578Y26156D01*
X52382Y26131D01*
X52200Y26055D01*
X52043Y25935D01*
X51923Y25778D01*
X51847Y25596D01*
X51822Y25400D01*
X51847Y25204D01*
X51896Y25086D01*
X51820Y24959D01*
X43508D01*
X41529Y26937D01*
X41381Y27037D01*
X41205Y27072D01*
X26679D01*
X26623Y27186D01*
X26698Y27283D01*
X26727Y27354D01*
X35433D01*
X35609Y27389D01*
X35757Y27489D01*
X42746Y34477D01*
X55883D01*
X55921Y34393D01*
D02*
G37*
G36*
X118048Y37597D02*
X117907Y37413D01*
X117781Y37109D01*
X117738Y36783D01*
X117781Y36457D01*
X117907Y36153D01*
X118107Y35891D01*
X118116Y35885D01*
X118075Y35765D01*
X108620D01*
X108579Y35885D01*
X108588Y35891D01*
X108788Y36153D01*
X108914Y36457D01*
X108957Y36783D01*
X108914Y37109D01*
X108788Y37413D01*
X108647Y37597D01*
X108709Y37724D01*
X117986D01*
X118048Y37597D01*
D02*
G37*
G36*
X29246Y36880D02*
X28258Y35892D01*
X26727D01*
X26698Y35963D01*
X26530Y36182D01*
X26465Y36232D01*
X26489Y36373D01*
X26602Y36449D01*
X27151Y36997D01*
X29197D01*
X29246Y36880D01*
D02*
G37*
G36*
X67401Y36136D02*
X67352Y36019D01*
X41106D01*
X41048Y36095D01*
X40891Y36215D01*
X40821Y36244D01*
X40846Y36371D01*
X67166D01*
X67401Y36136D01*
D02*
G37*
G36*
X111336Y33991D02*
X110791Y33446D01*
X100260D01*
X100212Y33563D01*
X100757Y34109D01*
X111288D01*
X111336Y33991D01*
D02*
G37*
G36*
X22442Y36117D02*
X22324Y35963D01*
X22295Y35892D01*
X19050D01*
X18874Y35857D01*
X18726Y35757D01*
X15812Y32844D01*
X13294D01*
X13291Y32849D01*
X13155Y32953D01*
X13105Y32973D01*
X13103Y32980D01*
X13102Y33112D01*
X13262Y33220D01*
X13396Y33419D01*
X13418Y33528D01*
X12827D01*
Y33782D01*
X13418D01*
X13396Y33891D01*
X13262Y34090D01*
X13102Y34198D01*
X13103Y34330D01*
X13105Y34337D01*
X13155Y34357D01*
X13291Y34461D01*
X13294Y34466D01*
X14605D01*
X14781Y34501D01*
X14929Y34601D01*
X16573Y36244D01*
X22380D01*
X22442Y36117D01*
D02*
G37*
G36*
X134843Y32355D02*
X132053Y29566D01*
X121821D01*
X121772Y29683D01*
X122714Y30625D01*
X122809Y30613D01*
X123005Y30638D01*
X123187Y30714D01*
X123344Y30834D01*
X123402Y30910D01*
X132207D01*
X132383Y30945D01*
X132531Y31045D01*
X133909Y32422D01*
X134017Y32378D01*
X134291Y32342D01*
X134565Y32378D01*
X134771Y32463D01*
X134843Y32355D01*
D02*
G37*
G36*
X128946Y16963D02*
X128919Y16883D01*
X128888Y16842D01*
X26567D01*
X26522Y16969D01*
X26658Y17147D01*
X26759Y17391D01*
X26777Y17526D01*
X25781D01*
X24785D01*
X24803Y17391D01*
X24904Y17147D01*
X25040Y16969D01*
X24995Y16842D01*
X24511D01*
X24335Y16807D01*
X24187Y16707D01*
X23586Y16107D01*
X23515Y16136D01*
X23241Y16172D01*
X22967Y16136D01*
X22896Y16107D01*
X22803Y16199D01*
X22655Y16299D01*
X22479Y16334D01*
X13294D01*
X13291Y16339D01*
X13155Y16443D01*
Y16577D01*
X13291Y16681D01*
X13294Y16686D01*
X14224D01*
X14400Y16721D01*
X14548Y16821D01*
X16192Y18464D01*
X22380D01*
X22442Y18337D01*
X22324Y18183D01*
X22218Y17927D01*
X22182Y17653D01*
X22218Y17379D01*
X22324Y17123D01*
X22492Y16904D01*
X22711Y16736D01*
X22967Y16630D01*
X23241Y16594D01*
X23515Y16630D01*
X23771Y16736D01*
X23990Y16904D01*
X24158Y17123D01*
X24264Y17379D01*
X24300Y17653D01*
X24264Y17927D01*
X24158Y18183D01*
X24039Y18337D01*
X24102Y18464D01*
X24638D01*
X24814Y18499D01*
X24962Y18599D01*
X25531Y19167D01*
X25781Y19134D01*
X26055Y19170D01*
X26311Y19276D01*
X26530Y19444D01*
X26698Y19663D01*
X26727Y19734D01*
X47767D01*
X47830Y19607D01*
X47772Y19532D01*
X47701Y19361D01*
X47694Y19304D01*
X49080D01*
X49073Y19361D01*
X49002Y19532D01*
X48944Y19607D01*
X49007Y19734D01*
X61173D01*
X61216Y19607D01*
X61187Y19585D01*
X61067Y19428D01*
X60991Y19246D01*
X60966Y19050D01*
X60991Y18854D01*
X61067Y18672D01*
X61187Y18515D01*
X61344Y18395D01*
X61526Y18319D01*
X61722Y18294D01*
X61918Y18319D01*
X62100Y18395D01*
X62257Y18515D01*
X62315Y18591D01*
X67860D01*
X67918Y18515D01*
X68075Y18395D01*
X68257Y18319D01*
X68453Y18294D01*
X68649Y18319D01*
X68831Y18395D01*
X68988Y18515D01*
X69108Y18672D01*
X69184Y18854D01*
X69209Y19050D01*
X69184Y19246D01*
X69108Y19428D01*
X68988Y19585D01*
X68959Y19607D01*
X69002Y19734D01*
X126175D01*
X128946Y16963D01*
D02*
G37*
G36*
X22442Y53897D02*
X22324Y53743D01*
X22218Y53487D01*
X22182Y53213D01*
X22218Y52939D01*
X22324Y52683D01*
X22492Y52464D01*
X22508Y52452D01*
X22467Y52332D01*
X17075D01*
X16899Y52297D01*
X16751Y52197D01*
X15177Y50624D01*
X13294D01*
X13291Y50629D01*
X13155Y50733D01*
Y50867D01*
X13291Y50971D01*
X13294Y50976D01*
X14478D01*
X14654Y51011D01*
X14802Y51111D01*
X17716Y54024D01*
X22380D01*
X22442Y53897D01*
D02*
G37*
G36*
X133542Y64565D02*
X133424Y64411D01*
X133416Y64393D01*
X133276D01*
X133100Y64358D01*
X132952Y64258D01*
X129985Y61292D01*
X40640D01*
X40464Y61257D01*
X40316Y61157D01*
X30290Y51132D01*
X26727D01*
X26698Y51203D01*
X26530Y51422D01*
X26311Y51590D01*
X26055Y51696D01*
X25781Y51732D01*
X25507Y51696D01*
X25436Y51667D01*
X24905Y52197D01*
X24757Y52297D01*
X24581Y52332D01*
X24015D01*
X23974Y52452D01*
X23990Y52464D01*
X24158Y52683D01*
X24264Y52939D01*
X24300Y53213D01*
X24264Y53487D01*
X24158Y53743D01*
X24039Y53897D01*
X24102Y54024D01*
X24321D01*
X24787Y53558D01*
X24758Y53487D01*
X24722Y53213D01*
X24758Y52939D01*
X24864Y52683D01*
X25032Y52464D01*
X25251Y52296D01*
X25507Y52190D01*
X25781Y52154D01*
X26055Y52190D01*
X26311Y52296D01*
X26530Y52464D01*
X26698Y52683D01*
X26727Y52754D01*
X31115D01*
X31291Y52789D01*
X31439Y52889D01*
X40068Y61517D01*
X129794D01*
X129970Y61552D01*
X130118Y61652D01*
X133159Y64692D01*
X133480D01*
X133542Y64565D01*
D02*
G37*
G36*
X24787Y51018D02*
X24758Y50947D01*
X24722Y50673D01*
X24758Y50399D01*
X24864Y50143D01*
X25032Y49924D01*
X25048Y49912D01*
X25007Y49792D01*
X24441D01*
X24265Y49757D01*
X24117Y49657D01*
X23586Y49127D01*
X23515Y49156D01*
X23241Y49192D01*
X22967Y49156D01*
X22711Y49050D01*
X22492Y48882D01*
X22324Y48663D01*
X22218Y48407D01*
X22182Y48133D01*
X22139Y48084D01*
X13294D01*
X13291Y48089D01*
X13155Y48193D01*
X13105Y48213D01*
X13103Y48220D01*
X13102Y48352D01*
X13262Y48460D01*
X13396Y48659D01*
X13418Y48768D01*
X12827D01*
Y49022D01*
X13418D01*
X13396Y49131D01*
X13262Y49330D01*
X13102Y49438D01*
X13103Y49570D01*
X13105Y49577D01*
X13155Y49597D01*
X13291Y49701D01*
X13294Y49706D01*
X15367D01*
X15543Y49741D01*
X15691Y49841D01*
X17265Y51414D01*
X22343D01*
X22399Y51300D01*
X22324Y51203D01*
X22218Y50947D01*
X22182Y50673D01*
X22218Y50399D01*
X22324Y50143D01*
X22492Y49924D01*
X22711Y49756D01*
X22967Y49650D01*
X23241Y49614D01*
X23515Y49650D01*
X23771Y49756D01*
X23990Y49924D01*
X24158Y50143D01*
X24264Y50399D01*
X24300Y50673D01*
X24264Y50947D01*
X24158Y51203D01*
X24083Y51300D01*
X24139Y51414D01*
X24391D01*
X24787Y51018D01*
D02*
G37*
G36*
X41291Y60330D02*
X41310Y60247D01*
X30855Y49792D01*
X26555D01*
X26514Y49912D01*
X26530Y49924D01*
X26698Y50143D01*
X26727Y50214D01*
X30480D01*
X30656Y50249D01*
X30804Y50349D01*
X40830Y60374D01*
X41261D01*
X41291Y60330D01*
D02*
G37*
G36*
X132461Y19050D02*
X132609Y18950D01*
X132785Y18915D01*
X133411D01*
X133474Y18788D01*
X133399Y18691D01*
X133317Y18493D01*
X132397D01*
X127555Y23335D01*
X127604Y23452D01*
X128058D01*
X132461Y19050D01*
D02*
G37*
G36*
X132264Y15170D02*
X132412Y15070D01*
X132588Y15035D01*
X133442D01*
X133518Y14937D01*
X133455Y14810D01*
X132320D01*
X132313Y14844D01*
X132214Y14993D01*
X126689Y20517D01*
X126541Y20617D01*
X126365Y20652D01*
X26727D01*
X26698Y20723D01*
X26530Y20942D01*
X26465Y20992D01*
X26489Y21133D01*
X26602Y21209D01*
X27035Y21641D01*
X54453D01*
X54508Y21652D01*
X125781D01*
X132264Y15170D01*
D02*
G37*
G36*
X116123Y11879D02*
X116074Y11762D01*
X26642D01*
X26580Y11889D01*
X26698Y12043D01*
X26727Y12114D01*
X115888D01*
X116123Y11879D01*
D02*
G37*
G36*
X131375Y11487D02*
X131523Y11387D01*
X131699Y11352D01*
X133455D01*
X133518Y11225D01*
X133399Y11071D01*
X133317Y10873D01*
X130365D01*
X127070Y14167D01*
X126922Y14267D01*
X126746Y14302D01*
X26642D01*
X26580Y14429D01*
X26698Y14583D01*
X26727Y14654D01*
X128207D01*
X131375Y11487D01*
D02*
G37*
G36*
X15920Y11489D02*
X14415Y9984D01*
X13294D01*
X13291Y9989D01*
X13155Y10093D01*
X13105Y10113D01*
X13103Y10120D01*
X13102Y10252D01*
X13262Y10360D01*
X13396Y10559D01*
X13418Y10668D01*
X12827D01*
Y10922D01*
X13418D01*
X13396Y11031D01*
X13262Y11230D01*
X13102Y11338D01*
X13103Y11470D01*
X13105Y11477D01*
X13155Y11497D01*
X13291Y11601D01*
X13294Y11606D01*
X15871D01*
X15920Y11489D01*
D02*
G37*
G36*
X22205Y15289D02*
X22182Y15113D01*
X22218Y14839D01*
X22324Y14583D01*
X22442Y14429D01*
X22380Y14302D01*
X14605D01*
X14429Y14267D01*
X14281Y14167D01*
X13907Y13794D01*
X13294D01*
X13291Y13799D01*
X13155Y13903D01*
X13105Y13923D01*
X13103Y13930D01*
X13102Y14062D01*
X13262Y14170D01*
X13396Y14369D01*
X13418Y14478D01*
X12827D01*
Y14732D01*
X13418D01*
X13396Y14841D01*
X13262Y15040D01*
X13102Y15148D01*
X13103Y15280D01*
X13105Y15287D01*
X13155Y15307D01*
X13291Y15411D01*
X13294Y15416D01*
X22099D01*
X22205Y15289D01*
D02*
G37*
G36*
X22442Y13257D02*
X22324Y13103D01*
X22218Y12847D01*
X22182Y12573D01*
X22139Y12524D01*
X13294D01*
X13291Y12529D01*
X13155Y12633D01*
Y12767D01*
X13291Y12871D01*
X13294Y12876D01*
X14097D01*
X14273Y12911D01*
X14421Y13011D01*
X14795Y13384D01*
X22380D01*
X22442Y13257D01*
D02*
G37*
G36*
X132010Y12630D02*
X132158Y12530D01*
X132334Y12495D01*
X133442D01*
X133518Y12397D01*
X133455Y12270D01*
X131889D01*
X128721Y15437D01*
X128573Y15537D01*
X128397Y15572D01*
X26727D01*
X26698Y15643D01*
X26580Y15797D01*
X26642Y15924D01*
X128715D01*
X132010Y12630D01*
D02*
G37*
G36*
X22442Y20877D02*
X22324Y20723D01*
X22218Y20467D01*
X22182Y20193D01*
X22139Y20144D01*
X13294D01*
X13291Y20149D01*
X13155Y20253D01*
Y20387D01*
X13291Y20491D01*
X13294Y20496D01*
X13843D01*
X14019Y20531D01*
X14167Y20631D01*
X14541Y21004D01*
X22380D01*
X22442Y20877D01*
D02*
G37*
G36*
X132305Y56955D02*
X132197Y56847D01*
X44704D01*
X44528Y56812D01*
X44380Y56712D01*
X32449Y44782D01*
X26642D01*
X26580Y44909D01*
X26698Y45063D01*
X26727Y45134D01*
X32131D01*
X32307Y45169D01*
X32455Y45269D01*
X44259Y57072D01*
X132256D01*
X132305Y56955D01*
D02*
G37*
G36*
X37383Y51494D02*
X31941Y46052D01*
X26727D01*
X26698Y46123D01*
X26530Y46342D01*
X26514Y46354D01*
X26555Y46474D01*
X31693D01*
X31869Y46509D01*
X32017Y46609D01*
X37020Y51611D01*
X37334D01*
X37383Y51494D01*
D02*
G37*
G36*
X22341Y47039D02*
X22116Y46814D01*
X13294D01*
X13291Y46819D01*
X13155Y46923D01*
Y47057D01*
X13291Y47161D01*
X13294Y47166D01*
X22289D01*
X22341Y47039D01*
D02*
G37*
G36*
X22324Y45063D02*
X22442Y44909D01*
X22380Y44782D01*
X17162D01*
X17110Y44909D01*
X17335Y45134D01*
X22295D01*
X22324Y45063D01*
D02*
G37*
G36*
X22442Y28497D02*
X22324Y28343D01*
X22218Y28087D01*
X22182Y27813D01*
X22218Y27539D01*
X22324Y27283D01*
X22492Y27064D01*
X22711Y26896D01*
X22967Y26790D01*
X23241Y26754D01*
X23515Y26790D01*
X23771Y26896D01*
X23990Y27064D01*
X24158Y27283D01*
X24264Y27539D01*
X24300Y27813D01*
X24264Y28087D01*
X24158Y28343D01*
X24122Y28389D01*
X24218Y28473D01*
X24740Y27951D01*
X24722Y27813D01*
X24758Y27539D01*
X24864Y27283D01*
X24942Y27181D01*
X24870Y27067D01*
X24716Y27037D01*
X24568Y26937D01*
X23799Y26169D01*
X23771Y26190D01*
X23515Y26296D01*
X23241Y26332D01*
X22967Y26296D01*
X22711Y26190D01*
X22572Y26083D01*
X21025Y27629D01*
X20877Y27729D01*
X20701Y27764D01*
X13294D01*
X13291Y27769D01*
X13155Y27873D01*
Y28007D01*
X13291Y28111D01*
X13294Y28116D01*
X13970D01*
X14146Y28151D01*
X14294Y28251D01*
X14668Y28624D01*
X22380D01*
X22442Y28497D01*
D02*
G37*
G36*
X41348Y25822D02*
X41285Y25705D01*
X41148Y25732D01*
X26727D01*
X26698Y25803D01*
X26530Y26022D01*
X26514Y26034D01*
X26555Y26154D01*
X41015D01*
X41348Y25822D01*
D02*
G37*
G36*
X130855Y58596D02*
X130851Y58590D01*
X43820D01*
X43645Y58555D01*
X43496Y58455D01*
X37569Y52529D01*
X36830D01*
X36654Y52494D01*
X36506Y52394D01*
X31503Y47392D01*
X26679D01*
X26623Y47506D01*
X26698Y47603D01*
X26727Y47674D01*
X31115D01*
X31291Y47709D01*
X31439Y47809D01*
X42354Y58723D01*
X130788D01*
X130855Y58596D01*
D02*
G37*
G36*
X15297Y23679D02*
X15445Y23579D01*
X15621Y23544D01*
X22380D01*
X22442Y23417D01*
X22324Y23263D01*
X22295Y23192D01*
X15557D01*
X14929Y23819D01*
X14781Y23919D01*
X14605Y23954D01*
X13294D01*
X13291Y23959D01*
X13155Y24063D01*
Y24197D01*
X13291Y24301D01*
X13294Y24306D01*
X14669D01*
X15297Y23679D01*
D02*
G37*
G36*
X41353Y23276D02*
X41304Y23159D01*
X26741D01*
X26698Y23263D01*
X26580Y23417D01*
X26642Y23544D01*
X41085D01*
X41353Y23276D01*
D02*
G37*
G36*
X15043Y22409D02*
X15191Y22309D01*
X15367Y22274D01*
X22295D01*
X22324Y22203D01*
X22442Y22049D01*
X22380Y21922D01*
X14351D01*
X14175Y21887D01*
X14027Y21787D01*
X13653Y21414D01*
X13294D01*
X13291Y21419D01*
X13155Y21523D01*
X13105Y21543D01*
X13103Y21550D01*
X13102Y21682D01*
X13262Y21790D01*
X13396Y21989D01*
X13418Y22098D01*
X12827D01*
Y22352D01*
X13418D01*
X13396Y22461D01*
X13262Y22660D01*
X13102Y22768D01*
X13103Y22900D01*
X13105Y22907D01*
X13155Y22927D01*
X13291Y23031D01*
X13294Y23036D01*
X14415D01*
X15043Y22409D01*
D02*
G37*
G36*
X106817Y25886D02*
X105901Y24970D01*
X98857D01*
X98794Y25097D01*
X98861Y25184D01*
X98937Y25366D01*
X98962Y25562D01*
X98937Y25758D01*
X98888Y25876D01*
X98964Y26003D01*
X106768D01*
X106817Y25886D01*
D02*
G37*
G36*
X41183Y24589D02*
X41131Y24462D01*
X26642D01*
X26580Y24589D01*
X26698Y24743D01*
X26727Y24814D01*
X40958D01*
X41183Y24589D01*
D02*
G37*
G36*
X22197Y25160D02*
X22218Y24999D01*
X22324Y24743D01*
X22442Y24589D01*
X22380Y24462D01*
X15811D01*
X15183Y25089D01*
X15035Y25189D01*
X14859Y25224D01*
X13294D01*
X13291Y25229D01*
X13155Y25333D01*
X13105Y25353D01*
X13103Y25360D01*
X13102Y25492D01*
X13262Y25600D01*
X13396Y25799D01*
X13418Y25908D01*
X12827D01*
Y26162D01*
X13418D01*
X13396Y26271D01*
X13262Y26470D01*
X13102Y26578D01*
X13103Y26710D01*
X13105Y26717D01*
X13155Y26737D01*
X13291Y26841D01*
X13294Y26846D01*
X20511D01*
X22197Y25160D01*
D02*
G37*
%LPC*%
G36*
X69167Y26416D02*
X67945D01*
Y25194D01*
X68171Y25224D01*
X68501Y25360D01*
X68784Y25577D01*
X69001Y25860D01*
X69137Y26190D01*
X69167Y26416D01*
D02*
G37*
G36*
X67691D02*
X66469D01*
X66499Y26190D01*
X66635Y25860D01*
X66852Y25577D01*
X67135Y25360D01*
X67465Y25224D01*
X67691Y25194D01*
Y26416D01*
D02*
G37*
G36*
X62611Y27892D02*
X62385Y27862D01*
X62055Y27726D01*
X61772Y27509D01*
X61555Y27226D01*
X61419Y26896D01*
X61389Y26670D01*
X62611D01*
Y27892D01*
D02*
G37*
G36*
X64087Y26416D02*
X62865D01*
Y25194D01*
X63091Y25224D01*
X63421Y25360D01*
X63704Y25577D01*
X63921Y25860D01*
X64057Y26190D01*
X64087Y26416D01*
D02*
G37*
G36*
X62611D02*
X61389D01*
X61419Y26190D01*
X61555Y25860D01*
X61772Y25577D01*
X62055Y25360D01*
X62385Y25224D01*
X62611Y25194D01*
Y26416D01*
D02*
G37*
G36*
X62865Y27892D02*
Y26670D01*
X64087D01*
X64057Y26896D01*
X63921Y27226D01*
X63704Y27509D01*
X63421Y27726D01*
X63091Y27862D01*
X62865Y27892D01*
D02*
G37*
G36*
X67945D02*
Y26670D01*
X69167D01*
X69137Y26896D01*
X69001Y27226D01*
X68784Y27509D01*
X68501Y27726D01*
X68171Y27862D01*
X67945Y27892D01*
D02*
G37*
G36*
X67691D02*
X67465Y27862D01*
X67135Y27726D01*
X66852Y27509D01*
X66635Y27226D01*
X66499Y26896D01*
X66469Y26670D01*
X67691D01*
Y27892D01*
D02*
G37*
G36*
X25781Y33952D02*
X25507Y33916D01*
X25251Y33810D01*
X25032Y33642D01*
X24864Y33423D01*
X24758Y33167D01*
X24722Y32893D01*
X24758Y32619D01*
X24864Y32363D01*
X25032Y32144D01*
X25251Y31976D01*
X25507Y31870D01*
X25781Y31834D01*
X26055Y31870D01*
X26311Y31976D01*
X26530Y32144D01*
X26698Y32363D01*
X26804Y32619D01*
X26840Y32893D01*
X26804Y33167D01*
X26698Y33423D01*
X26530Y33642D01*
X26311Y33810D01*
X26055Y33916D01*
X25781Y33952D01*
D02*
G37*
G36*
Y31412D02*
X25507Y31376D01*
X25251Y31270D01*
X25032Y31102D01*
X24864Y30883D01*
X24758Y30627D01*
X24722Y30353D01*
X24758Y30079D01*
X24864Y29823D01*
X25032Y29604D01*
X25251Y29436D01*
X25507Y29330D01*
X25781Y29294D01*
X26055Y29330D01*
X26311Y29436D01*
X26530Y29604D01*
X26698Y29823D01*
X26804Y30079D01*
X26840Y30353D01*
X26804Y30627D01*
X26698Y30883D01*
X26530Y31102D01*
X26311Y31270D01*
X26055Y31376D01*
X25781Y31412D01*
D02*
G37*
G36*
X51054Y26797D02*
X50488D01*
X50495Y26740D01*
X50566Y26569D01*
X50679Y26422D01*
X50826Y26309D01*
X50997Y26238D01*
X51054Y26231D01*
Y26797D01*
D02*
G37*
G36*
X51874D02*
X51308D01*
Y26231D01*
X51365Y26238D01*
X51536Y26309D01*
X51683Y26422D01*
X51796Y26569D01*
X51867Y26740D01*
X51874Y26797D01*
D02*
G37*
G36*
X67691Y31496D02*
X66469D01*
X66499Y31270D01*
X66635Y30940D01*
X66852Y30657D01*
X67135Y30440D01*
X67465Y30304D01*
X67691Y30274D01*
Y31496D01*
D02*
G37*
G36*
X64087D02*
X62865D01*
Y30274D01*
X63091Y30304D01*
X63421Y30440D01*
X63704Y30657D01*
X63921Y30940D01*
X64057Y31270D01*
X64087Y31496D01*
D02*
G37*
G36*
X62611Y32972D02*
X62385Y32942D01*
X62055Y32806D01*
X61772Y32589D01*
X61555Y32306D01*
X61419Y31976D01*
X61389Y31750D01*
X62611D01*
Y32972D01*
D02*
G37*
G36*
X62865D02*
Y31750D01*
X64087D01*
X64057Y31976D01*
X63921Y32306D01*
X63704Y32589D01*
X63421Y32806D01*
X63091Y32942D01*
X62865Y32972D01*
D02*
G37*
G36*
X62611Y31496D02*
X61389D01*
X61419Y31270D01*
X61555Y30940D01*
X61772Y30657D01*
X62055Y30440D01*
X62385Y30304D01*
X62611Y30274D01*
Y31496D01*
D02*
G37*
G36*
X51054Y27617D02*
X50997Y27610D01*
X50826Y27539D01*
X50679Y27426D01*
X50566Y27279D01*
X50495Y27108D01*
X50488Y27051D01*
X51054D01*
Y27617D01*
D02*
G37*
G36*
X51308D02*
Y27051D01*
X51874D01*
X51867Y27108D01*
X51796Y27279D01*
X51683Y27426D01*
X51536Y27539D01*
X51365Y27610D01*
X51308Y27617D01*
D02*
G37*
G36*
X25908Y18649D02*
Y17780D01*
X26777D01*
X26759Y17915D01*
X26658Y18159D01*
X26497Y18369D01*
X26287Y18530D01*
X26043Y18631D01*
X25908Y18649D01*
D02*
G37*
G36*
X25654D02*
X25519Y18631D01*
X25275Y18530D01*
X25065Y18369D01*
X24904Y18159D01*
X24803Y17915D01*
X24785Y17780D01*
X25654D01*
Y18649D01*
D02*
G37*
G36*
X49080Y19050D02*
X47694D01*
X47701Y18993D01*
X47732Y18919D01*
X47626Y18843D01*
X47495Y18943D01*
X47313Y19019D01*
X47117Y19044D01*
X46921Y19019D01*
X46739Y18943D01*
X46582Y18823D01*
X46462Y18666D01*
X46386Y18484D01*
X46361Y18288D01*
X46386Y18092D01*
X46462Y17910D01*
X46582Y17753D01*
X46739Y17633D01*
X46921Y17557D01*
X47117Y17532D01*
X47313Y17557D01*
X47361Y17577D01*
X47371Y17575D01*
X55245D01*
X55255Y17577D01*
X55303Y17557D01*
X55499Y17532D01*
X55695Y17557D01*
X55877Y17633D01*
X56034Y17753D01*
X56154Y17910D01*
X56230Y18092D01*
X56255Y18288D01*
X56230Y18484D01*
X56154Y18666D01*
X56034Y18823D01*
X55877Y18943D01*
X55695Y19019D01*
X55499Y19044D01*
X55303Y19019D01*
X55121Y18943D01*
X54964Y18823D01*
X54844Y18666D01*
X54772Y18493D01*
X48860D01*
X48817Y18620D01*
X48889Y18675D01*
X49002Y18822D01*
X49073Y18993D01*
X49080Y19050D01*
D02*
G37*
G36*
X120777Y19603D02*
X120568Y19575D01*
X120374Y19495D01*
X120206Y19367D01*
X120062Y19222D01*
X110363D01*
X110154Y19194D01*
X109960Y19114D01*
X109792Y18986D01*
X109775Y18968D01*
X78439D01*
X78422Y18986D01*
X78254Y19114D01*
X78060Y19194D01*
X77851Y19222D01*
X77642Y19194D01*
X77448Y19114D01*
X77280Y18986D01*
X77152Y18818D01*
X77072Y18624D01*
X77044Y18415D01*
X77072Y18206D01*
X77152Y18012D01*
X77280Y17844D01*
X77534Y17590D01*
X77702Y17462D01*
X77896Y17382D01*
X78105Y17354D01*
X110109D01*
X110318Y17382D01*
X110512Y17462D01*
X110680Y17590D01*
X110697Y17608D01*
X120396D01*
X120605Y17636D01*
X120799Y17716D01*
X120967Y17844D01*
X121348Y18225D01*
X121476Y18393D01*
X121556Y18587D01*
X121584Y18796D01*
X121556Y19005D01*
X121476Y19199D01*
X121348Y19367D01*
X121180Y19495D01*
X120986Y19575D01*
X120777Y19603D01*
D02*
G37*
%LPD*%
D21*
X130556Y-12827D02*
D03*
Y69215D02*
D03*
X33528Y-13081D02*
D03*
X33401Y70358D02*
D03*
D25*
X7952Y48895D02*
X9222Y50165D01*
X46355Y40894D02*
X52451D01*
X54991Y43434D01*
X7747Y48895D02*
X7952D01*
X80633Y28702D02*
X107595D01*
X109438Y30545D01*
X110809D01*
X110871Y30607D01*
D26*
X112776Y26797D02*
X128397D01*
X75591Y-990D02*
X75946Y-635D01*
X57397Y-990D02*
X75591D01*
X55847Y-2540D02*
X57397Y-990D01*
X52959Y-2540D02*
X55847D01*
X112776Y26797D02*
Y27051D01*
X86741Y32639D02*
X111125D01*
X112026Y33540D01*
X112126D01*
X112203Y33618D02*
X124169D01*
X112126Y33540D02*
X112203Y33618D01*
X77851Y18415D02*
X78105Y18161D01*
X91694D01*
X110109D02*
X110363Y18415D01*
X91694Y18161D02*
X110109D01*
X110363Y18415D02*
X120396D01*
X120777Y18796D01*
D27*
X10922Y6985D02*
X11557D01*
X10160Y7747D02*
X10922Y6985D01*
X10160Y7747D02*
Y27813D01*
X13970Y18415D02*
X14097Y18542D01*
X12827Y18415D02*
X13970D01*
X10668Y5715D02*
X11557D01*
X9398Y6985D02*
X10668Y5715D01*
X9398Y6985D02*
Y27302D01*
X8763Y49989D02*
Y50546D01*
X133960Y35904D02*
X135193Y34671D01*
X22606Y25400D02*
X23679D01*
X136500Y38444D02*
Y38633D01*
X64135Y45593D02*
X64262Y45720D01*
X51181Y45593D02*
X64135D01*
X52578Y25400D02*
X53086D01*
X56769Y29083D01*
X43318Y24500D02*
X53459D01*
X42521Y23900D02*
X53707D01*
X41978Y23300D02*
X53956D01*
X25814Y22700D02*
X54204D01*
X26845Y22100D02*
X54453D01*
X53459Y24500D02*
X53470Y24511D01*
X53707Y23900D02*
X53718Y23911D01*
X53956Y23300D02*
X53967Y23311D01*
X54204Y22700D02*
X54215Y22711D01*
X54453Y22100D02*
X54464Y22111D01*
X53470Y24511D02*
X106091D01*
X53718Y23911D02*
X128248D01*
X53967Y23311D02*
X126930D01*
X54215Y22711D02*
X126681D01*
X54464Y22111D02*
X125971D01*
X24892Y26613D02*
X41205D01*
X23679Y25400D02*
X24892Y26613D01*
X12827Y27305D02*
X20701D01*
X22606Y25400D01*
X131156Y58131D02*
X133096Y60071D01*
X43820Y58131D02*
X131156D01*
X37759Y52070D02*
X43820Y58131D01*
X36830Y52070D02*
X37759D01*
X31693Y46933D02*
X36830Y52070D01*
X79375Y27686D02*
Y29718D01*
X80024Y27062D02*
X106945D01*
X79748Y26786D02*
X80024Y27062D01*
X80272Y26462D02*
X107194D01*
X79996Y26186D02*
X80272Y26462D01*
X79002Y26786D02*
X79748D01*
X78754Y26186D02*
X79996D01*
X78478Y26462D02*
X78754Y26186D01*
X75171Y26462D02*
X78478D01*
X67597Y34036D02*
X75171Y26462D01*
X107194D02*
X109839Y29107D01*
X78726Y27062D02*
X79002Y26786D01*
X75427Y27062D02*
X78726D01*
X67553Y34936D02*
X75427Y27062D01*
X106945D02*
X109590Y29707D01*
X90678Y38608D02*
X91403Y39333D01*
X121248D02*
X122899Y40984D01*
X91403Y39333D02*
X121248D01*
X102485Y38183D02*
X121368D01*
X99481Y35179D02*
X102485Y38183D01*
X92456Y35179D02*
X99481D01*
X74076Y25111D02*
X97755D01*
X67579Y37456D02*
X69856Y35179D01*
X26961Y37456D02*
X67579D01*
X69856Y35179D02*
X78991D01*
X67356Y36830D02*
X69907Y34279D01*
X29845Y36830D02*
X67356D01*
X69907Y34279D02*
X79364D01*
X67778Y35560D02*
X69659Y33679D01*
X40513Y35560D02*
X67778D01*
X69659Y33679D02*
X78713D01*
X68072Y39243D02*
X73062Y44233D01*
X24511Y39243D02*
X68072D01*
X73062Y44233D02*
X130392D01*
X77592Y38608D02*
X90678D01*
X75064Y38606D02*
X77590D01*
X26451Y38643D02*
X75027D01*
X25781Y37973D02*
X26451Y38643D01*
X109590Y29707D02*
X121147D01*
X109774Y28194D02*
X111252D01*
X106091Y24511D02*
X109774Y28194D01*
X109839Y29107D02*
X132243D01*
X100567Y34568D02*
X120282D01*
X99679Y33679D02*
X100567Y34568D01*
X128248Y23911D02*
X132785Y19374D01*
X23241Y37973D02*
X24511Y39243D01*
X25089Y36773D02*
X26278D01*
X23749Y35433D02*
X25089Y36773D01*
X121368Y38183D02*
X122936Y39751D01*
X100457Y35306D02*
X119888D01*
X120282Y34568D02*
X122925Y37211D01*
X61722Y19050D02*
X68453D01*
X55245Y18034D02*
X55499Y18288D01*
X47371Y18034D02*
X55245D01*
X47117Y18288D02*
X47371Y18034D01*
X6477Y48895D02*
X7747Y50165D01*
X7874Y51435D02*
X8763Y50546D01*
X7747Y51435D02*
X7874D01*
X6477Y52705D02*
X7747Y51435D01*
X6477Y19685D02*
X7747D01*
X6477Y14605D02*
X7747Y15875D01*
Y10795D02*
Y12065D01*
X6477Y13335D02*
X7747Y12065D01*
X11557Y8255D02*
X12827Y6985D01*
X11557Y9525D02*
X12827Y10795D01*
X11557Y13335D02*
X12827Y14605D01*
X11557Y17145D02*
X12827Y18415D01*
X11557Y20955D02*
X12827Y22225D01*
X11557Y24765D02*
X12827Y26035D01*
X11557Y28575D02*
X12827Y29845D01*
X11557Y32385D02*
X12827Y33655D01*
X11557Y36195D02*
X12827Y37465D01*
X11557Y47625D02*
X12827Y48895D01*
X11557Y43815D02*
X12827Y45085D01*
X11557Y40005D02*
X12827Y41275D01*
X44958Y33274D02*
X55499D01*
X56261Y34036D01*
X47625Y43815D02*
Y47625D01*
X111252Y28194D02*
X133604D01*
X121147Y29707D02*
X122809Y31369D01*
X132243Y29107D02*
X136500Y33364D01*
X80048Y33690D02*
X80258D01*
X79748Y33390D02*
X80048Y33690D01*
X79002Y33390D02*
X79748D01*
X78713Y33679D02*
X79002Y33390D01*
X80269Y33679D02*
X99679D01*
X80258Y33690D02*
X80269Y33679D01*
X79002Y35190D02*
X92445D01*
X78991Y35179D02*
X79002Y35190D01*
X80518Y34279D02*
X99430D01*
X80507Y34290D02*
X80518Y34279D01*
X79375Y34290D02*
X80507D01*
X92445Y35190D02*
X92456Y35179D01*
X119888Y35306D02*
X123026Y38444D01*
X133960D01*
Y33122D02*
Y33364D01*
X132207Y31369D02*
X133960Y33122D01*
X122809Y31369D02*
X132207D01*
X35433Y27813D02*
X42556Y34936D01*
X25781Y27813D02*
X35433D01*
X56261Y34036D02*
X67597D01*
X42556Y34936D02*
X67553D01*
X77590Y38606D02*
X77592Y38608D01*
X75027Y38643D02*
X75064Y38606D01*
X79364Y34279D02*
X79375Y34290D01*
X99430Y34279D02*
X100457Y35306D01*
X70104Y29083D02*
X74076Y25111D01*
X65278Y29083D02*
X70104D01*
X133604Y28194D02*
X138303Y32893D01*
X122925Y37211D02*
X135561D01*
X136831Y35941D01*
X41205Y26613D02*
X43318Y24500D01*
X41148Y25273D02*
X42521Y23900D01*
X25781Y25273D02*
X41148D01*
X41275Y24003D02*
X41978Y23300D01*
X24517Y24003D02*
X41275D01*
X97755Y25111D02*
X98206Y25562D01*
X25781Y35433D02*
X28448D01*
X29845Y36830D01*
X26278Y36773D02*
X26961Y37456D01*
X25273Y37973D02*
X25781D01*
X24003Y36703D02*
X25273Y37973D01*
X135193Y42291D02*
X136500Y40984D01*
X132334Y42291D02*
X135193D01*
X122899Y40984D02*
X133960D01*
X24511Y16383D02*
X128905D01*
X23241Y15113D02*
X24511Y16383D01*
X24938Y15113D02*
X25781D01*
X23668Y13843D02*
X24938Y15113D01*
X20828Y10033D02*
X23241D01*
X19050Y8255D02*
X20828Y10033D01*
X12827Y8255D02*
X19050D01*
X12827Y9525D02*
X14605D01*
X16383Y11303D01*
X23668D01*
X24938Y12573D01*
X25781D01*
X23247Y10033D02*
X24517Y11303D01*
X23241Y10033D02*
X23247D01*
X24517Y11303D02*
X116459D01*
X22733Y12065D02*
X23241Y12573D01*
X12827Y12065D02*
X22733D01*
X12827Y13335D02*
X14097D01*
X14605Y13843D01*
X23668D01*
X23247Y12573D02*
X24517Y13843D01*
X23241Y12573D02*
X23247D01*
X24517Y13843D02*
X126746D01*
X22479Y15875D02*
X23241Y15113D01*
X12827Y15875D02*
X22479D01*
X12827Y17145D02*
X14224D01*
X16002Y18923D01*
X24638D01*
X25781Y20066D01*
Y20193D01*
X22733Y19685D02*
X23241Y20193D01*
X12827Y19685D02*
X22733D01*
X12827Y20955D02*
X13843D01*
X14351Y21463D01*
X23668D01*
X24938Y22733D01*
X25781D01*
X23247Y20193D02*
X24587Y21533D01*
X23241Y20193D02*
X23247D01*
X24587Y21533D02*
X26278D01*
X12827Y24765D02*
X14859D01*
X15621Y24003D01*
X23668D01*
X24938Y25273D01*
X25781D01*
X23247Y22733D02*
X24517Y24003D01*
X23241Y22733D02*
X23247D01*
X12827Y23495D02*
X14605D01*
X15367Y22733D01*
X23241D01*
X12827Y28575D02*
X13970D01*
X14478Y29083D01*
X24257D01*
X25527Y27813D01*
X25781D01*
X9260Y27440D02*
Y30215D01*
X9398Y30353D01*
X9260Y27440D02*
X9398Y27302D01*
X12827Y31115D02*
X16129D01*
X19177Y34163D01*
X24257D01*
X25527Y35433D01*
X25781D01*
X19050D02*
X23241D01*
X16002Y32385D02*
X19050Y35433D01*
X12827Y32385D02*
X16002D01*
X23241Y35433D02*
X23749D01*
X14605Y34925D02*
X16383Y36703D01*
X24003D01*
X12827Y34925D02*
X14605D01*
X12827Y36195D02*
X13843D01*
X15621Y37973D01*
X23241D01*
X15621Y38735D02*
X18669Y41783D01*
X24130D01*
X25400Y43053D01*
X25781D01*
X12827Y38735D02*
X15621D01*
X12827Y40005D02*
X14605D01*
X17653Y43053D01*
X23241D01*
X12827Y42545D02*
X15240D01*
X17018Y44323D01*
X23789D01*
X24441Y44975D01*
Y45142D01*
X24892Y45593D01*
X25781D01*
X12827Y43815D02*
X15367D01*
X17145Y45593D01*
X23241D01*
X25181Y47533D02*
X25781Y48133D01*
X24586Y47533D02*
X25181D01*
X23846Y46793D02*
X24586Y47533D01*
X22744Y46793D02*
X23846D01*
X22306Y46355D02*
X22744Y46793D01*
X12827Y46355D02*
X22306D01*
X22733Y47625D02*
X23241Y48133D01*
X12827Y47625D02*
X22733D01*
X12827Y50165D02*
X15367D01*
X17075Y51873D01*
X24581D01*
X25781Y50673D01*
X12827Y51435D02*
X14478D01*
X17526Y54483D01*
X24511D01*
X25781Y53213D01*
X133513Y57514D02*
X135628D01*
X136881Y56261D01*
X132785Y19374D02*
X135693D01*
X136856Y18211D01*
Y18161D02*
Y18211D01*
X126365Y20193D02*
X131889Y14668D01*
X131953Y14351D02*
X135586D01*
X131889Y14415D02*
Y14668D01*
Y14415D02*
X131953Y14351D01*
X135586D02*
X136856Y13081D01*
X128397Y15113D02*
X131699Y11811D01*
X135586D01*
X136856Y10541D01*
X116078Y12573D02*
X132080Y-3429D01*
X135509D01*
X136779Y-4699D01*
X136906D01*
X132678Y-4916D02*
X134035D01*
X130175Y10414D02*
X133985D01*
X132306Y54610D02*
X134010Y56314D01*
X132681Y57531D02*
X134004Y58854D01*
X132334Y12954D02*
X133985D01*
X132588Y15494D02*
X133985D01*
X132207Y18034D02*
X133985D01*
X135185Y16834D02*
X136525Y15494D01*
X133403Y61394D02*
X134010D01*
X133276Y63934D02*
X134010D01*
X44704Y54610D02*
X132306D01*
X44069Y57531D02*
X132681D01*
X26278Y21533D02*
X26845Y22100D01*
X125971Y22111D02*
X132588Y15494D01*
X56769Y29083D02*
X65278D01*
X25781Y22733D02*
X25814Y22700D01*
X64262Y45720D02*
X64897Y45085D01*
X31115Y53213D02*
X39878Y61976D01*
X132969Y65151D02*
X135333D01*
X39878Y61976D02*
X129794D01*
X132969Y65151D01*
X30480Y50673D02*
X40640Y60833D01*
X130175D01*
X133276Y63934D01*
X31045Y49333D02*
X41656Y59944D01*
X130302D01*
X132969Y62611D01*
X135333D01*
X31115Y48133D02*
X42164Y59182D01*
X131191D01*
X133403Y61394D01*
X133096Y60071D02*
X135333D01*
X136550Y58854D01*
X132387Y56388D02*
X133513Y57514D01*
X134004Y58854D02*
X134010D01*
X32131Y45593D02*
X44069Y57531D01*
X44704Y56388D02*
X132387D01*
X32639Y44323D02*
X44704Y56388D01*
X33147Y43053D02*
X44704Y54610D01*
X116459Y11303D02*
X132678Y-4916D01*
X25781Y12573D02*
X116078D01*
X126746Y13843D02*
X130175Y10414D01*
X25781Y15113D02*
X128397D01*
X128905Y16383D02*
X132334Y12954D01*
X25781Y20193D02*
X126365D01*
X132558Y16834D02*
X135185D01*
X126681Y22711D02*
X132558Y16834D01*
X126930Y23311D02*
X132207Y18034D01*
X130392Y44233D02*
X132334Y42291D01*
X122936Y39751D02*
X135382D01*
X138303Y32893D02*
Y34036D01*
X137668Y34671D02*
X138303Y34036D01*
X135193Y34671D02*
X137668D01*
X135382Y39751D02*
X136500Y38633D01*
X25781Y43053D02*
X33147D01*
X24638Y44323D02*
X32639D01*
X25781Y45593D02*
X32131D01*
X24835Y46933D02*
X31693D01*
X25781Y48133D02*
X31115D01*
X24441Y49333D02*
X31045D01*
X25781Y50673D02*
X30480D01*
X25781Y53213D02*
X31115D01*
X23368Y43053D02*
X24638Y44323D01*
X23241Y43053D02*
X23368D01*
X23495Y45593D02*
X24835Y46933D01*
X23241Y45593D02*
X23495D01*
X135333Y62611D02*
X136550Y61394D01*
X135333Y65151D02*
X136550Y63934D01*
X23241Y48133D02*
X24441Y49333D01*
D28*
X9222Y49989D02*
Y50165D01*
X57658Y9271D02*
X92329D01*
X47879Y-508D02*
X57658Y9271D01*
X47879Y-2540D02*
Y-508D01*
X44196Y-127D02*
Y381D01*
X42926Y1651D02*
X44196Y381D01*
D29*
X14097Y18542D02*
D03*
X51181Y26924D02*
D03*
Y45593D02*
D03*
X52578Y25400D02*
D03*
X79375Y27686D02*
D03*
X68453Y19050D02*
D03*
X61722D02*
D03*
X48387Y19177D02*
D03*
X46355Y40894D02*
D03*
X54991Y43434D02*
D03*
X9222Y49989D02*
D03*
X44958Y33274D02*
D03*
X47625Y47625D02*
D03*
X92329Y9271D02*
D03*
X75946Y-635D02*
D03*
X112776Y27051D02*
D03*
X128397Y26797D02*
D03*
X110871Y30607D02*
D03*
X80633Y28702D02*
D03*
X86741Y32639D02*
D03*
X124169Y33618D02*
D03*
X112126Y33540D02*
D03*
X92456Y35179D02*
D03*
X122809Y31369D02*
D03*
X47117Y18288D02*
D03*
X55499Y18288D02*
D03*
X47625Y43815D02*
D03*
X77851Y18415D02*
D03*
X91694Y18161D02*
D03*
X110363Y18415D02*
D03*
X120777Y18796D02*
D03*
X79375Y34290D02*
D03*
Y29718D02*
D03*
X40513Y35560D02*
D03*
X111252Y28194D02*
D03*
X98206Y25562D02*
D03*
X10160Y27813D02*
D03*
X9398Y30353D02*
D03*
D30*
X134366Y-12319D02*
D03*
Y-9779D02*
D03*
Y-7239D02*
D03*
Y-4699D02*
D03*
Y-2159D02*
D03*
Y381D02*
D03*
X136906Y-12319D02*
D03*
Y-9779D02*
D03*
Y-7239D02*
D03*
Y-4699D02*
D03*
Y-2159D02*
D03*
Y381D02*
D03*
X134316Y10541D02*
D03*
Y13081D02*
D03*
Y15621D02*
D03*
Y18161D02*
D03*
Y20701D02*
D03*
Y23241D02*
D03*
X136856Y10541D02*
D03*
Y13081D02*
D03*
Y15621D02*
D03*
Y18161D02*
D03*
Y20701D02*
D03*
Y23241D02*
D03*
X134291Y33401D02*
D03*
Y35941D02*
D03*
Y38481D02*
D03*
Y41021D02*
D03*
Y43561D02*
D03*
Y46101D02*
D03*
X136831Y33401D02*
D03*
Y35941D02*
D03*
Y38481D02*
D03*
Y41021D02*
D03*
Y43561D02*
D03*
Y46101D02*
D03*
X136881Y68961D02*
D03*
Y66421D02*
D03*
Y63881D02*
D03*
Y61341D02*
D03*
Y58801D02*
D03*
Y56261D02*
D03*
X134341Y68961D02*
D03*
Y66421D02*
D03*
Y63881D02*
D03*
Y61341D02*
D03*
Y58801D02*
D03*
Y56261D02*
D03*
X25781Y4953D02*
D03*
X23241D02*
D03*
X25781Y7493D02*
D03*
X23241D02*
D03*
X25781Y10033D02*
D03*
X23241D02*
D03*
X25781Y12573D02*
D03*
X23241D02*
D03*
X25781Y15113D02*
D03*
X23241D02*
D03*
X25781Y17653D02*
D03*
X23241D02*
D03*
X25781Y20193D02*
D03*
X23241D02*
D03*
X25781Y22733D02*
D03*
X23241D02*
D03*
X25781Y25273D02*
D03*
X23241D02*
D03*
X25781Y27813D02*
D03*
X23241D02*
D03*
X25781Y30353D02*
D03*
X23241D02*
D03*
X25781Y32893D02*
D03*
X23241D02*
D03*
X25781Y35433D02*
D03*
X23241D02*
D03*
X25781Y37973D02*
D03*
X23241D02*
D03*
X25781Y40513D02*
D03*
X23241D02*
D03*
X25781Y43053D02*
D03*
X23241D02*
D03*
X25781Y45593D02*
D03*
X23241D02*
D03*
X25781Y48133D02*
D03*
X23241D02*
D03*
X25781Y50673D02*
D03*
X23241D02*
D03*
X25781Y53213D02*
D03*
X23241D02*
D03*
X47879Y-10795D02*
D03*
X50419D02*
D03*
X52959D02*
D03*
X58039D02*
D03*
X60579D02*
D03*
X112395Y-2159D02*
D03*
X109855D02*
D03*
X47879Y-2540D02*
D03*
X50419D02*
D03*
X52959D02*
D03*
X58039D02*
D03*
X60579D02*
D03*
X85725D02*
D03*
X83185D02*
D03*
D31*
X104775Y-7239D02*
D03*
X114935D02*
D03*
X78105Y-7620D02*
D03*
X88265D02*
D03*
D32*
X99187Y1905D02*
D03*
Y4445D02*
D03*
Y6985D02*
D03*
X67310Y2286D02*
D03*
Y4826D02*
D03*
Y7366D02*
D03*
D33*
X64897Y45085D02*
D03*
X62357Y47625D02*
D03*
X67437D02*
D03*
X62357Y42545D02*
D03*
X67437D02*
D03*
X65278Y29083D02*
D03*
X62738Y31623D02*
D03*
X67818D02*
D03*
X62738Y26543D02*
D03*
X67818D02*
D03*
D34*
X78827Y46656D02*
D03*
X73827D02*
D03*
X76327Y36656D02*
D03*
X91146Y46783D02*
D03*
X86146D02*
D03*
X88646Y36783D02*
D03*
X110196Y46783D02*
D03*
X105196D02*
D03*
X107696Y36783D02*
D03*
X121499Y46783D02*
D03*
X116499D02*
D03*
X118999Y36783D02*
D03*
D35*
X76327Y41656D02*
D03*
X88646Y41783D02*
D03*
X107696D02*
D03*
X118999D02*
D03*
D36*
X12700Y56401D02*
D03*
X9652Y2019D02*
D03*
D37*
X38223Y-9017D02*
D03*
X123698Y66675D02*
D03*
X38223D02*
D03*
X124079Y-8509D02*
D03*
D38*
X42926Y1651D02*
D03*
D39*
X11557Y37465D02*
D03*
Y36195D02*
D03*
Y34925D02*
D03*
Y33655D02*
D03*
Y32385D02*
D03*
Y31115D02*
D03*
Y29845D02*
D03*
Y28575D02*
D03*
Y27305D02*
D03*
Y26035D02*
D03*
Y24765D02*
D03*
Y23495D02*
D03*
Y22225D02*
D03*
Y20955D02*
D03*
Y19685D02*
D03*
Y18415D02*
D03*
Y17145D02*
D03*
Y15875D02*
D03*
Y14605D02*
D03*
Y13335D02*
D03*
Y12065D02*
D03*
Y10795D02*
D03*
Y9525D02*
D03*
Y8255D02*
D03*
Y6985D02*
D03*
Y5715D02*
D03*
Y4445D02*
D03*
X12827Y37465D02*
D03*
Y36195D02*
D03*
Y34925D02*
D03*
Y33655D02*
D03*
Y32385D02*
D03*
Y31115D02*
D03*
Y29845D02*
D03*
Y28575D02*
D03*
Y27305D02*
D03*
Y26035D02*
D03*
Y24765D02*
D03*
Y23495D02*
D03*
Y22225D02*
D03*
Y20955D02*
D03*
Y19685D02*
D03*
Y18415D02*
D03*
Y17145D02*
D03*
Y15875D02*
D03*
Y14605D02*
D03*
Y13335D02*
D03*
Y12065D02*
D03*
Y10795D02*
D03*
Y9525D02*
D03*
Y8255D02*
D03*
Y6985D02*
D03*
Y5715D02*
D03*
Y4445D02*
D03*
X7747Y20955D02*
D03*
Y19685D02*
D03*
Y18415D02*
D03*
Y17145D02*
D03*
Y15875D02*
D03*
Y14605D02*
D03*
Y13335D02*
D03*
Y12065D02*
D03*
Y10795D02*
D03*
Y9525D02*
D03*
Y8255D02*
D03*
Y6985D02*
D03*
Y5715D02*
D03*
Y4445D02*
D03*
Y22225D02*
D03*
Y23495D02*
D03*
Y24765D02*
D03*
Y26035D02*
D03*
Y27305D02*
D03*
Y28575D02*
D03*
Y29845D02*
D03*
Y31115D02*
D03*
X6477Y4445D02*
D03*
Y5715D02*
D03*
Y6985D02*
D03*
Y8255D02*
D03*
Y9525D02*
D03*
Y10795D02*
D03*
Y12065D02*
D03*
Y13335D02*
D03*
Y14605D02*
D03*
Y15875D02*
D03*
Y17145D02*
D03*
Y18415D02*
D03*
Y19685D02*
D03*
Y20955D02*
D03*
Y22225D02*
D03*
Y23495D02*
D03*
Y24765D02*
D03*
Y26035D02*
D03*
Y27305D02*
D03*
Y28575D02*
D03*
Y29845D02*
D03*
Y31115D02*
D03*
Y32385D02*
D03*
Y33655D02*
D03*
Y34925D02*
D03*
Y36195D02*
D03*
Y37465D02*
D03*
Y38735D02*
D03*
Y40005D02*
D03*
Y41275D02*
D03*
Y42545D02*
D03*
Y43815D02*
D03*
Y45085D02*
D03*
Y46355D02*
D03*
Y47625D02*
D03*
Y48895D02*
D03*
Y50165D02*
D03*
Y51435D02*
D03*
Y52705D02*
D03*
Y53975D02*
D03*
X7747Y32385D02*
D03*
Y33655D02*
D03*
Y34925D02*
D03*
Y36195D02*
D03*
Y37465D02*
D03*
Y38735D02*
D03*
Y40005D02*
D03*
Y41275D02*
D03*
Y42545D02*
D03*
Y43815D02*
D03*
Y45085D02*
D03*
Y46355D02*
D03*
Y47625D02*
D03*
Y48895D02*
D03*
Y50165D02*
D03*
Y51435D02*
D03*
Y52705D02*
D03*
Y53975D02*
D03*
X12827Y38735D02*
D03*
Y40005D02*
D03*
Y41275D02*
D03*
Y42545D02*
D03*
Y43815D02*
D03*
Y45085D02*
D03*
Y46355D02*
D03*
Y47625D02*
D03*
Y48895D02*
D03*
Y50165D02*
D03*
Y51435D02*
D03*
Y52705D02*
D03*
Y53975D02*
D03*
X11557Y38735D02*
D03*
Y40005D02*
D03*
Y41275D02*
D03*
Y42545D02*
D03*
Y43815D02*
D03*
Y45085D02*
D03*
Y46355D02*
D03*
Y47625D02*
D03*
Y48895D02*
D03*
Y50165D02*
D03*
Y51435D02*
D03*
Y52705D02*
D03*
Y53975D02*
D03*
D40*
X60579Y-11938D02*
Y-10795D01*
X59436Y-13081D02*
X60579Y-11938D01*
X46101Y-13081D02*
X59436D01*
X44196Y-11176D02*
X46101Y-13081D01*
X44196Y-11176D02*
Y-127D01*
%TF.MD5,ed2c1186824341366f2a2aee8c593ee2*%
M02*
