M48
;DRILL file {KiCad 4.0.6} date 01/08/18 10:51:50
;FORMAT={-:-/ absolute / inch / decimal}
FMAT,2
INCH,TZ
T1C0.016
T2C0.024
T3C0.031
T4C0.039
T5C0.047
T6C0.051
T7C0.055
T8C0.059
T9C0.087
T10C0.098
T11C0.126
%
G90
G05
M72
T1
X3.99Y-1.96
X4.03Y-1.76
X4.0731Y-1.7797
X4.0836Y-1.1026
X4.22Y-1.54
X4.23Y-1.78
X4.28Y-1.38
X4.28Y-1.42
X4.28Y-1.71
X4.35Y-1.96
X4.3544Y-1.8126
X4.3655Y-1.4631
X4.4Y-1.82
X4.44Y-1.73
X4.44Y-1.82
X4.4958Y-1.3038
X4.52Y-1.65
X4.52Y-1.69
X4.52Y-1.82
X4.6334Y-1.5364
X4.66Y-1.3
X4.6648Y-1.7079
X4.6656Y-1.7487
X4.6988Y-1.1422
X4.7061Y-2.5385
X4.7148Y-2.9502
X4.736Y-1.1424
X4.7696Y-1.8144
X4.77Y-1.19
X4.7755Y-1.4364
X4.7763Y-1.49
X4.78Y-1.53
X4.78Y-1.57
X4.78Y-1.61
X4.78Y-1.65
X4.79Y-1.97
X4.7958Y-1.3076
X4.8153Y-1.762
X4.8154Y-2.6104
X4.8256Y-1.6784
X4.8324Y-1.4186
X4.8372Y-1.3078
X4.84Y-1.23
X4.84Y-1.8696
X4.8575Y-1.7622
X4.8736Y-1.6786
X4.8927Y-1.464
X4.8998Y-1.7635
X4.9086Y-1.4157
X4.9154Y-1.7054
X4.9257Y-2.5506
X4.94Y-1.44
X4.94Y-1.77
X4.9438Y-1.8688
X4.95Y-1.16
X4.9504Y-2.0062
X4.96Y-1.67
X4.98Y-1.42
X4.9824Y-2.2002
X4.984Y-1.8649
X4.9842Y-1.7626
X4.9892Y-1.2908
X4.9984Y-2.9766
X5.01Y-1.67
X5.0121Y-1.6272
X5.02Y-1.86
X5.0394Y-1.4502
X5.07Y-2.39
X5.1Y-1.68
X5.1Y-2.12
X5.11Y-1.62
X5.11Y-3.05
X5.1228Y-1.5412
X5.13Y-1.94
X5.157Y-1.2242
X5.17Y-1.94
X5.2Y-2.95
X5.21Y-1.94
X5.22Y-1.49
X5.2294Y-1.6494
X5.23Y-1.69
X5.2302Y-1.368
X5.2344Y-1.3083
X5.2344Y-1.7456
X5.24Y-1.87
X5.2666Y-1.7162
X5.27Y-1.91
X5.27Y-2.01
X5.274Y-2.2002
X5.31Y-2.67
X5.3152Y-1.1944
X5.36Y-2.88
X5.37Y-2.44
X5.37Y-2.5
X5.4Y-1.44
X5.41Y-1.38
X5.43Y-1.79
X5.4362Y-1.1552
X5.44Y-2.04
X5.44Y-2.17
X5.47Y-2.82
X5.51Y-1.32
X5.51Y-2.83
X5.52Y-2.04
X5.5358Y-1.0962
X5.54Y-1.95
X5.55Y-1.59
X5.56Y-2.21
X5.57Y-2.96
X5.58Y-2.56
X5.58Y-2.6041
X5.5974Y-2.5176
X5.6Y-1.54
X5.61Y-2.32
X5.6296Y-2.999
X5.63Y-1.26
X5.6311Y-1.1554
X5.6466Y-2.0016
X5.65Y-2.76
X5.66Y-2.36
X5.6898Y-3.0014
X5.6976Y-2.5256
X5.7048Y-1.4344
X5.72Y-2.39
X5.733Y-2.7336
X5.7484Y-2.5308
X5.7562Y-2.7657
X5.76Y-2.14
X5.7632Y-1.6646
X5.7741Y-2.8823
X5.79Y-1.89
X5.8Y-1.98
X5.81Y-2.67
X5.8392Y-1.7451
X5.84Y-1.26
X5.84Y-2.29
X5.848Y-1.5439
X5.85Y-2.92
X5.85Y-2.98
X5.85Y-3.02
X5.8558Y-2.7218
X5.87Y-1.37
X5.874Y-1.1559
X5.9Y-1.41
X5.9Y-2.12
X5.9Y-2.29
X5.91Y-2.38
X5.9232Y-1.0002
X5.939Y-1.8871
X5.9466Y-1.1196
X5.95Y-1.7
X5.9508Y-1.6576
X5.9578Y-1.8246
X5.9607Y-1.617
X5.98Y-2.6
X6.0098Y-2.521
X6.0629Y-2.4133
X6.09Y-1.24
X6.0926Y-1.1726
X6.1Y-1.37
X6.1101Y-1.5745
X6.1128Y-1.5333
X6.114Y-1.4841
X6.12Y-2.09
X6.1206Y-2.172
X6.1318Y-1.4028
X6.16Y-1.89
X6.1602Y-2.6559
X6.19Y-2.13
X6.27Y-2.41
X6.27Y-2.46
X6.2766Y-0.9994
X6.3Y-2.88
X6.31Y-2.23
X6.31Y-2.76
X6.32Y-1.9
X6.33Y-1.33
X6.35Y-2.41
X6.3598Y-2.0142
X6.39Y-1.94
X6.45Y-1.11
X6.4503Y-2.6566
X6.46Y-2.55
X6.47Y-2.44
X6.48Y-1.95
X6.4882Y-1.0842
X6.5032Y-2.3085
X6.51Y-2.98
X6.5112Y-2.9236
X6.5347Y-2.556
X6.54Y-2.43
X6.57Y-1.21
X6.58Y-2.31
X6.63Y-2.01
X6.66Y-2.54
X6.68Y-2.7
X6.69Y-2.31
X6.7414Y-2.1946
X6.75Y-1.9
X6.7581Y-2.38
X6.76Y-3.09
X6.7674Y-2.1322
X6.79Y-1.7913
X6.81Y-2.89
X6.8449Y-1.3522
X6.86Y-2.38
X6.88Y-1.92
X6.88Y-1.98
X6.89Y-3.05
X6.92Y-2.2
X6.93Y-1.98
X6.94Y-2.38
X6.9458Y-2.8914
X6.96Y-1.89
X6.97Y-1.61
X7.051Y-2.516
X7.06Y-2.6
X7.0714Y-2.056
X7.08Y-1.87
X7.0833Y-2.8164
X7.0839Y-2.7792
X7.11Y-2.6
X7.11Y-2.68
X7.1253Y-3.3165
X7.1309Y-1.765
X7.1805Y-3.1856
X7.1806Y-3.2262
X7.19Y-1.85
X7.19Y-2.47
X7.19Y-2.61
X7.2Y-1.91
X7.2043Y-1.3323
X7.2219Y-3.025
X7.24Y-2.3
X7.3Y-1.85
X7.32Y-2.97
X7.3371Y-2.661
X7.35Y-2.43
X7.36Y-1.85
X7.3932Y-2.5186
X7.4Y-1.75
X7.4Y-2.
X7.4208Y-2.8672
X7.48Y-1.22
X7.48Y-1.86
X7.486Y-2.7468
X7.5042Y-1.637
X7.51Y-1.79
X7.5184Y-3.0966
X7.5552Y-2.9439
X7.64Y-2.45
X7.6408Y-2.5112
X7.7Y-1.16
T2
X4.9098Y-3.6369
X5.02Y-3.44
T3
X5.0728Y-3.1334
X5.2729Y-3.1334
X5.4928Y-3.1344
X6.0928Y-3.1344
X6.6313Y-0.96
X6.71Y-0.96
X6.71Y-0.96
X6.7887Y-0.96
T4
X6.34Y-1.45
X6.34Y-1.7059
X7.6821Y-1.5468
X7.7046Y-0.9594
X7.8046Y-0.9594
X7.82Y-2.1838
X7.82Y-2.2928
X7.82Y-2.4019
X7.82Y-2.5109
X7.82Y-2.62
X7.84Y-1.23
X7.9046Y-0.9594
X7.9318Y-2.2383
X7.9318Y-2.3474
X7.9318Y-2.4564
X7.9318Y-2.5655
X7.94Y-1.23
X8.0916Y-1.5468
T5
X4.28Y-0.99
X4.38Y-0.99
X4.48Y-0.99
X4.58Y-0.99
X4.68Y-0.99
X4.78Y-0.99
X4.88Y-0.99
X4.98Y-0.99
X5.08Y-0.99
X5.18Y-0.99
X5.28Y-0.99
X5.38Y-0.99
X5.48Y-0.99
X5.58Y-0.99
X5.68Y-0.99
X5.78Y-0.99
X7.6821Y-1.3913
X7.6821Y-1.6511
X8.0916Y-1.3913
X8.0916Y-1.6531
T6
X4.15Y-2.43
X4.15Y-3.3158
T7
X4.49Y-2.49
X4.49Y-3.09
T8
X6.5486Y-0.96
X6.8714Y-0.96
T9
X4.59Y-3.44
X5.338Y-3.44
X6.092Y-3.44
X6.48Y-3.27
X6.838Y-3.44
X7.5841Y-3.44
T10
X4.0635Y-0.99
X4.0635Y-2.2105
X7.0162Y-2.2105
X7.0162Y-0.99
T11
X4.11Y-3.57
X7.8759Y-1.9098
X7.8759Y-2.894
X8.1Y-1.03
X8.1Y-3.57
T0
M30
