M48
;DRILL file {KiCad 4.0.6} date 04/12/18 14:03:06
;FORMAT={-:-/ absolute / metric / decimal}
FMAT,2
METRIC,TZ
T1C0.400
T2C0.600
T3C0.800
T4C1.000
T5C1.200
T6C1.300
T7C1.400
T8C1.500
T9C2.200
T10C2.500
T11C3.200
%
G90
G05
M71
T1
X101.339Y-62.986
X101.339Y-65.526
X101.339Y-68.32
X101.339Y-70.606
X101.339Y-72.638
X101.339Y-75.178
X101.339Y-77.972
X101.339Y-80.512
X101.339Y-83.052
X101.339Y-85.592
X101.346Y-27.686
X101.346Y-41.402
X101.346Y-46.482
X101.346Y-49.022
X101.346Y-51.562
X101.346Y-54.102
X101.346Y-58.674
X102.362Y-44.704
X103.457Y-45.206
X104.648Y-50.038
X105.156Y-22.86
X105.156Y-67.056
X105.156Y-69.596
X105.156Y-77.216
X105.156Y-79.756
X105.918Y-27.178
X107.188Y-39.116
X107.442Y-45.212
X107.696Y-22.86
X107.696Y-67.056
X107.696Y-69.596
X107.696Y-77.216
X107.696Y-79.756
X108.712Y-33.528
X108.712Y-35.052
X108.712Y-36.068
X108.712Y-43.434
X110.236Y-22.86
X110.882Y-37.163
X111.506Y-93.726
X112.613Y-48.758
X112.631Y-52.57
X112.776Y-22.86
X112.776Y-28.448
X112.776Y-43.942
X112.776Y-69.596
X112.776Y-71.12
X113.792Y-53.848
X114.046Y-69.596
X114.046Y-71.12
X114.193Y-33.117
X114.808Y-41.91
X114.808Y-42.926
X114.808Y-46.228
X115.062Y-28.448
X115.316Y-22.86
X115.316Y-69.596
X115.316Y-71.12
X115.57Y-48.006
X115.57Y-49.784
X115.57Y-51.308
X115.57Y-52.832
X116.078Y-56.388
X116.078Y-58.166
X116.078Y-60.198
X117.688Y-39.025
X117.856Y-22.86
X118.364Y-33.02
X118.487Y-43.381
X118.506Y-44.417
X118.618Y-56.388
X118.618Y-58.166
X118.618Y-60.198
X118.618Y-61.976
X118.618Y-70.866
X119.126Y-93.726
X119.35Y-29.012
X119.535Y-64.477
X119.756Y-74.935
X120.142Y-70.866
X120.294Y-29.017
X120.396Y-22.86
X121.148Y-46.086
X121.158Y-30.226
X121.299Y-36.485
X121.318Y-37.846
X121.412Y-38.862
X121.412Y-39.878
X121.412Y-40.894
X121.412Y-41.91
X121.666Y-50.038
X121.666Y-93.726
X121.813Y-33.213
X121.92Y-56.388
X121.92Y-58.166
X121.92Y-60.198
X122.309Y-44.756
X122.311Y-66.304
X122.57Y-42.631
X122.743Y-36.032
X122.865Y-33.219
X122.936Y-22.86
X122.936Y-31.242
X122.937Y-47.488
X123.379Y-44.76
X123.789Y-42.636
X124.275Y-37.186
X124.454Y-44.794
X124.46Y-40.64
X124.678Y-35.959
X124.851Y-43.317
X125.113Y-64.785
X125.222Y-22.86
X125.476Y-36.576
X125.476Y-44.958
X125.573Y-47.468
X125.73Y-29.464
X125.73Y-37.846
X125.74Y-50.957
X125.984Y-42.418
X126.492Y-36.068
X126.492Y-58.166
X126.553Y-55.885
X126.595Y-47.37
X126.599Y-44.77
X126.726Y-32.786
X126.746Y-93.726
X126.959Y-75.606
X127.307Y-41.331
X127.508Y-47.244
X128.001Y-36.835
X128.778Y-60.706
X129.286Y-93.726
X129.54Y-42.672
X129.54Y-53.848
X129.794Y-41.148
X130.119Y-39.146
X130.218Y-43.708
X130.302Y-49.276
X130.556Y-22.86
X130.988Y-31.095
X131.318Y-49.276
X131.826Y-93.726
X132.08Y-74.93
X132.334Y-49.276
X132.588Y-37.846
X132.842Y-42.418
X132.847Y-34.747
X132.878Y-44.293
X132.954Y-33.231
X133.096Y-22.86
X133.096Y-47.498
X133.772Y-43.591
X133.858Y-48.514
X133.858Y-51.054
X133.96Y-55.885
X134.366Y-93.726
X134.874Y-67.818
X135.006Y-30.338
X135.636Y-22.86
X135.89Y-58.166
X136.144Y-73.152
X136.398Y-61.976
X136.398Y-63.5
X136.398Y-78.486
X136.906Y-93.726
X137.16Y-36.576
X137.414Y-35.052
X137.922Y-45.466
X138.079Y-29.342
X138.176Y-22.86
X138.176Y-51.816
X138.176Y-55.118
X138.43Y-60.452
X138.938Y-71.628
X139.446Y-93.726
X139.954Y-33.528
X139.954Y-71.882
X140.208Y-51.816
X140.608Y-27.843
X140.716Y-22.86
X140.716Y-49.53
X140.97Y-40.386
X141.224Y-56.134
X141.478Y-75.184
X141.732Y-65.024
X141.732Y-66.145
X141.986Y-93.726
X142.174Y-63.947
X142.24Y-39.116
X142.494Y-58.928
X142.992Y-76.175
X143.002Y-32.004
X143.031Y-29.348
X143.256Y-22.86
X143.424Y-50.841
X143.51Y-70.104
X143.764Y-59.944
X144.521Y-76.236
X144.526Y-79.502
X144.526Y-93.726
X144.719Y-64.15
X144.902Y-36.434
X145.288Y-60.706
X145.618Y-69.433
X145.796Y-22.86
X146.009Y-64.282
X146.209Y-70.249
X146.304Y-54.356
X146.304Y-79.502
X146.385Y-42.281
X146.662Y-73.21
X147.066Y-48.006
X147.066Y-93.726
X147.32Y-50.292
X147.574Y-67.818
X148.082Y-22.86
X148.316Y-44.326
X148.336Y-32.004
X148.336Y-58.166
X148.336Y-79.502
X148.54Y-39.216
X148.59Y-74.168
X148.59Y-75.692
X148.59Y-76.708
X148.737Y-69.134
X149.098Y-34.798
X149.2Y-29.36
X149.606Y-93.726
X149.86Y-35.814
X149.86Y-53.848
X149.86Y-58.166
X150.114Y-60.452
X150.449Y-25.405
X150.851Y-47.932
X151.044Y-28.438
X151.15Y-42.103
X151.328Y-46.345
X151.402Y-41.072
X152.146Y-93.726
X152.649Y-64.033
X153.996Y-61.299
X154.178Y-74.422
X154.686Y-31.496
X154.686Y-93.726
X154.752Y-29.784
X154.94Y-34.798
X155.197Y-39.994
X155.265Y-38.946
X155.296Y-37.696
X155.448Y-53.086
X155.463Y-55.169
X155.748Y-35.631
X156.464Y-48.006
X156.469Y-67.46
X156.972Y-41.656
X156.972Y-42.926
X157.226Y-54.102
X157.226Y-93.726
X158.496Y-74.676
X158.496Y-79.756
X159.258Y-61.214
X159.258Y-62.484
X159.426Y-25.386
X159.766Y-93.726
X160.274Y-56.642
X160.274Y-70.104
X160.528Y-33.782
X160.528Y-48.26
X161.036Y-41.656
X161.036Y-74.676
X161.036Y-79.756
X161.29Y-61.214
X161.539Y-51.161
X162.306Y-49.276
X162.306Y-93.726
X162.56Y-35.56
X163.521Y-28.003
X163.576Y-22.86
X163.838Y-67.479
X164.084Y-64.77
X164.338Y-61.976
X164.592Y-49.53
X164.846Y-42.926
X164.846Y-93.726
X165.183Y-58.636
X165.354Y-75.692
X165.384Y-74.259
X165.608Y-41.656
X165.983Y-64.922
X166.116Y-61.722
X166.604Y-27.376
X167.132Y-45.212
X167.132Y-58.674
X167.386Y-93.726
X168.585Y-49.736
X168.656Y-41.656
X168.656Y-42.926
X168.656Y-45.212
X168.91Y-58.674
X169.156Y-26.609
X169.164Y-36.322
X169.164Y-64.516
X169.418Y-47.752
X169.672Y-68.58
X169.926Y-93.726
X170.18Y-41.656
X170.18Y-42.926
X170.18Y-45.212
X170.18Y-58.674
X171.196Y-48.26
X171.196Y-51.816
X171.232Y-55.743
X171.656Y-60.453
X171.704Y-33.02
X171.704Y-58.166
X171.704Y-78.486
X171.892Y-54.158
X172.466Y-93.726
X172.467Y-45.499
X172.974Y-73.406
X172.974Y-77.724
X173.866Y-34.171
X174.244Y-60.452
X174.752Y-48.768
X174.752Y-50.292
X175.006Y-93.726
X175.768Y-55.88
X176.022Y-50.292
X176.022Y-79.756
X176.276Y-60.452
X176.423Y-73.442
X176.606Y-28.428
X176.784Y-48.006
X177.074Y-44.42
X177.292Y-36.322
X177.546Y-93.726
X179.095Y-63.907
X179.324Y-66.04
X179.578Y-30.734
X179.578Y-36.322
X179.578Y-60.96
X179.614Y-52.222
X179.832Y-47.498
X179.916Y-71.537
X179.931Y-70.592
X180.34Y-93.726
X180.594Y-66.04
X180.594Y-68.072
X180.731Y-90.625
X181.346Y-43.531
X181.356Y-60.96
X181.356Y-79.756
X181.864Y-51.308
X182.372Y-81.026
X182.408Y-79.954
X182.626Y-62.738
X182.626Y-66.294
X182.88Y-46.99
X182.88Y-48.514
X182.88Y-93.726
X182.99Y-33.84
X183.436Y-76.836
X183.896Y-58.42
X184.404Y-35.052
X185.42Y-93.726
X185.674Y-46.99
X185.928Y-75.438
X186.182Y-35.052
X186.362Y-67.589
X186.69Y-61.722
X187.066Y-45.578
X187.279Y-47.026
X187.452Y-82.042
X187.787Y-63.972
X187.96Y-50.8
X187.96Y-93.726
X188.488Y-72.827
X189.992Y-30.988
X190.146Y-69.769
X190.246Y-57.404
X190.5Y-47.244
X190.5Y-93.726
X190.861Y-41.58
X191.008Y-80.518
X191.13Y-78.633
X191.902Y-74.775
X192.278Y-67.056
X192.278Y-69.596
X193.04Y-93.726
X193.294Y-55.88
X193.548Y-49.53
X193.548Y-51.054
X194.056Y-62.23
X194.056Y-67.056
X194.056Y-69.596
X194.056Y-74.676
X194.056Y-77.216
X194.076Y-63.784
X195.336Y-45.537
X195.58Y-29.464
X195.58Y-93.726
X195.834Y-69.596
X195.834Y-74.676
X198.12Y-93.726
X199.136Y-35.56
X199.136Y-39.116
X199.136Y-41.656
X200.66Y-93.726
X201.676Y-35.56
X201.676Y-39.116
X201.676Y-41.656
X208.781Y-38.348
X208.781Y-40.888
X208.781Y-43.682
X208.781Y-46.222
X208.781Y-48.762
X208.781Y-51.302
X208.781Y-54.096
X208.781Y-56.636
X208.781Y-58.668
X208.781Y-61.208
X208.781Y-64.002
X208.781Y-66.542
X208.781Y-69.082
X208.781Y-71.622
X208.781Y-74.416
X208.781Y-76.956
X208.781Y-79.242
X208.781Y-81.782
X208.788Y-35.56
T2
X124.708Y-92.376
X127.508Y-87.376
T3
X128.85Y-79.587
X133.93Y-79.587
X139.517Y-79.614
X154.757Y-79.614
X168.434Y-24.384
X170.434Y-24.384
X170.434Y-24.384
X172.434Y-24.384
T4
X161.036Y-36.83
X161.036Y-43.33
X195.126Y-39.288
X195.697Y-24.369
X198.237Y-24.369
X198.628Y-55.468
X198.628Y-58.238
X198.628Y-61.008
X198.628Y-63.778
X198.628Y-66.548
X199.136Y-31.242
X200.777Y-24.369
X201.468Y-56.853
X201.468Y-59.623
X201.468Y-62.393
X201.468Y-65.163
X201.676Y-31.242
X205.526Y-39.288
T5
X108.712Y-25.146
X111.252Y-25.146
X113.792Y-25.146
X116.332Y-25.146
X118.872Y-25.146
X121.412Y-25.146
X123.952Y-25.146
X126.492Y-25.146
X129.032Y-25.146
X131.572Y-25.146
X134.112Y-25.146
X136.652Y-25.146
X139.192Y-25.146
X141.732Y-25.146
X144.272Y-25.146
X146.812Y-25.146
X195.126Y-35.338
X195.126Y-41.938
X205.526Y-35.338
X205.526Y-41.988
T6
X105.41Y-61.722
X105.41Y-84.222
T7
X114.046Y-63.246
X114.046Y-78.486
T8
X166.334Y-24.384
X174.534Y-24.384
T9
X116.586Y-87.376
X135.586Y-87.376
X154.736Y-87.376
X164.592Y-83.058
X173.686Y-87.376
X192.636Y-87.376
T10
X103.213Y-25.146
X103.213Y-56.147
X178.211Y-56.147
X178.212Y-25.146
T11
X104.394Y-90.678
X200.048Y-48.508
X200.048Y-73.508
X205.74Y-26.162
X205.74Y-90.678
T0
M30
