M48
;DRILL file {KiCad 4.0.6} date 11/09/17 20:44:06
;FORMAT={3:3/ absolute / metric / suppress leading zeros}
FMAT,2
METRIC,TZ
T1C0.300
T2C1.000
T3C1.600
T4C3.048
%
G90
G05
M71
T1
X1300Y9300
X3100Y23700
X3802Y7518
X4209Y27584
X4700Y36600
X6800Y46329
X7816Y28905
X8628Y44602
X10660Y29133
X10686Y34010
X17000Y30800
X17300Y54300
X18433Y52476
X18585Y45567
X19800Y15900
X20600Y37100
X20600Y25900
X21200Y23800
X21709Y44805
X22300Y29300
X22500Y43200
X22900Y13300
X24000Y22100
X24100Y36500
X24100Y31300
X24783Y50647
X25500Y23100
X25500Y16100
X26231Y27990
X26300Y26900
X26900Y25900
X27300Y13300
X27678Y36576
X27831Y40436
X28200Y25900
X28800Y36600
X29300Y31400
X29400Y47600
X29685Y42418
X30700Y47500
X31793Y15595
X32657Y50241
X32800Y33400
X33012Y7975
X33063Y31775
X34333Y13360
X34740Y50266
X35400Y33100
X35700Y15600
X38448Y11226
X39700Y10400
X43100Y8500
X43400Y16000
X45700Y14500
X46000Y13600
X49900Y50600
X53500Y25400
X53500Y23600
X53500Y22100
X54100Y20100
X54500Y38000
X54500Y16000
X54958Y27787
X56600Y17100
X61300Y10000
X62700Y10100
X65700Y6100
X71200Y10000
X73800Y6200
T2
X56600Y52340
X56600Y49800
X59140Y52340
X59140Y49800
X61680Y52340
X61680Y49800
X64220Y52340
X64220Y49800
X66760Y52340
X66760Y49800
X69300Y52340
X69300Y49800
X71840Y52340
X71840Y49800
X74380Y52340
X74380Y49800
X76920Y52340
X76920Y49800
X79460Y52340
X79460Y49800
T3
X64250Y35400
X64250Y16400
X79750Y35400
X79750Y16400
T4
X3800Y52100
X3800Y3800
X81000Y43500
X81200Y3800
T0
M30
