G04 #@! TF.FileFunction,Copper,L4,Bot,Signal*
%FSLAX46Y46*%
G04 Gerber Fmt 4.6, Leading zero omitted, Abs format (unit mm)*
G04 Created by KiCad (PCBNEW (after 2015-mar-04 BZR unknown)-product) date Mit 06 Jul 2016 10:41:57 CEST*
%MOMM*%
G01*
G04 APERTURE LIST*
%ADD10C,0.100000*%
%ADD11O,5.001260X3.500120*%
%ADD12C,1.600200*%
%ADD13R,1.727200X1.727200*%
%ADD14O,1.727200X1.727200*%
%ADD15R,1.727200X2.032000*%
%ADD16O,1.727200X2.032000*%
%ADD17R,2.235200X2.235200*%
%ADD18R,2.032000X2.032000*%
%ADD19O,2.032000X2.032000*%
%ADD20C,1.200000*%
%ADD21C,1.800000*%
G04 APERTURE END LIST*
D10*
D11*
X59736600Y-50097780D03*
X59736600Y-39899680D03*
D12*
X64001260Y-45000000D03*
X64001260Y-47499360D03*
D13*
X81250000Y-81750000D03*
D14*
X81250000Y-79210000D03*
X83790000Y-81750000D03*
X83790000Y-79210000D03*
X86330000Y-81750000D03*
X86330000Y-79210000D03*
D13*
X108000000Y-36000000D03*
D14*
X110540000Y-36000000D03*
X108000000Y-38540000D03*
X110540000Y-38540000D03*
X108000000Y-41080000D03*
X110540000Y-41080000D03*
X108000000Y-43620000D03*
X110540000Y-43620000D03*
X108000000Y-46160000D03*
X110540000Y-46160000D03*
X108000000Y-48700000D03*
X110540000Y-48700000D03*
X108000000Y-51240000D03*
X110540000Y-51240000D03*
X108000000Y-53780000D03*
X110540000Y-53780000D03*
X108000000Y-56320000D03*
X110540000Y-56320000D03*
X108000000Y-58860000D03*
X110540000Y-58860000D03*
X108000000Y-61400000D03*
X110540000Y-61400000D03*
X108000000Y-63940000D03*
X110540000Y-63940000D03*
X108000000Y-66480000D03*
X110540000Y-66480000D03*
X108000000Y-69020000D03*
X110540000Y-69020000D03*
X108000000Y-71560000D03*
X110540000Y-71560000D03*
X108000000Y-74100000D03*
X110540000Y-74100000D03*
X108000000Y-76640000D03*
X110540000Y-76640000D03*
X108000000Y-79180000D03*
X110540000Y-79180000D03*
X108000000Y-81720000D03*
X110540000Y-81720000D03*
X108000000Y-84260000D03*
X110540000Y-84260000D03*
D11*
X59736600Y-80597780D03*
X59736600Y-70399680D03*
D12*
X64001260Y-75500000D03*
X64001260Y-77999360D03*
D13*
X116500000Y-36000000D03*
D14*
X119040000Y-36000000D03*
X116500000Y-38540000D03*
X119040000Y-38540000D03*
X116500000Y-41080000D03*
X119040000Y-41080000D03*
X116500000Y-43620000D03*
X119040000Y-43620000D03*
X116500000Y-46160000D03*
X119040000Y-46160000D03*
X116500000Y-48700000D03*
X119040000Y-48700000D03*
X116500000Y-51240000D03*
X119040000Y-51240000D03*
X116500000Y-53780000D03*
X119040000Y-53780000D03*
X116500000Y-56320000D03*
X119040000Y-56320000D03*
X116500000Y-58860000D03*
X119040000Y-58860000D03*
X116500000Y-61400000D03*
X119040000Y-61400000D03*
X116500000Y-63940000D03*
X119040000Y-63940000D03*
X116500000Y-66480000D03*
X119040000Y-66480000D03*
X116500000Y-69020000D03*
X119040000Y-69020000D03*
X116500000Y-71560000D03*
X119040000Y-71560000D03*
X116500000Y-74100000D03*
X119040000Y-74100000D03*
X116500000Y-76640000D03*
X119040000Y-76640000D03*
X116500000Y-79180000D03*
X119040000Y-79180000D03*
X116500000Y-81720000D03*
X119040000Y-81720000D03*
X116500000Y-84260000D03*
X119040000Y-84260000D03*
D15*
X91250000Y-87000000D03*
D16*
X93790000Y-87000000D03*
X96330000Y-87000000D03*
X98870000Y-87000000D03*
X101410000Y-87000000D03*
X103950000Y-87000000D03*
D17*
X77750000Y-87000000D03*
D18*
X82500000Y-87000000D03*
D19*
X85040000Y-87000000D03*
D13*
X81250000Y-38500000D03*
D14*
X81250000Y-35960000D03*
X83790000Y-38500000D03*
X83790000Y-35960000D03*
X86330000Y-38500000D03*
X86330000Y-35960000D03*
X88870000Y-38500000D03*
X88870000Y-35960000D03*
X91410000Y-38500000D03*
X91410000Y-35960000D03*
X93950000Y-38500000D03*
X93950000Y-35960000D03*
X96490000Y-38500000D03*
X96490000Y-35960000D03*
X99030000Y-38500000D03*
X99030000Y-35960000D03*
X101570000Y-38500000D03*
X101570000Y-35960000D03*
X104110000Y-38500000D03*
X104110000Y-35960000D03*
D20*
X59800000Y-34725000D03*
X59800000Y-34725000D03*
X61800000Y-34725000D03*
X57800000Y-34725000D03*
D21*
X55700000Y-34725000D03*
X63900000Y-34725000D03*
D20*
X59725000Y-85875000D03*
X59725000Y-85875000D03*
X61725000Y-85875000D03*
X57725000Y-85875000D03*
D21*
X55625000Y-85875000D03*
X63825000Y-85875000D03*
M02*
